<svg width="224" height="256" viewBox="0 0 224 256" fill="none" xmlns="http://www.w3.org/2000/svg">
<path d="M218 240H208V12C208 5.3725 202.628 0 196 0H28C21.3725 0 16 5.3725 16 12V240H6C2.6865 240 0 242.686 0 246V256H224V246C224 242.686 221.314 240 218 240ZM64 38C64 34.6865 66.6865 32 70 32H90C93.3135 32 96 34.6865 96 38V58C96 61.3135 93.3135 64 90 64H70C66.6865 64 64 61.3135 64 58V38ZM64 86C64 82.6865 66.6865 80 70 80H90C93.3135 80 96 82.6865 96 86V106C96 109.313 93.3135 112 90 112H70C66.6865 112 64 109.313 64 106V86ZM90 160H70C66.6865 160 64 157.314 64 154V134C64 130.686 66.6865 128 70 128H90C93.3135 128 96 130.686 96 134V154C96 157.314 93.3135 160 90 160ZM128 240H96V198C96 194.686 98.6865 192 102 192H122C125.313 192 128 194.686 128 198V240ZM160 154C160 157.314 157.314 160 154 160H134C130.686 160 128 157.314 128 154V134C128 130.686 130.686 128 134 128H154C157.314 128 160 130.686 160 134V154ZM160 106C160 109.313 157.314 112 154 112H134C130.686 112 128 109.313 128 106V86C128 82.6865 130.686 80 134 80H154C157.314 80 160 82.6865 160 86V106ZM160 58C160 61.3135 157.314 64 154 64H134C130.686 64 128 61.3135 128 58V38C128 34.6865 130.686 32 134 32H154C157.314 32 160 34.6865 160 38V58Z" fill="#075966"/>
</svg>
