<svg width="224" height="256" viewBox="0 0 224 256" fill="none" xmlns="http://www.w3.org/2000/svg">
<path d="M64 74V54C64 50.7 66.7 48 70 48H90C93.3 48 96 50.7 96 54V74C96 77.3 93.3 80 90 80H70C66.7 80 64 77.3 64 74ZM134 80H154C157.3 80 160 77.3 160 74V54C160 50.7 157.3 48 154 48H134C130.7 48 128 50.7 128 54V74C128 77.3 130.7 80 134 80ZM70 128H90C93.3 128 96 125.3 96 122V102C96 98.7 93.3 96 90 96H70C66.7 96 64 98.7 64 102V122C64 125.3 66.7 128 70 128ZM134 128H154C157.3 128 160 125.3 160 122V102C160 98.7 157.3 96 154 96H134C130.7 96 128 98.7 128 102V122C128 125.3 130.7 128 134 128ZM96 170V150C96 146.7 93.3 144 90 144H70C66.7 144 64 146.7 64 150V170C64 173.3 66.7 176 70 176H90C93.3 176 96 173.3 96 170ZM134 176H154C157.3 176 160 173.3 160 170V150C160 146.7 157.3 144 154 144H134C130.7 144 128 146.7 128 150V170C128 173.3 130.7 176 134 176ZM224 238V256H0V238C0 234.7 2.7 232 6 232H15.75V12C15.75 5.35 21.1 0 27.75 0H196.25C202.9 0 208.25 5.35 208.25 12V232H218C221.3 232 224 234.7 224 238ZM39.75 231.5H96V198C96 194.7 98.7 192 102 192H122C125.3 192 128 194.7 128 198V231.5H184.25V24.5L40 24L39.75 231.5Z" fill="#075966"/>
</svg>
