<?xml version="1.0" encoding="utf-8"?>
<!-- Generator: Adobe Illustrator 19.0.0, SVG Export Plug-In . SVG Version: 6.00 Build 0)  -->
<svg version="1.1" id="Layer_1" xmlns="http://www.w3.org/2000/svg" xmlns:xlink="http://www.w3.org/1999/xlink" x="0px" y="0px"
	 viewBox="-170 48.3 500 500" style="enable-background:new -170 48.3 500 500;" xml:space="preserve">
<style type="text/css">
	.st0{fill:#EBEBEB;}
	.st1{fill:#E0E0E0;}
	.st2{fill:#F5F5F5;}
	.st3{fill:#407BFF;}
	.st4{fill:#FFFFFF;}
	.st5{opacity:0.3;fill:#407BFF;enable-background:new    ;}
	.st6{opacity:0.6;}
	.st7{opacity:0.9;fill:#FFFFFF;enable-background:new    ;}
	.st8{opacity:0.1;fill:#407BFF;enable-background:new    ;}
	.st9{fill:#EB8D00;}
	.st10{opacity:0.7;fill:#EB8D00;enable-background:new    ;}
	.st11{clip-path:url(#SVGID_2_);}
	.st12{opacity:0.1;enable-background:new    ;}
	.st13{opacity:0.6;fill:#EB8D00;enable-background:new    ;}
	.st14{fill:#4AFF4A;}
</style>
<g id="background-complete--inject-2">
	<rect x="-170" y="430.7" class="st0" width="500" height="0.3"/>
	<rect x="224.7" y="446.8" class="st0" width="55.2" height="0.3"/>
	<rect x="151.8" y="441.5" class="st0" width="8.7" height="0.3"/>
	<rect x="202.5" y="437.5" class="st0" width="19.2" height="0.3"/>
	<rect x="-117.5" y="439.2" class="st0" width="43.2" height="0.3"/>
	<rect x="45.3" y="445.6" class="st0" width="45.7" height="0.3"/>
	<rect x="-29.5" y="441.4" class="st0" width="93.7" height="0.3"/>
	<path class="st0" d="M72.7,380.4c0,3.2-2.6,5.7-5.7,5.7c0,0,0,0,0,0h-193.1c-3.1,0-5.7-2.6-5.7-5.7V108.9c0-3.1,2.6-5.7,5.7-5.7H67
		c3.2,0,5.7,2.6,5.7,5.7c0,0,0,0,0,0 M72.5,109c0-3-2.4-5.5-5.4-5.5c0,0,0,0,0,0h-193.1c-3,0-5.5,2.4-5.5,5.5v271.4
		c0,3,2.4,5.5,5.5,5.5H67c3,0,5.5-2.4,5.5-5.5"/>
	<path class="st0" d="M283.3,386.1H90.2c-3.2,0-5.7-2.6-5.7-5.7V108.9c0-3.1,2.6-5.7,5.7-5.7h193.1c3.1,0,5.7,2.5,5.7,5.7v271.4
		C289,383.5,286.5,386.1,283.3,386.1z M90.2,103.5c-3,0-5.5,2.4-5.5,5.5v271.4c0,3,2.4,5.5,5.5,5.5h193.1c3,0,5.5-2.4,5.5-5.5V108.9
		c0-3-2.4-5.5-5.5-5.5H90.2z"/>
	<path class="st1" d="M23.1,195.8c-0.1-15.7-12.9-28.3-28.6-28.2c-3.6,0-7.1,0.7-10.4,2.1c-8.3-17-28.9-24.1-45.9-15.8
		c-9.4,4.6-16.2,13.2-18.5,23.4c-16.3,1.4-28.3,15.8-26.9,32c1.3,15,13.7,26.6,28.8,27h94.1c11.6-0.1,20.9-9.6,20.8-21.2
		C36.4,206.6,31.1,198.9,23.1,195.8L23.1,195.8z"/>
	<path class="st2" d="M264,332.3c-0.1-15.7-13-28.3-28.7-28.2c-3.5,0-7.1,0.7-10.3,2c-8.3-17-28.9-24.1-45.9-15.8
		c-9.4,4.6-16.2,13.2-18.5,23.4c-16.3,1-28.7,15.1-27.6,31.4c1,15.6,13.9,27.7,29.5,27.7h94.1c11.6-0.1,20.9-9.7,20.7-21.3
		C277.2,343,272,335.4,264,332.3z"/>
	<path class="st1" d="M174,240.1c-0.1-8.1-6.7-14.7-14.9-14.6c-1.8,0-3.7,0.4-5.4,1.1c-4.3-8.8-15-12.5-23.8-8.2
		c-4.9,2.4-8.4,6.9-9.6,12.2c-8.4,0.5-14.9,7.8-14.3,16.3c0.5,8.1,7.2,14.4,15.3,14.4h48.8c6,0,10.8-4.9,10.8-10.9
		C180.9,245.8,178.2,241.8,174,240.1L174,240.1z"/>
	<path class="st0" d="M242.8,152.1c-0.1-10.8-8.9-19.4-19.7-19.3c-2.4,0-4.8,0.5-7.1,1.4c-5.7-11.7-19.8-16.5-31.5-10.8
		c-6.4,3.1-11.1,9-12.6,16c-11.2,0.8-19.6,10.5-18.8,21.6c0.7,10.6,9.5,18.8,20.1,18.8h64.5c7.9,0,14.4-6.4,14.4-14.4
		C252,159.6,248.3,154.2,242.8,152.1z"/>
	<path class="st2" d="M36.1,323.5c-0.1-10.8-8.9-19.4-19.6-19.3c-2.4,0-4.9,0.5-7.1,1.4c-5.7-11.7-19.8-16.5-31.5-10.8
		c-6.4,3.1-11.1,9-12.7,16c-11.2,0.8-19.6,10.5-18.8,21.6c0.7,10.6,9.5,18.8,20.1,18.8H31c7.9,0,14.4-6.4,14.4-14.4
		C45.4,331,41.7,325.6,36.1,323.5L36.1,323.5z"/>
	<path class="st1" d="M-39,223.3c-0.1,0-0.3-0.1-0.4-0.1c0,0-0.1-0.1-0.1-0.2c0-0.1,0-0.1,0-0.2c0-0.1,0-0.1,0-0.2
		c0-0.1,0.1-0.1,0.1-0.2c0.1-0.1,0.4-0.2,0.5-0.1c0.1,0,0.1,0.1,0.2,0.1c0.1,0.1,0.2,0.2,0.1,0.4c0,0.1,0,0.1,0,0.2
		c0,0.1-0.1,0.1-0.1,0.2C-38.7,223.3-38.9,223.3-39,223.3z"/>
	<path class="st1" d="M-39.5,244.9c0-0.3,0.2-0.5,0.5-0.5l0,0c0.3,0,0.5,0.2,0.5,0.5l0,0c0,0.3-0.2,0.5-0.5,0.5l0,0
		C-39.3,245.4-39.5,245.2-39.5,244.9z M-39.5,239.4c0-0.3,0.2-0.5,0.5-0.5l0,0c0.3,0,0.5,0.2,0.5,0.5l0,0c0,0.3-0.2,0.5-0.5,0.5l0,0
		C-39.3,239.9-39.5,239.6-39.5,239.4L-39.5,239.4z M-39.5,233.9c0-0.3,0.2-0.5,0.5-0.5l0,0c0.3,0,0.5,0.2,0.5,0.5l0,0
		c0,0.3-0.2,0.5-0.5,0.5l0,0C-39.3,234.4-39.5,234.1-39.5,233.9L-39.5,233.9z M-39.5,228.4c0-0.3,0.2-0.5,0.5-0.5l0,0
		c0.3,0,0.5,0.2,0.5,0.5l0,0c0,0.3-0.2,0.5-0.5,0.5l0,0C-39.3,228.8-39.5,228.6-39.5,228.4L-39.5,228.4z"/>
	<path class="st1" d="M-39,250.9c-0.1,0-0.1,0-0.2,0c-0.1-0.1-0.2-0.1-0.3-0.3c0-0.1,0-0.1,0-0.2c0-0.1,0-0.1,0-0.2
		c0-0.1,0.1-0.1,0.1-0.2c0,0,0.1-0.1,0.2-0.1c0.1-0.1,0.3-0.1,0.4,0c0.1,0,0.1,0.1,0.2,0.1c0.1,0,0.1,0.1,0.1,0.2c0,0.1,0,0.1,0,0.2
		c0,0.1-0.1,0.3-0.1,0.4c0,0.1-0.1,0.1-0.2,0.1C-38.9,250.9-39,250.9-39,250.9z"/>
	<path class="st1" d="M52.2,250.4c0-0.3,0.2-0.5,0.5-0.5l0,0c0.3,0,0.5,0.2,0.5,0.5l0,0c0,0.3-0.2,0.5-0.5,0.5c0,0,0,0,0,0l0,0
		C52.4,250.9,52.2,250.7,52.2,250.4C52.2,250.4,52.2,250.4,52.2,250.4z M46.1,250.4c0-0.3,0.2-0.5,0.5-0.5l0,0
		c0.3,0,0.5,0.2,0.5,0.5l0,0c0,0.3-0.2,0.5-0.5,0.5c0,0,0,0,0,0l0,0C46.3,250.9,46.1,250.7,46.1,250.4z M39.9,250.4
		c0-0.3,0.2-0.5,0.5-0.5l0,0c0.3,0,0.5,0.2,0.5,0.5l0,0c0,0.3-0.2,0.5-0.5,0.5l0,0C40.2,250.9,40,250.6,39.9,250.4L39.9,250.4z
		 M33.8,250.4c0-0.3,0.2-0.5,0.5-0.5l0,0c0.3,0,0.5,0.2,0.5,0.5l0,0c0,0.3-0.2,0.5-0.5,0.5l0,0C34.1,250.9,33.8,250.7,33.8,250.4z
		 M27.7,250.4c0-0.3,0.2-0.5,0.5-0.5l0,0c0.3,0,0.5,0.2,0.5,0.5l0,0c0,0.3-0.2,0.5-0.5,0.5l0,0C27.9,250.9,27.7,250.7,27.7,250.4z
		 M21.6,250.4c0-0.3,0.2-0.5,0.5-0.5l0,0c0.3,0,0.5,0.2,0.5,0.5l0,0c0,0.3-0.2,0.5-0.5,0.5l0,0C21.8,250.9,21.6,250.7,21.6,250.4z
		 M15.5,250.4c0-0.3,0.2-0.5,0.5-0.5l0,0c0.3,0,0.5,0.2,0.5,0.5l0,0c0,0.3-0.2,0.5-0.5,0.5l0,0C15.7,250.9,15.5,250.7,15.5,250.4z
		 M9.4,250.4c0-0.3,0.2-0.5,0.5-0.5l0,0c0.3,0,0.5,0.2,0.5,0.5l0,0c0,0.3-0.2,0.5-0.5,0.5l0,0C9.6,250.9,9.4,250.7,9.4,250.4z
		 M3.3,250.4c0-0.3,0.2-0.5,0.5-0.5l0,0c0.3,0,0.5,0.2,0.5,0.5l0,0c0,0.3-0.2,0.5-0.5,0.5l0,0C3.5,250.9,3.3,250.7,3.3,250.4z
		 M-2.8,250.4c0-0.3,0.2-0.5,0.5-0.5l0,0c0.3,0,0.5,0.2,0.5,0.5l0,0c0,0.3-0.2,0.5-0.5,0.5l0,0C-2.6,250.9-2.8,250.7-2.8,250.4z
		 M-8.9,250.4c0-0.3,0.2-0.5,0.5-0.5l0,0c0.3,0,0.5,0.2,0.5,0.5l0,0c0,0.3-0.2,0.5-0.5,0.5c0,0,0,0,0,0l0,0
		C-8.7,250.9-8.9,250.7-8.9,250.4z M-15.1,250.4c0-0.3,0.2-0.5,0.5-0.5l0,0c0.3,0,0.5,0.2,0.5,0.5l0,0c0,0.3-0.2,0.5-0.5,0.5
		c0,0,0,0,0,0l0,0C-14.8,250.9-15,250.6-15.1,250.4L-15.1,250.4z M-21.2,250.4c0-0.3,0.2-0.5,0.5-0.5l0,0c0.3,0,0.5,0.2,0.5,0.5l0,0
		c0,0.3-0.2,0.5-0.5,0.5l0,0C-20.9,250.9-21.2,250.7-21.2,250.4z M-27.3,250.4c0-0.3,0.2-0.5,0.5-0.5l0,0c0.3,0,0.5,0.2,0.5,0.5l0,0
		c0,0.3-0.2,0.5-0.5,0.5l0,0C-27.1,250.9-27.3,250.7-27.3,250.4z M-33.4,250.4c0-0.3,0.2-0.5,0.5-0.5l0,0c0.3,0,0.5,0.2,0.5,0.5l0,0
		c0,0.3-0.2,0.5-0.5,0.5l0,0C-33.2,250.9-33.4,250.7-33.4,250.4z"/>
	<path class="st1" d="M58.8,250.9c-0.1,0-0.1,0-0.2,0c-0.1,0-0.1-0.1-0.2-0.1c0,0-0.1-0.1-0.1-0.2c0-0.1,0-0.1,0-0.2
		c0-0.1,0.1-0.3,0.1-0.4c0,0,0.1-0.1,0.2-0.1c0.1-0.1,0.3-0.1,0.4,0c0.1,0,0.1,0.1,0.2,0.1c0.1,0.1,0.1,0.2,0.1,0.4
		c0,0.1-0.1,0.3-0.1,0.4c0,0.1-0.1,0.1-0.2,0.1C58.9,250.9,58.9,250.9,58.8,250.9z"/>
	<path class="st1" d="M58.3,244.4c0-0.3,0.2-0.5,0.5-0.5l0,0c0.3,0,0.5,0.2,0.5,0.5l0,0c0,0.3-0.2,0.5-0.5,0.5l0,0
		C58.5,244.9,58.3,244.7,58.3,244.4z M58.3,238.4c0-0.3,0.2-0.5,0.5-0.5l0,0c0.3,0,0.5,0.2,0.5,0.5l0,0c0,0.3-0.2,0.5-0.5,0.5l0,0
		C58.5,238.9,58.3,238.7,58.3,238.4L58.3,238.4z M58.3,232.4c0-0.3,0.2-0.5,0.5-0.5l0,0c0.3,0,0.5,0.2,0.5,0.5l0,0
		c0,0.3-0.2,0.5-0.5,0.5l0,0C58.5,232.9,58.3,232.8,58.3,232.4L58.3,232.4z M58.3,226.4c0-0.3,0.2-0.5,0.5-0.5l0,0
		c0.3,0,0.5,0.2,0.5,0.5l0,0c0,0.3-0.2,0.5-0.5,0.5l0,0c-0.2,0-0.4-0.1-0.5-0.4V226.4z M58.3,220.4c0-0.3,0.2-0.5,0.5-0.5l0,0
		c0.3,0,0.5,0.2,0.5,0.5l0,0c0,0.3-0.2,0.5-0.5,0.5l0,0c-0.2,0-0.4-0.1-0.5-0.3V220.4z M58.3,214.4c0-0.3,0.2-0.5,0.5-0.5l0,0
		c0.3,0,0.5,0.2,0.5,0.5l0,0c0,0.3-0.2,0.5-0.5,0.5l0,0c-0.2,0-0.4-0.1-0.5-0.3V214.4z M58.3,208.4c0-0.3,0.2-0.5,0.5-0.5l0,0
		c0.3,0,0.5,0.2,0.5,0.5l0,0c0,0.3-0.2,0.5-0.5,0.5l0,0c-0.2,0-0.4-0.1-0.5-0.2V208.4z M58.3,202.5c0-0.3,0.2-0.5,0.5-0.5l0,0
		c0.3,0,0.5,0.2,0.5,0.5l0,0c0,0.3-0.2,0.5-0.5,0.5l0,0c-0.2,0-0.4-0.1-0.5-0.2V202.5z M58.3,196.5c0-0.3,0.2-0.5,0.5-0.5l0,0
		c0.3,0,0.5,0.2,0.5,0.5l0,0c0,0.3-0.2,0.5-0.5,0.5l0,0c-0.2,0-0.4,0-0.5-0.2V196.5z"/>
	<path class="st1" d="M58.8,191.3c-0.1,0-0.1,0-0.2,0l-0.2-0.1c0,0-0.1-0.1-0.1-0.2c0-0.1,0-0.1,0-0.2c0-0.1,0-0.1,0-0.2
		c0-0.1,0.1-0.1,0.1-0.2l0.2-0.1c0.1-0.1,0.3-0.1,0.4,0c0.1,0,0.1,0.1,0.2,0.1c0.1,0.1,0.1,0.2,0.1,0.4
		C59.3,191.2,59.1,191.4,58.8,191.3L58.8,191.3z"/>
	<path class="st1" d="M196,190.8c0-0.3,0.2-0.5,0.5-0.5c0,0,0,0,0,0l0,0c0.3,0,0.5,0.2,0.5,0.5l0,0c0,0.3-0.2,0.5-0.5,0.5l0,0
		C196.2,191.3,196,191.1,196,190.8z M190,190.8c0-0.3,0.2-0.5,0.5-0.5c0,0,0,0,0,0l0,0c0.3,0,0.5,0.2,0.5,0.5c0,0,0,0,0,0l0,0
		c0,0.3-0.2,0.5-0.5,0.5l0,0C190.2,191.3,190,191.1,190,190.8z M184,190.8c0-0.3,0.2-0.5,0.5-0.5l0,0c0.3,0,0.5,0.2,0.5,0.5
		c0,0,0,0,0,0l0,0c0,0.3-0.2,0.5-0.5,0.5l0,0C184.2,191.3,184,191.1,184,190.8z M178,190.8c0-0.3,0.2-0.5,0.5-0.5c0,0,0,0,0,0l0,0
		c0.3,0,0.5,0.2,0.5,0.5c0,0,0,0,0,0l0,0c0,0.3-0.2,0.5-0.5,0.5l0,0C178.2,191.3,178,191.1,178,190.8z M172,190.8
		c0-0.3,0.2-0.5,0.5-0.5c0,0,0,0,0,0l0,0c0.3,0,0.5,0.2,0.5,0.5l0,0c0,0.3-0.2,0.5-0.5,0.5l0,0C172.2,191.3,172,191.1,172,190.8z
		 M166,190.8c0-0.3,0.2-0.5,0.5-0.5c0,0,0,0,0,0l0,0c0.3,0,0.5,0.2,0.5,0.5c0,0,0,0,0,0l0,0c0,0.3-0.2,0.5-0.5,0.5l0,0
		C166.2,191.3,166,191.1,166,190.8L166,190.8z M160,190.8c0-0.3,0.2-0.5,0.5-0.5l0,0c0.3,0,0.5,0.2,0.5,0.5c0,0,0,0,0,0l0,0
		c0,0.3-0.2,0.5-0.5,0.5l0,0C160.2,191.3,160.1,191.1,160,190.8L160,190.8z M154,190.8c0-0.3,0.2-0.5,0.5-0.5c0,0,0,0,0,0l0,0
		c0.3,0,0.5,0.2,0.5,0.5l0,0c0,0.3-0.2,0.5-0.5,0.5l0,0C154.3,191.3,154.1,191.1,154,190.8L154,190.8z M148,190.8
		c0-0.3,0.2-0.5,0.5-0.5c0,0,0,0,0,0l0,0c0.3,0,0.5,0.2,0.5,0.5l0,0c0,0.3-0.2,0.5-0.5,0.5l0,0C148.3,191.3,148.1,191.1,148,190.8
		L148,190.8z M142,190.8c0-0.3,0.2-0.5,0.5-0.5l0,0c0.3,0,0.5,0.2,0.5,0.5c0,0,0,0,0,0l0,0c0,0.3-0.2,0.5-0.5,0.5l0,0
		c-0.2-0.1-0.4-0.3-0.4-0.5H142z M136,190.8c0-0.3,0.2-0.5,0.5-0.5l0,0l0,0c0.3,0,0.5,0.2,0.5,0.5c0,0,0,0,0,0l0,0
		c0,0.3-0.2,0.5-0.5,0.5l0,0c-0.2-0.1-0.4-0.3-0.4-0.5H136z M130,190.8c0-0.3,0.2-0.5,0.5-0.5c0,0,0,0,0,0l0,0
		c0.3,0,0.5,0.2,0.5,0.5l0,0c0,0.3-0.2,0.5-0.5,0.5l0,0c-0.2-0.1-0.4-0.3-0.4-0.5H130z M124,190.8c0-0.3,0.2-0.5,0.5-0.5
		c0,0,0,0,0,0l0,0c0.3,0,0.5,0.2,0.5,0.5c0,0,0,0,0,0l0,0c0,0.3-0.2,0.5-0.5,0.5l0,0c-0.2-0.1-0.4-0.3-0.4-0.5H124z M118,190.8
		c0-0.3,0.2-0.5,0.5-0.5l0,0c0.3,0,0.5,0.2,0.5,0.5c0,0,0,0,0,0l0,0c0,0.3-0.2,0.5-0.5,0.5l0,0c-0.2-0.1-0.4-0.3-0.4-0.5H118z
		 M112,190.8c0-0.3,0.2-0.5,0.5-0.5l0,0c0.3,0,0.5,0.2,0.5,0.5l0,0l0,0c0,0.3-0.2,0.5-0.5,0.5l0,0c-0.2-0.1-0.3-0.3-0.3-0.5H112z
		 M106,190.8c0-0.3,0.2-0.5,0.5-0.5c0,0,0,0,0,0l0,0c0.3,0,0.5,0.2,0.5,0.5l0,0c0,0.3-0.2,0.5-0.5,0.5l0,0c-0.2-0.1-0.3-0.3-0.3-0.5
		H106z M100,190.8c0-0.3,0.2-0.5,0.5-0.5c0,0,0,0,0,0l0,0c0.3,0,0.5,0.2,0.5,0.5l0,0c0,0.3-0.2,0.5-0.5,0.5l0,0
		c-0.2-0.1-0.3-0.3-0.3-0.5H100z M94,190.8c0-0.3,0.2-0.5,0.5-0.5l0,0c0.3,0,0.5,0.2,0.5,0.5c0,0,0,0,0,0l0,0c0,0.3-0.2,0.5-0.5,0.5
		l0,0c-0.2-0.1-0.3-0.3-0.3-0.5H94z M88,190.8c0-0.3,0.2-0.5,0.5-0.5c0,0,0,0,0,0l0,0c0.3,0,0.5,0.2,0.5,0.5c0,0,0,0,0,0l0,0
		c0,0.3-0.2,0.5-0.5,0.5l0,0c-0.2-0.1-0.3-0.3-0.3-0.5H88z M82,190.8c0-0.3,0.2-0.5,0.5-0.5c0,0,0,0,0,0l0,0c0.3,0,0.5,0.2,0.5,0.5
		l0,0c0,0.3-0.2,0.5-0.5,0.5l0,0c-0.2-0.1-0.3-0.3-0.3-0.5H82z M76,190.8c0-0.3,0.2-0.5,0.5-0.5c0,0,0,0,0,0l0,0
		c0.3,0,0.5,0.2,0.5,0.5c0,0,0,0,0,0l0,0c0,0.3-0.2,0.5-0.5,0.5l0,0c-0.2-0.1-0.3-0.3-0.3-0.5H76z M70,190.8c0-0.3,0.2-0.5,0.5-0.5
		l0,0c0.3,0,0.5,0.2,0.5,0.5c0,0,0,0,0,0l0,0c0,0.3-0.2,0.5-0.5,0.5l0,0c-0.2-0.1-0.3-0.3-0.3-0.5H70z M64,190.8
		c0-0.3,0.2-0.5,0.5-0.5c0,0,0,0,0,0l0,0c0.3,0,0.5,0.2,0.5,0.5l0,0c0,0.3-0.2,0.5-0.5,0.5l0,0c-0.2-0.1-0.3-0.3-0.2-0.5H64z"/>
	<path class="st1" d="M202.5,191.3c-0.3,0-0.5-0.2-0.5-0.5c0-0.1,0.1-0.3,0.1-0.4c0,0,0.1-0.1,0.2-0.1c0.2-0.1,0.4,0,0.5,0.1
		c0,0.1,0.1,0.1,0.1,0.2c0,0.1,0,0.1,0,0.2c0,0.1,0,0.3-0.1,0.4C202.7,191.3,202.6,191.3,202.5,191.3z"/>
	<path class="st1" d="M202,185.1c0-0.3,0.2-0.5,0.5-0.5l0,0c0.3,0,0.5,0.2,0.5,0.5c0,0,0,0,0,0l0,0c0,0.3-0.2,0.5-0.5,0.5
		c0,0,0,0,0,0l0,0C202.2,185.6,202,185.3,202,185.1z M202,179.3c0-0.3,0.2-0.5,0.5-0.5l0,0c0.3,0,0.5,0.2,0.5,0.5l0,0
		c0,0.3-0.2,0.5-0.5,0.5l0,0l0,0C202.2,179.8,202,179.6,202,179.3C202,179.3,202,179.3,202,179.3L202,179.3z M202,173.5
		c0-0.3,0.2-0.5,0.5-0.5l0,0c0.3,0,0.5,0.2,0.5,0.5l0,0c0,0.3-0.2,0.5-0.5,0.5c0,0,0,0,0,0l0,0C202.2,174,202,173.8,202,173.5z
		 M202,167.8c0-0.3,0.2-0.5,0.5-0.5l0,0c0.3,0,0.5,0.2,0.5,0.5l0,0c0,0.3-0.2,0.5-0.5,0.5c0,0,0,0,0,0l0,0
		C202.2,168.3,202,168,202,167.8z M202,162c0-0.3,0.2-0.5,0.5-0.5l0,0c0.3,0,0.5,0.2,0.5,0.5l0,0c0,0.3-0.2,0.5-0.5,0.5c0,0,0,0,0,0
		l0,0C202.2,162.5,202,162.3,202,162C202,162,202,162,202,162z M202,156.2c0-0.3,0.2-0.5,0.5-0.5l0,0c0.3,0,0.5,0.2,0.5,0.5l0,0
		c0,0.3-0.2,0.5-0.5,0.5c0,0,0,0,0,0l0,0C202.2,156.7,202,156.5,202,156.2C202,156.2,202,156.2,202,156.2z"/>
	<path class="st1" d="M202.5,150.9c-0.1,0-0.3-0.1-0.4-0.1c-0.1-0.1-0.1-0.2-0.1-0.4c0-0.1,0-0.1,0-0.2c0-0.1,0.1-0.1,0.1-0.2
		c0.2-0.2,0.5-0.2,0.7,0c0.1,0.1,0.1,0.2,0.1,0.4c0,0.1,0,0.1,0,0.2c0,0.1-0.1,0.1-0.1,0.2c0,0-0.1,0.1-0.2,0.1
		C202.6,150.9,202.5,150.9,202.5,150.9z"/>
	<path class="st1" d="M-4.2,339.1c-0.1,0-0.3,0-0.4-0.1c0,0-0.1-0.1-0.1-0.2c0-0.1,0-0.1,0-0.2c0-0.1,0.1-0.3,0.1-0.4
		c0.1-0.1,0.4-0.2,0.6-0.1c0.1,0,0.1,0.1,0.2,0.1c0.1,0.1,0.1,0.2,0.1,0.4c0,0.1,0,0.1,0,0.2c0,0.1-0.1,0.1-0.1,0.2
		c0,0-0.1,0.1-0.2,0.1C-4,339.1-4.1,339.1-4.2,339.1z"/>
	<path class="st1" d="M-4.7,363.1c0-0.3,0.2-0.5,0.5-0.5l0,0c0.3,0,0.5,0.2,0.5,0.5c0,0,0,0,0,0l0,0c0,0.3-0.2,0.5-0.5,0.5l0,0
		C-4.5,363.6-4.7,363.4-4.7,363.1z M-4.7,357c0-0.3,0.2-0.5,0.5-0.5l0,0c0.3,0,0.5,0.2,0.5,0.5l0,0c0,0.3-0.2,0.5-0.5,0.5
		c0,0,0,0,0,0l0,0C-4.5,357.5-4.7,357.3-4.7,357L-4.7,357z M-4.7,350.9c0-0.3,0.2-0.5,0.5-0.5l0,0c0.3,0,0.5,0.2,0.5,0.5l0,0
		c0,0.3-0.2,0.5-0.5,0.5l0,0C-4.5,351.4-4.7,351.2-4.7,350.9L-4.7,350.9z M-4.7,344.7c0-0.3,0.2-0.5,0.5-0.5l0,0
		c0.3,0,0.5,0.2,0.5,0.5c0,0,0,0,0,0l0,0c0,0.3-0.2,0.5-0.5,0.5l0,0C-4.5,345.2-4.7,345-4.7,344.7L-4.7,344.7z"/>
	<path class="st1" d="M-4.2,369.8c-0.1,0-0.3-0.1-0.4-0.1c0,0-0.1-0.1-0.1-0.2c0-0.1,0-0.1,0-0.2c0-0.1,0-0.1,0-0.2
		c0-0.1,0.1-0.1,0.1-0.2c0.1-0.1,0.4-0.2,0.6-0.1c0.1,0,0.1,0.1,0.2,0.1c0,0,0.1,0.1,0.1,0.2c0,0.1,0,0.1,0,0.2c0,0.1,0,0.1,0,0.2
		c0,0.1-0.1,0.1-0.1,0.2c0,0-0.1,0.1-0.2,0.1C-4.1,369.8-4.1,369.8-4.2,369.8z"/>
	<path class="st1" d="M52.6,369.3c0-0.3,0.2-0.5,0.5-0.5l0,0c0.3,0,0.5,0.2,0.5,0.5l0,0c0,0.3-0.2,0.5-0.5,0.5l0,0
		C52.8,369.8,52.6,369.6,52.6,369.3z M46.8,369.3c0-0.3,0.2-0.5,0.5-0.5l0,0c0.3,0,0.5,0.2,0.5,0.5l0,0c0,0.3-0.2,0.5-0.5,0.5l0,0
		C47.1,369.8,46.8,369.6,46.8,369.3z M41.1,369.3c0-0.3,0.2-0.5,0.5-0.5l0,0c0.3,0,0.5,0.2,0.5,0.5l0,0c0,0.3-0.2,0.5-0.5,0.5l0,0
		C41.3,369.8,41.1,369.6,41.1,369.3z M35.4,369.3c0-0.3,0.2-0.5,0.5-0.5l0,0c0.3,0,0.5,0.2,0.5,0.5l0,0c0,0.3-0.2,0.5-0.5,0.5l0,0
		C35.6,369.8,35.4,369.6,35.4,369.3z M29.7,369.3c0-0.3,0.2-0.5,0.5-0.5l0,0c0.3,0,0.5,0.2,0.5,0.5l0,0c0,0.3-0.2,0.5-0.5,0.5l0,0
		C29.9,369.8,29.7,369.6,29.7,369.3C29.6,369.3,29.6,369.3,29.7,369.3L29.7,369.3z M23.9,369.3c0-0.3,0.2-0.5,0.5-0.5c0,0,0,0,0,0
		l0,0c0.3,0,0.5,0.2,0.5,0.5c0,0,0,0,0,0l0,0c0,0.3-0.2,0.5-0.5,0.5c0,0,0,0,0,0l0,0C24.2,369.8,23.9,369.6,23.9,369.3
		C23.9,369.3,23.9,369.3,23.9,369.3L23.9,369.3z M18.2,369.3c0-0.3,0.2-0.5,0.5-0.5l0,0c0.3,0,0.5,0.2,0.5,0.5l0,0
		c0,0.3-0.2,0.5-0.5,0.5l0,0C18.4,369.8,18.2,369.6,18.2,369.3C18.2,369.3,18.2,369.3,18.2,369.3L18.2,369.3z M12.5,369.3
		c0-0.3,0.2-0.5,0.5-0.5l0,0c0.3,0,0.5,0.2,0.5,0.5l0,0c0,0.3-0.2,0.5-0.5,0.5l0,0C12.7,369.8,12.5,369.6,12.5,369.3
		C12.5,369.3,12.5,369.3,12.5,369.3L12.5,369.3z M6.8,369.3c0-0.3,0.2-0.5,0.5-0.5l0,0c0.3,0,0.5,0.2,0.5,0.5l0,0
		c0,0.3-0.2,0.5-0.5,0.5l0,0C7,369.8,6.8,369.6,6.8,369.3C6.8,369.3,6.8,369.3,6.8,369.3L6.8,369.3z M1,369.3c0-0.3,0.2-0.5,0.5-0.5
		l0,0c0.3,0,0.5,0.2,0.5,0.5l0,0c0,0.3-0.2,0.5-0.5,0.5l0,0C1.2,369.8,1,369.6,1,369.3z"/>
	<path class="st1" d="M58.8,369.8c-0.1,0-0.1,0-0.2,0c-0.1,0-0.1-0.1-0.2-0.1c0,0-0.1-0.1-0.1-0.2c0-0.1,0-0.1,0-0.2
		c0-0.1,0-0.3,0.1-0.4c0,0,0.1-0.1,0.2-0.1c0.1-0.1,0.3-0.1,0.4,0c0.1,0,0.1,0.1,0.2,0.1c0.1,0.1,0.1,0.2,0.1,0.4c0,0.1,0,0.1,0,0.2
		c0,0.1-0.1,0.1-0.1,0.2c0,0.1-0.1,0.1-0.2,0.1C59,369.8,58.9,369.8,58.8,369.8z"/>
	<path class="st1" d="M58.3,363.5c0-0.3,0.2-0.5,0.5-0.5l0,0c0.3,0,0.5,0.2,0.5,0.5l0,0c0,0.3-0.2,0.5-0.5,0.5l0,0
		C58.5,364,58.3,363.7,58.3,363.5z M58.3,357.6c0-0.3,0.2-0.5,0.5-0.5c0,0,0,0,0,0l0,0c0.3,0,0.5,0.2,0.5,0.5l0,0
		c0,0.3-0.2,0.5-0.5,0.5l0,0C58.5,358.1,58.3,357.9,58.3,357.6z M58.3,351.8c0-0.3,0.2-0.5,0.5-0.5l0,0c0.3,0,0.5,0.2,0.5,0.5l0,0
		c0,0.3-0.2,0.5-0.5,0.5l0,0C58.5,352.3,58.3,352.1,58.3,351.8z M58.3,346c0-0.3,0.2-0.5,0.5-0.5l0,0c0.3,0,0.5,0.2,0.5,0.5l0,0
		c0,0.3-0.2,0.5-0.5,0.5l0,0C58.5,346.5,58.3,346.3,58.3,346z M58.3,340.2c0-0.3,0.2-0.5,0.5-0.5l0,0c0.3,0,0.5,0.2,0.5,0.5l0,0
		c0,0.3-0.2,0.5-0.5,0.5l0,0C58.5,340.7,58.3,340.4,58.3,340.2L58.3,340.2z M58.3,334.3c0-0.3,0.2-0.5,0.5-0.5l0,0
		c0.3,0,0.5,0.2,0.5,0.5l0,0c0,0.3-0.2,0.5-0.5,0.5l0,0C58.5,334.8,58.3,334.6,58.3,334.3L58.3,334.3z M58.3,328.5
		c0-0.3,0.2-0.5,0.5-0.5l0,0c0.3,0,0.5,0.2,0.5,0.5l0,0c0,0.3-0.2,0.5-0.5,0.5l0,0C58.5,329,58.3,328.8,58.3,328.5L58.3,328.5z
		 M58.3,322.7c0-0.3,0.2-0.5,0.5-0.5l0,0c0.3,0,0.5,0.2,0.5,0.5l0,0c0,0.3-0.2,0.5-0.5,0.5l0,0C58.5,323.2,58.3,323,58.3,322.7
		L58.3,322.7z M58.3,316.9c0-0.3,0.2-0.5,0.5-0.5l0,0c0.3,0,0.5,0.2,0.5,0.5l0,0c0,0.3-0.2,0.5-0.5,0.5l0,0
		C58.5,317.4,58.3,317.2,58.3,316.9L58.3,316.9z M58.3,311.1c0-0.3,0.2-0.5,0.5-0.5l0,0c0.3,0,0.5,0.2,0.5,0.5l0,0
		c0,0.3-0.2,0.5-0.5,0.5l0,0C58.5,311.6,58.3,311.3,58.3,311.1L58.3,311.1z M58.3,305.2c0-0.3,0.2-0.5,0.5-0.5l0,0
		c0.3,0,0.5,0.2,0.5,0.5l0,0c0,0.3-0.2,0.5-0.5,0.5l0,0C58.5,305.7,58.3,305.5,58.3,305.2L58.3,305.2z M58.3,299.4
		c0-0.3,0.2-0.5,0.5-0.5l0,0c0.3,0,0.5,0.2,0.5,0.5l0,0c0,0.3-0.2,0.5-0.5,0.5l0,0C58.5,299.9,58.3,299.7,58.3,299.4L58.3,299.4z
		 M58.3,293.6c0-0.3,0.2-0.5,0.5-0.5l0,0c0.3,0,0.5,0.2,0.5,0.5l0,0c0,0.3-0.2,0.5-0.5,0.5l0,0C58.5,294.1,58.3,293.9,58.3,293.6
		L58.3,293.6z M58.3,287.8c0-0.3,0.2-0.5,0.5-0.5l0,0c0.3,0,0.5,0.2,0.5,0.5l0,0c0,0.3-0.2,0.5-0.5,0.5l0,0
		C58.5,288.3,58.3,288,58.3,287.8L58.3,287.8z"/>
	<path class="st1" d="M58.8,282.5c-0.1,0-0.1,0-0.2,0c-0.1,0-0.1-0.1-0.2-0.1c0,0-0.1-0.1-0.1-0.2c0-0.1,0-0.1,0-0.2
		c0-0.1,0-0.3,0.1-0.4c0.1,0,0.1-0.1,0.2-0.1c0.1-0.1,0.3-0.1,0.4,0c0.1,0,0.1,0.1,0.2,0.1c0.1,0.1,0.1,0.2,0.1,0.4
		c0,0.1,0,0.1,0,0.2c0,0.1-0.1,0.1-0.1,0.2C59.1,282.4,59,282.5,58.8,282.5L58.8,282.5z"/>
	<path class="st1" d="M136.9,282c0-0.3,0.2-0.5,0.5-0.5l0,0c0.3,0,0.5,0.2,0.5,0.5l0,0c0,0.3-0.2,0.5-0.5,0.5l0,0
		C137.1,282.4,136.9,282.2,136.9,282z M130.9,282c0-0.3,0.2-0.5,0.5-0.5l0,0c0.3,0,0.5,0.2,0.5,0.5c0,0,0,0,0,0l0,0
		c0,0.3-0.2,0.5-0.5,0.5l0,0C131.1,282.4,130.9,282.2,130.9,282L130.9,282z M124.8,282c0-0.3,0.2-0.5,0.5-0.5l0,0
		c0.3,0,0.5,0.2,0.5,0.5l0,0c0,0.3-0.2,0.5-0.5,0.5l0,0C125,282.4,124.8,282.2,124.8,282L124.8,282z M118.8,282
		c0-0.3,0.2-0.5,0.5-0.5c0,0,0,0,0,0l0,0c0.3,0,0.5,0.2,0.5,0.5l0,0c0,0.3-0.2,0.5-0.5,0.5l0,0C119,282.5,118.8,282.3,118.8,282
		C118.8,282,118.8,282,118.8,282L118.8,282z M112.8,282c0-0.3,0.2-0.5,0.5-0.5l0,0c0.3,0,0.5,0.2,0.5,0.5l0,0c0,0.3-0.2,0.5-0.5,0.5
		l0,0C113,282.5,112.8,282.3,112.8,282C112.7,282,112.7,282,112.8,282L112.8,282z M106.8,282c0-0.3,0.2-0.5,0.5-0.5l0,0
		c0.3,0,0.5,0.2,0.5,0.5l0,0c0,0.3-0.2,0.5-0.5,0.5l0,0C107,282.5,106.7,282.3,106.8,282C106.7,282,106.7,282,106.8,282L106.8,282z
		 M100.7,282c0-0.3,0.2-0.5,0.5-0.5l0,0c0.3,0,0.5,0.2,0.5,0.5l0,0c0,0.3-0.2,0.5-0.5,0.5l0,0C100.9,282.5,100.7,282.3,100.7,282
		C100.6,282,100.6,282,100.7,282L100.7,282z M94.7,282c0-0.3,0.2-0.5,0.5-0.5l0,0c0.3,0,0.5,0.2,0.5,0.5l0,0c0,0.3-0.2,0.5-0.5,0.5
		l0,0C94.9,282.5,94.6,282.3,94.7,282C94.6,282,94.6,282,94.7,282L94.7,282z M88.6,282c0-0.3,0.2-0.5,0.5-0.5l0,0
		c0.3,0,0.5,0.2,0.5,0.5l0,0c0,0.3-0.2,0.5-0.5,0.5l0,0C88.8,282.5,88.6,282.3,88.6,282C88.5,282,88.5,282,88.6,282L88.6,282z
		 M82.6,282c0-0.3,0.2-0.5,0.5-0.5l0,0c0.3,0,0.5,0.2,0.5,0.5l0,0c0,0.3-0.2,0.5-0.5,0.5l0,0c-0.3,0.1-0.6-0.1-0.6-0.4
		c0,0,0-0.1,0-0.1H82.6z M76.6,282c0-0.3,0.2-0.5,0.5-0.5l0,0c0.3,0,0.5,0.2,0.5,0.5l0,0c0,0.3-0.2,0.5-0.5,0.5l0,0
		c-0.3,0.1-0.6-0.1-0.6-0.4c0,0,0-0.1,0-0.1H76.6z M70.6,282c0-0.3,0.2-0.5,0.5-0.5l0,0c0.3,0,0.5,0.2,0.5,0.5l0,0
		c0,0.3-0.2,0.5-0.5,0.5l0,0c-0.3,0.1-0.5,0-0.6-0.3c0-0.1,0-0.1,0-0.2H70.6z M64.6,282c0-0.3,0.2-0.5,0.5-0.5l0,0
		c0.3,0,0.5,0.2,0.5,0.5l0,0c0,0.3-0.2,0.5-0.5,0.5l0,0c-0.2,0.1-0.5,0-0.7-0.2c0-0.1-0.1-0.2-0.1-0.3H64.6z"/>
	<path class="st1" d="M143.5,282.5c-0.1,0-0.3-0.1-0.4-0.1c0,0-0.1-0.1-0.1-0.2c0-0.1,0-0.1,0-0.2c0-0.1,0-0.1,0-0.2
		c0-0.1,0.1-0.1,0.1-0.2c0,0,0.1-0.1,0.2-0.1c0.1-0.1,0.3-0.1,0.4,0c0.1,0,0.1,0.1,0.2,0.1c0,0,0.1,0.1,0.1,0.2c0,0.1,0,0.1,0,0.2
		c0,0.1,0,0.3-0.1,0.4C143.7,282.4,143.6,282.4,143.5,282.5z"/>
	<path class="st1" d="M143,275.6c0-0.3,0.2-0.5,0.5-0.5l0,0c0.3,0,0.5,0.2,0.5,0.5l0,0c0,0.3-0.2,0.5-0.5,0.5l0,0
		C143.2,276.1,143,275.9,143,275.6z M143,269.3c0-0.3,0.2-0.5,0.5-0.5l0,0c0.3,0,0.5,0.2,0.5,0.5l0,0c0,0.3-0.2,0.5-0.5,0.5
		c0,0,0,0,0,0l0,0C143.2,269.8,143,269.6,143,269.3z M143,263c0-0.3,0.2-0.5,0.5-0.5l0,0c0.3,0,0.5,0.2,0.5,0.5l0,0
		c0,0.3-0.2,0.5-0.5,0.5l0,0C143.2,263.5,143,263.3,143,263z M143,256.7c0-0.3,0.2-0.5,0.5-0.5l0,0c0.3,0,0.5,0.2,0.5,0.5l0,0
		c0,0.3-0.2,0.5-0.5,0.5l0,0C143.2,257.2,143,257,143,256.7z"/>
	<path class="st1" d="M143.5,250.9c-0.1,0-0.3,0-0.4-0.1c0-0.1-0.1-0.1-0.1-0.2c0-0.1,0-0.1,0-0.2c0-0.1,0-0.1,0-0.2
		c0.1-0.1,0.1-0.2,0.3-0.3c0.2-0.1,0.4,0,0.5,0.1c0.1,0.1,0.1,0.2,0.1,0.4C144,250.7,143.8,250.9,143.5,250.9
		C143.5,250.9,143.5,250.9,143.5,250.9z"/>
	<path class="st1" d="M202.5,361.5c-0.1,0-0.3-0.1-0.4-0.1c-0.1-0.1-0.1-0.2-0.1-0.4c0-0.1,0.1-0.3,0.1-0.4c0.1-0.1,0.4-0.2,0.5-0.1
		c0.1,0,0.1,0.1,0.2,0.1c0,0.1,0.1,0.1,0.1,0.2c0,0.1,0,0.1,0,0.2c0,0.1,0,0.3-0.1,0.4C202.7,361.4,202.6,361.4,202.5,361.5z"/>
	<path class="st1" d="M202,395.5c0-0.3,0.2-0.5,0.5-0.5l0,0c0.3,0,0.5,0.2,0.5,0.5c0,0,0,0,0,0l0,0c0,0.3-0.2,0.5-0.5,0.5
		c0,0,0,0,0,0l0,0C202.2,396,202,395.8,202,395.5z M202,389.8c0-0.3,0.2-0.5,0.5-0.5l0,0c0.3,0,0.5,0.2,0.5,0.5c0,0,0,0,0,0l0,0
		c0,0.3-0.2,0.5-0.5,0.5l0,0C202.2,390.3,202,390,202,389.8L202,389.8z M202,384c0-0.3,0.2-0.5,0.5-0.5l0,0c0.3,0,0.5,0.2,0.5,0.5
		l0,0c0,0.3-0.2,0.5-0.5,0.5c0,0,0,0,0,0l0,0C202.2,384.5,202,384.3,202,384z M202,378.2c0-0.3,0.2-0.5,0.5-0.5l0,0
		c0.3,0,0.5,0.2,0.5,0.5l0,0c0,0.3-0.2,0.5-0.5,0.5c0,0,0,0,0,0l0,0C202.2,378.7,202,378.5,202,378.2L202,378.2z M202,372.5
		c0-0.3,0.2-0.5,0.5-0.5l0,0c0.3,0,0.5,0.2,0.5,0.5c0,0,0,0,0,0l0,0c0,0.3-0.2,0.5-0.5,0.5c0,0,0,0,0,0l0,0
		C202.2,373,202,372.7,202,372.5L202,372.5z M202,366.7c0-0.3,0.2-0.5,0.5-0.5l0,0c0.3,0,0.5,0.2,0.5,0.5c0,0,0,0,0,0l0,0
		c0,0.3-0.2,0.5-0.5,0.5l0,0C202.2,367.2,202,367,202,366.7L202,366.7z"/>
	<path class="st1" d="M202.5,401.8c-0.1,0-0.3-0.1-0.4-0.1c-0.1-0.1-0.1-0.2-0.1-0.4c0-0.1,0-0.1,0-0.2c0-0.1,0.1-0.1,0.1-0.2
		c0.2-0.2,0.5-0.2,0.7,0c0.1,0.1,0.1,0.2,0.1,0.4c0,0.1,0,0.1,0,0.2c0,0.1-0.1,0.1-0.1,0.2c0,0-0.1,0.1-0.2,0.1
		C202.6,401.8,202.6,401.8,202.5,401.8z"/>
	<path class="st1" d="M196,401.3c0-0.3,0.2-0.5,0.5-0.5l0,0c0.3,0,0.5,0.2,0.5,0.5l0,0c0,0.3-0.2,0.5-0.5,0.5l0,0
		C196.2,401.8,196,401.6,196,401.3z M190,401.3c0-0.3,0.2-0.5,0.5-0.5l0,0c0.3,0,0.5,0.2,0.5,0.5l0,0c0,0.3-0.2,0.5-0.5,0.5l0,0
		C190.2,401.8,190,401.6,190,401.3z M184,401.3c0-0.3,0.2-0.5,0.5-0.5l0,0c0.3,0,0.5,0.2,0.5,0.5l0,0c0,0.3-0.2,0.5-0.5,0.5l0,0
		C184.2,401.8,184,401.6,184,401.3z M178,401.3c0-0.3,0.2-0.5,0.5-0.5l0,0c0.3,0,0.5,0.2,0.5,0.5l0,0c0,0.3-0.2,0.5-0.5,0.5l0,0
		C178.2,401.8,178,401.6,178,401.3z M172,401.3c0-0.3,0.2-0.5,0.5-0.5l0,0c0.3,0,0.5,0.2,0.5,0.5l0,0c0,0.3-0.2,0.5-0.5,0.5l0,0
		C172.2,401.8,172,401.6,172,401.3z M166,401.3c0-0.3,0.2-0.5,0.5-0.5l0,0c0.3,0,0.5,0.2,0.5,0.5l0,0c0,0.3-0.2,0.5-0.5,0.5l0,0
		C166.2,401.8,166,401.5,166,401.3L166,401.3z M160,401.3c0-0.3,0.2-0.5,0.5-0.5l0,0c0.3,0,0.5,0.2,0.5,0.5l0,0
		c0,0.3-0.2,0.5-0.5,0.5l0,0C160.2,401.7,160.1,401.5,160,401.3L160,401.3z M154,401.3c0-0.3,0.2-0.5,0.5-0.5c0,0,0,0,0,0l0,0
		c0.3,0,0.5,0.2,0.5,0.5l0,0c0,0.3-0.2,0.5-0.5,0.5l0,0C154.3,401.7,154.1,401.5,154,401.3L154,401.3z M148,401.3
		c0-0.3,0.2-0.5,0.5-0.5l0,0c0.3,0,0.5,0.2,0.5,0.5l0,0c0,0.3-0.2,0.5-0.5,0.5l0,0C148.3,401.7,148.1,401.5,148,401.3L148,401.3z
		 M142,401.3c0-0.3,0.2-0.5,0.5-0.5l0,0c0.3,0,0.5,0.2,0.5,0.5l0,0c0,0.3-0.2,0.5-0.5,0.5l0,0c-0.2,0-0.4-0.3-0.4-0.5H142z
		 M136,401.3c0-0.3,0.2-0.5,0.5-0.5l0,0c0.3,0,0.5,0.2,0.5,0.5l0,0c0,0.3-0.2,0.5-0.5,0.5l0,0c-0.2-0.1-0.4-0.3-0.4-0.5H136z
		 M130,401.3c0-0.3,0.2-0.5,0.5-0.5l0,0c0.3,0,0.5,0.2,0.5,0.5c0,0,0,0,0,0l0,0c0,0.3-0.2,0.5-0.5,0.5c0,0,0,0,0,0l0,0
		c-0.2-0.1-0.4-0.3-0.4-0.5H130z M124,401.3c0-0.3,0.2-0.5,0.5-0.5l0,0c0.3,0,0.5,0.2,0.5,0.5l0,0c0,0.3-0.2,0.5-0.5,0.5l0,0
		c-0.2-0.1-0.4-0.3-0.4-0.5H124z M118,401.3c0-0.3,0.2-0.5,0.5-0.5l0,0c0.3,0,0.5,0.2,0.5,0.5l0,0c0,0.3-0.2,0.5-0.5,0.5l0,0
		c-0.2-0.1-0.4-0.3-0.4-0.5H118z M112,401.3c0-0.3,0.2-0.5,0.5-0.5l0,0c0.3,0,0.5,0.2,0.5,0.5l0,0c0,0.3-0.2,0.5-0.5,0.5l0,0
		c-0.2-0.1-0.4-0.3-0.3-0.5H112z M106,401.3c0-0.3,0.2-0.5,0.5-0.5l0,0c0.3,0,0.5,0.2,0.5,0.5l0,0c0,0.3-0.2,0.5-0.5,0.5l0,0
		c-0.2-0.1-0.3-0.3-0.3-0.5H106z M100,401.3c0-0.3,0.2-0.5,0.5-0.5l0,0c0.3,0,0.5,0.2,0.5,0.5l0,0c0,0.3-0.2,0.5-0.5,0.5l0,0
		c-0.2-0.1-0.3-0.3-0.3-0.5H100z M94,401.3c0-0.3,0.2-0.5,0.5-0.5l0,0c0.3,0,0.5,0.2,0.5,0.5l0,0c0,0.3-0.2,0.5-0.5,0.5l0,0
		c-0.2-0.1-0.3-0.3-0.3-0.5H94z M88,401.3c0-0.3,0.2-0.5,0.5-0.5c0,0,0,0,0,0l0,0c0.3,0,0.5,0.2,0.5,0.5l0,0c0,0.3-0.2,0.5-0.5,0.5
		l0,0c-0.2-0.1-0.3-0.3-0.3-0.5H88z M82,401.3c0-0.3,0.2-0.5,0.5-0.5l0,0c0.3,0,0.5,0.2,0.5,0.5l0,0c0,0.3-0.2,0.5-0.5,0.5l0,0
		c-0.2-0.1-0.3-0.3-0.3-0.5H82z M76,401.3c0-0.3,0.2-0.5,0.5-0.5l0,0c0.3,0,0.5,0.2,0.5,0.5l0,0c0,0.3-0.2,0.5-0.5,0.5l0,0
		c-0.2-0.1-0.3-0.3-0.3-0.5H76z M70,401.3c0-0.3,0.2-0.5,0.5-0.5l0,0c0.3,0,0.5,0.2,0.5,0.5l0,0c0,0.3-0.2,0.5-0.5,0.5l0,0
		c-0.2-0.1-0.3-0.3-0.3-0.5H70z M64,401.3c0-0.3,0.2-0.5,0.5-0.5l0,0c0.3,0,0.5,0.2,0.5,0.5c0,0,0,0,0,0l0,0c0,0.3-0.2,0.5-0.5,0.5
		c0,0,0,0,0,0l0,0c-0.2-0.1-0.3-0.3-0.2-0.5H64z"/>
	<path class="st1" d="M58.8,401.8c-0.1,0-0.1,0-0.2,0c-0.1,0-0.1-0.1-0.2-0.1c-0.2-0.2-0.2-0.5,0-0.7c0,0,0.1-0.1,0.2-0.1
		c0.1-0.1,0.3-0.1,0.4,0c0.1,0,0.1,0.1,0.2,0.1c0.2,0.2,0.2,0.5,0,0.7c0,0,0,0,0,0c0,0.1-0.1,0.1-0.2,0.1
		C58.9,401.8,58.8,401.8,58.8,401.8z"/>
	<path class="st1" d="M58.3,394.9c0-0.3,0.2-0.5,0.5-0.5l0,0c0.3,0,0.5,0.2,0.5,0.5l0,0c0,0.3-0.2,0.5-0.5,0.5l0,0
		C58.5,395.4,58.3,395.2,58.3,394.9z M58.3,388.5c0-0.3,0.2-0.5,0.5-0.5l0,0c0.3,0,0.5,0.2,0.5,0.5l0,0c0,0.3-0.2,0.5-0.5,0.5l0,0
		C58.5,389,58.3,388.8,58.3,388.5z M58.3,382.1c0-0.3,0.2-0.5,0.5-0.5l0,0c0.3,0,0.5,0.2,0.5,0.5l0,0c0,0.3-0.2,0.5-0.5,0.5l0,0
		C58.5,382.6,58.3,382.4,58.3,382.1L58.3,382.1L58.3,382.1z M58.3,375.7c0-0.3,0.2-0.5,0.5-0.5l0,0c0.3,0,0.5,0.2,0.5,0.5l0,0
		c0,0.3-0.2,0.5-0.5,0.5l0,0C58.5,376.2,58.3,376,58.3,375.7L58.3,375.7L58.3,375.7z"/>
	<path class="st1" d="M58.8,369.8c-0.1,0-0.1,0-0.2,0c-0.1,0-0.1-0.1-0.2-0.1c0,0-0.1-0.1-0.1-0.2c0-0.1,0-0.1,0-0.2
		c0-0.1,0-0.3,0.1-0.4c0,0,0.1-0.1,0.2-0.1c0.1-0.1,0.3-0.1,0.4,0c0.1,0,0.1,0.1,0.2,0.1c0.1,0.1,0.1,0.2,0.1,0.4c0,0.1,0,0.1,0,0.2
		c0,0.1-0.1,0.1-0.1,0.2c0,0.1-0.1,0.1-0.2,0.1C59,369.8,58.9,369.8,58.8,369.8z"/>
	<path class="st1" d="M58.8,250.9c-0.1,0-0.1,0-0.2,0c-0.1,0-0.1-0.1-0.2-0.1c0,0-0.1-0.1-0.1-0.2c0-0.1,0-0.1,0-0.2
		c0-0.1,0.1-0.3,0.1-0.4c0,0,0.1-0.1,0.2-0.1c0.1-0.1,0.3-0.1,0.4,0c0.1,0,0.1,0.1,0.2,0.1c0.1,0.1,0.1,0.2,0.1,0.4
		c0,0.1-0.1,0.3-0.1,0.4c0,0.1-0.1,0.1-0.2,0.1C58.9,250.9,58.9,250.9,58.8,250.9z"/>
	<path class="st1" d="M58.3,275.6c0-0.3,0.2-0.5,0.5-0.5c0,0,0,0,0,0l0,0c0.3,0,0.5,0.2,0.5,0.5l0,0c0,0.3-0.2,0.5-0.5,0.5l0,0
		C58.5,276.1,58.3,275.9,58.3,275.6z M58.3,269.3c0-0.3,0.2-0.5,0.5-0.5l0,0c0.3,0,0.5,0.2,0.5,0.5l0,0c0,0.3-0.2,0.5-0.5,0.5l0,0
		C58.5,269.8,58.3,269.6,58.3,269.3z M58.3,263c0-0.3,0.2-0.5,0.5-0.5l0,0c0.3,0,0.5,0.2,0.5,0.5l0,0c0,0.3-0.2,0.5-0.5,0.5l0,0
		C58.5,263.5,58.3,263.3,58.3,263z M58.3,256.7c0-0.3,0.2-0.5,0.5-0.5l0,0c0.3,0,0.5,0.2,0.5,0.5l0,0c0,0.3-0.2,0.5-0.5,0.5l0,0
		C58.5,257.2,58.3,257,58.3,256.7z"/>
	<path class="st1" d="M58.8,282.5c-0.1,0-0.1,0-0.2,0c-0.1,0-0.1-0.1-0.2-0.1c0,0-0.1-0.1-0.1-0.2c0-0.1,0-0.1,0-0.2
		c0-0.1,0-0.3,0.1-0.4c0.1,0,0.1-0.1,0.2-0.1c0.1-0.1,0.3-0.1,0.4,0c0.1,0,0.1,0.1,0.2,0.1c0.1,0.1,0.1,0.2,0.1,0.4
		c0,0.1,0,0.1,0,0.2c0,0.1-0.1,0.1-0.1,0.2C59.1,282.4,59,282.5,58.8,282.5L58.8,282.5z"/>
</g>
<g id="Shadow--inject-2">
	<ellipse id="path--inject-2" class="st2" cx="80" cy="464.5" rx="193.9" ry="11.3"/>
</g>
<g id="Monitors--inject-2">
	<path class="st3" d="M-46.7,401.8l2-34.2c0.1-2,1.8-3.6,3.8-3.6h55.6c1.9,0,3.4,1.5,3.4,3.3c0,0.1,0,0.2,0,0.3l-2,34.2
		c-0.1,2-1.8,3.6-3.8,3.6h-55.6c-1.9,0-3.4-1.5-3.4-3.4C-46.7,401.9-46.7,401.8-46.7,401.8z"/>
	<path class="st4" d="M-49.5,401.8l2-34.2c0.1-2,1.8-3.6,3.8-3.6h57.8c1.9,0,3.4,1.5,3.4,3.4c0,0.1,0,0.2,0,0.3l-2,34.2
		c-0.1,2-1.8,3.6-3.8,3.6h-57.8c-1.9,0-3.4-1.5-3.4-3.4C-49.5,401.9-49.5,401.8-49.5,401.8z"/>
	<path class="st5" d="M-49.5,401.8l2-34.2c0.1-2,1.8-3.6,3.8-3.6h57.8c1.9,0,3.4,1.5,3.4,3.4c0,0.1,0,0.2,0,0.3l-2,34.2
		c-0.1,2-1.8,3.6-3.8,3.6h-57.8c-1.9,0-3.4-1.5-3.4-3.4C-49.5,401.9-49.5,401.8-49.5,401.8z"/>
	<path class="st3" d="M2.4,412.3v0.5c0,2-1.6,3.6-3.6,3.6h-20.9c-2,0-3.6-1.6-3.6-3.6v-0.5c0-2,1.6-3.6,3.6-3.6h20.9
		C0.7,408.7,2.4,410.3,2.4,412.3z"/>
	<g class="st6">
		<path class="st4" d="M2.4,412.3v0.5c0,2-1.6,3.6-3.6,3.6h-20.9c-2,0-3.6-1.6-3.6-3.6v-0.5c0-2,1.6-3.6,3.6-3.6h20.9
			C0.7,408.7,2.4,410.3,2.4,412.3z"/>
	</g>
	<path class="st4" d="M-4,412.3v0.5c0,2-1.6,3.6-3.6,3.6h-23.1c-2,0-3.6-1.6-3.6-3.6v-0.5c0-2,1.6-3.6,3.6-3.6h23.1
		C-5.6,408.7-4,410.3-4,412.3z"/>
	<path class="st5" d="M-4,412.3v0.5c0,2-1.6,3.6-3.6,3.6h-23.1c-2,0-3.6-1.6-3.6-3.6v-0.5c0-2,1.6-3.6,3.6-3.6h23.1
		C-5.6,408.7-4,410.3-4,412.3z"/>
	<path class="st7" d="M12.5,403.6h-59.2c-0.8,0-1.5-0.7-1.5-1.5c0,0,0-0.1,0-0.1l2-34.8c0.1-0.9,0.8-1.6,1.7-1.6h59.2
		c0.8,0,1.5,0.7,1.5,1.5c0,0,0,0.1,0,0.1l-2,34.8C14.1,402.9,13.4,403.6,12.5,403.6z"/>
	<polygon class="st8" points="-29.6,403.6 -41.4,403.6 -30.6,365.6 -18.9,365.6 	"/>
	<polygon class="st8" points="-20,403.6 -28.2,403.6 -17.4,365.6 -9.2,365.6 	"/>
	<polygon class="st8" points="-2.1,403.6 -10.3,403.6 0.5,365.6 8.7,365.6 	"/>
	<path class="st3" d="M49,401.8l2-34.2c0.1-2,1.8-3.6,3.8-3.6h55.6c1.9,0,3.4,1.5,3.4,3.3c0,0.1,0,0.2,0,0.3l-2,34.2
		c-0.1,2-1.8,3.6-3.8,3.6H52.4c-1.9,0-3.4-1.5-3.4-3.3C49,402,49,401.9,49,401.8z"/>
	<path class="st4" d="M46.2,401.8l2-34.2c0.1-2,1.8-3.6,3.8-3.6h57.8c1.9,0,3.4,1.5,3.4,3.3c0,0.1,0,0.2,0,0.3l-2,34.2
		c-0.1,2-1.8,3.6-3.8,3.6H49.6c-1.9,0-3.4-1.5-3.4-3.4C46.2,401.9,46.2,401.9,46.2,401.8z"/>
	<path class="st5" d="M46.2,401.8l2-34.2c0.1-2,1.8-3.6,3.8-3.6h57.8c1.9,0,3.4,1.5,3.4,3.3c0,0.1,0,0.2,0,0.3l-2,34.2
		c-0.1,2-1.8,3.6-3.8,3.6H49.6c-1.9,0-3.4-1.5-3.4-3.4C46.2,401.9,46.2,401.9,46.2,401.8z"/>
	<path class="st3" d="M98.1,412.3v0.5c0,2-1.6,3.6-3.6,3.6H73.5c-2,0-3.6-1.6-3.6-3.6v-0.5c0-2,1.6-3.6,3.6-3.6h20.9
		C96.4,408.7,98.1,410.3,98.1,412.3z"/>
	<g class="st6">
		<path class="st4" d="M98.1,412.3v0.5c0,2-1.6,3.6-3.6,3.6H73.5c-2,0-3.6-1.6-3.6-3.6v-0.5c0-2,1.6-3.6,3.6-3.6h20.9
			C96.4,408.7,98.1,410.3,98.1,412.3z"/>
	</g>
	<path class="st4" d="M91.7,412.3v0.5c0,2-1.6,3.6-3.6,3.6H65c-2,0-3.6-1.6-3.6-3.6v-0.5c0-2,1.6-3.6,3.6-3.6h23.1
		C90.1,408.7,91.7,410.3,91.7,412.3z"/>
	<path class="st5" d="M91.7,412.3v0.5c0,2-1.6,3.6-3.6,3.6H65c-2,0-3.6-1.6-3.6-3.6v-0.5c0-2,1.6-3.6,3.6-3.6h23.1
		C90.1,408.7,91.7,410.3,91.7,412.3z"/>
	<path class="st7" d="M108.2,403.6H49c-0.8,0-1.5-0.7-1.5-1.5c0,0,0-0.1,0-0.1l2-34.8c0.1-0.9,0.8-1.6,1.7-1.6h59.2
		c0.8,0,1.5,0.7,1.5,1.5c0,0,0,0.1,0,0.1l-2,34.8C109.9,402.9,109.1,403.6,108.2,403.6z"/>
	<polygon class="st8" points="66.1,403.6 54.3,403.6 65.1,365.6 76.9,365.6 	"/>
	<polygon class="st8" points="75.7,403.6 67.5,403.6 78.3,365.6 86.5,365.6 	"/>
	<polygon class="st8" points="93.7,403.6 85.4,403.6 96.2,365.6 104.4,365.6 	"/>
	<path class="st3" d="M144.7,401.8l2-34.2c0.1-2,1.8-3.6,3.8-3.6h55.6c1.9,0,3.4,1.5,3.4,3.4c0,0.1,0,0.2,0,0.3l-2,34.2
		c-0.1,2-1.8,3.6-3.8,3.6h-55.6c-1.9,0-3.4-1.5-3.4-3.4C144.7,401.9,144.7,401.8,144.7,401.8z"/>
	<path class="st4" d="M141.9,401.8l2-34.2c0.1-2,1.8-3.6,3.8-3.6h57.8c1.9,0,3.4,1.5,3.4,3.4c0,0.1,0,0.2,0,0.3l-2,34.2
		c-0.1,2-1.8,3.6-3.8,3.6h-57.8c-1.9,0-3.4-1.5-3.4-3.3C141.9,402,141.9,401.9,141.9,401.8z"/>
	<path class="st5" d="M141.9,401.8l2-34.2c0.1-2,1.8-3.6,3.8-3.6h57.8c1.9,0,3.4,1.5,3.4,3.4c0,0.1,0,0.2,0,0.3l-2,34.2
		c-0.1,2-1.8,3.6-3.8,3.6h-57.8c-1.9,0-3.4-1.5-3.4-3.3C141.9,402,141.9,401.9,141.9,401.8z"/>
	<path class="st3" d="M193.8,412.3v0.5c0,2-1.6,3.6-3.6,3.6h-20.9c-2,0-3.6-1.6-3.6-3.6v-0.5c0-2,1.6-3.6,3.6-3.6h20.9
		C192.2,408.7,193.8,410.3,193.8,412.3z"/>
	<g class="st6">
		<path class="st4" d="M193.8,412.3v0.5c0,2-1.6,3.6-3.6,3.6h-20.9c-2,0-3.6-1.6-3.6-3.6v-0.5c0-2,1.6-3.6,3.6-3.6h20.9
			C192.2,408.7,193.8,410.3,193.8,412.3z"/>
	</g>
	<path class="st4" d="M187.4,412.3v0.5c0,2-1.6,3.6-3.6,3.6h-23.1c-2,0-3.6-1.6-3.6-3.6v-0.5c0-2,1.6-3.6,3.6-3.6h23.1
		C185.8,408.7,187.4,410.3,187.4,412.3z"/>
	<path class="st5" d="M187.4,412.3v0.5c0,2-1.6,3.6-3.6,3.6h-23.1c-2,0-3.6-1.6-3.6-3.6v-0.5c0-2,1.6-3.6,3.6-3.6h23.1
		C185.8,408.7,187.4,410.3,187.4,412.3z"/>
	<path class="st7" d="M204,403.6h-59.3c-0.8,0-1.5-0.7-1.5-1.5c0,0,0-0.1,0-0.1l2-34.8c0.1-0.9,0.8-1.6,1.7-1.6h59.2
		c0.8,0,1.5,0.6,1.5,1.5c0,0,0,0.1,0,0.1l-2,34.8C205.6,402.9,204.9,403.6,204,403.6z"/>
	<polygon class="st8" points="161.8,403.6 150,403.6 160.8,365.6 172.6,365.6 	"/>
	<polygon class="st8" points="171.4,403.6 163.2,403.6 174,365.6 182.2,365.6 	"/>
	<polygon class="st8" points="189.4,403.6 181.1,403.6 191.9,365.6 200.1,365.6 	"/>
</g>
<g id="Connection--inject-2">
	<path class="st3" d="M-16.3,357.1c-0.1,0-0.1,0-0.2,0l-0.2-0.1c0,0-0.1-0.1-0.1-0.2c0-0.1,0-0.1,0-0.2c0-0.1,0-0.3,0.1-0.4
		c0.1-0.1,0.4-0.2,0.6-0.1c0.1,0,0.1,0.1,0.2,0.1c0,0,0.1,0.1,0.1,0.2c0,0.1,0,0.1,0,0.2c0,0.1,0,0.1,0,0.2c0,0.1-0.1,0.1-0.1,0.2
		C-16,357.1-16.1,357.1-16.3,357.1L-16.3,357.1z"/>
	<path class="st3" d="M-16.8,352.9c0-0.3,0.2-0.5,0.5-0.5l0,0c0.3,0,0.5,0.2,0.5,0.5l0,0c0,0.3-0.2,0.5-0.5,0.5l0,0
		C-16.6,353.4-16.8,353.2-16.8,352.9z"/>
	<path class="st3" d="M-16.3,349.8c-0.1,0-0.3-0.1-0.4-0.1c0,0-0.1-0.1-0.1-0.2c0-0.1,0-0.1,0-0.2c0-0.1,0-0.3,0.1-0.4
		c0.1-0.1,0.4-0.2,0.6-0.1c0.1,0,0.1,0.1,0.2,0.1c0.1,0,0.1,0.1,0.1,0.2c0,0.1,0,0.1,0,0.2c0,0.1,0,0.1,0,0.2
		c-0.1,0.1-0.1,0.2-0.3,0.3C-16.2,349.7-16.2,349.8-16.3,349.8z"/>
	<path class="st3" d="M75.5,349.3c0-0.3,0.2-0.5,0.5-0.5l0,0c0.3,0,0.5,0.2,0.5,0.5l0,0c0,0.3-0.2,0.5-0.5,0.5l0,0
		C75.7,349.8,75.5,349.6,75.5,349.3C75.5,349.3,75.5,349.3,75.5,349.3z M71.5,349.3c0-0.3,0.2-0.5,0.5-0.5l0,0
		c0.3,0,0.5,0.2,0.5,0.5l0,0c0,0.3-0.2,0.5-0.5,0.5l0,0C71.7,349.8,71.5,349.6,71.5,349.3C71.5,349.3,71.5,349.3,71.5,349.3
		L71.5,349.3z M67.5,349.3c0-0.3,0.2-0.5,0.5-0.5l0,0c0.3,0,0.5,0.2,0.5,0.5l0,0c0,0.3-0.2,0.5-0.5,0.5l0,0
		C67.7,349.8,67.5,349.6,67.5,349.3C67.5,349.3,67.5,349.3,67.5,349.3L67.5,349.3z M63.5,349.3c0-0.3,0.2-0.5,0.5-0.5l0,0
		c0.3,0,0.5,0.2,0.5,0.5l0,0c0,0.3-0.2,0.5-0.5,0.5c0,0,0,0,0,0l0,0C63.7,349.8,63.5,349.6,63.5,349.3
		C63.5,349.3,63.4,349.3,63.5,349.3L63.5,349.3z M59.5,349.3c0-0.3,0.2-0.5,0.5-0.5l0,0c0.3,0,0.5,0.2,0.5,0.5l0,0
		c0,0.3-0.2,0.5-0.5,0.5l0,0C59.7,349.8,59.5,349.6,59.5,349.3C59.4,349.3,59.4,349.3,59.5,349.3L59.5,349.3z M55.5,349.3
		c0-0.3,0.2-0.5,0.5-0.5l0,0c0.3,0,0.5,0.2,0.5,0.5l0,0c0,0.3-0.2,0.5-0.5,0.5l0,0C55.7,349.8,55.5,349.6,55.5,349.3
		C55.4,349.3,55.4,349.3,55.5,349.3L55.5,349.3z M51.5,349.3c0-0.3,0.2-0.5,0.5-0.5l0,0c0.3,0,0.5,0.2,0.5,0.5l0,0
		c0,0.3-0.2,0.5-0.5,0.5l0,0C51.7,349.8,51.5,349.6,51.5,349.3C51.4,349.3,51.4,349.3,51.5,349.3L51.5,349.3z M47.5,349.3
		c0-0.3,0.2-0.5,0.5-0.5l0,0c0.3,0,0.5,0.2,0.5,0.5l0,0c0,0.3-0.2,0.5-0.5,0.5l0,0c-0.3,0.1-0.5-0.1-0.6-0.4c0,0,0-0.1,0-0.1H47.5z
		 M43.5,349.3c0-0.3,0.2-0.5,0.5-0.5l0,0c0.3,0,0.5,0.2,0.5,0.5l0,0c0,0.3-0.2,0.5-0.5,0.5l0,0c-0.3,0.1-0.5-0.1-0.6-0.4
		c0,0,0-0.1,0-0.1H43.5z M39.5,349.3c0-0.3,0.2-0.5,0.5-0.5l0,0c0.3,0,0.5,0.2,0.5,0.5l0,0c0,0.3-0.2,0.5-0.5,0.5l0,0
		c-0.3,0.1-0.5-0.1-0.6-0.4c0,0,0-0.1,0-0.1H39.5z M35.5,349.3c0-0.3,0.2-0.5,0.5-0.5l0,0c0.3,0,0.5,0.2,0.5,0.5l0,0
		c0,0.3-0.2,0.5-0.5,0.5l0,0c-0.3,0.1-0.5-0.1-0.6-0.3c0-0.1,0-0.1,0-0.2H35.5z M31.5,349.3c0-0.3,0.2-0.5,0.5-0.5l0,0
		c0.3,0,0.5,0.2,0.5,0.5l0,0c0,0.3-0.2,0.5-0.5,0.5l0,0c-0.3,0.1-0.5-0.1-0.6-0.3c0-0.1,0-0.1,0-0.2H31.5z M27.5,349.3
		c0-0.3,0.2-0.5,0.5-0.5l0,0c0.3,0,0.5,0.2,0.5,0.5l0,0c0,0.3-0.2,0.5-0.5,0.5l0,0c-0.3,0.1-0.5,0-0.6-0.3c0-0.1,0-0.1,0-0.2H27.5z
		 M23.5,349.3c0-0.3,0.2-0.5,0.5-0.5l0,0c0.3,0,0.5,0.2,0.5,0.5l0,0c0,0.3-0.2,0.5-0.5,0.5l0,0c-0.3,0.1-0.5,0-0.6-0.3
		c0-0.1,0-0.1,0-0.2H23.5z M19.5,349.3c0-0.3,0.2-0.5,0.5-0.5l0,0c0.3,0,0.5,0.2,0.5,0.5l0,0c0,0.3-0.2,0.5-0.5,0.5l0,0
		c-0.3,0.1-0.5,0-0.7-0.3c0-0.1,0-0.2,0-0.2H19.5z M15.5,349.3c0-0.3,0.2-0.5,0.5-0.5l0,0c0.3,0,0.5,0.2,0.5,0.5l0,0
		c0,0.3-0.2,0.5-0.5,0.5c0,0,0,0,0,0l0,0c-0.3,0.1-0.5,0-0.7-0.2c0-0.1-0.1-0.2,0-0.3H15.5z M11.5,349.3c0-0.3,0.2-0.5,0.5-0.5l0,0
		c0.3,0,0.5,0.2,0.5,0.5l0,0c0,0.3-0.2,0.5-0.5,0.5l0,0c-0.2,0.1-0.5,0-0.7-0.2c0-0.1-0.1-0.2,0-0.3H11.5z M7.5,349.3
		c0-0.3,0.2-0.5,0.5-0.5l0,0c0.3,0,0.5,0.2,0.5,0.5l0,0c0,0.3-0.2,0.5-0.5,0.5l0,0c-0.2,0.1-0.5,0-0.7-0.2c0-0.1-0.1-0.2-0.1-0.3
		H7.5z M3.5,349.3c0-0.3,0.2-0.5,0.5-0.5l0,0c0.3,0,0.5,0.2,0.5,0.5l0,0c0,0.3-0.2,0.5-0.5,0.5l0,0c-0.2,0.1-0.5,0.1-0.7-0.2
		c-0.1-0.1-0.1-0.2-0.1-0.3H3.5z M-0.5,349.3c0-0.3,0.2-0.5,0.5-0.5l0,0c0.3,0,0.5,0.2,0.5,0.5l0,0c0,0.3-0.2,0.5-0.5,0.5l0,0
		c-0.2,0.1-0.5,0.1-0.7-0.2c-0.1-0.1-0.1-0.2-0.1-0.3H-0.5z M-4.5,349.3c0-0.3,0.2-0.5,0.5-0.5l0,0c0.3,0,0.5,0.2,0.5,0.5l0,0
		c0,0.3-0.2,0.5-0.5,0.5l0,0c-0.2,0.2-0.5,0.1-0.7-0.1c-0.1-0.1-0.1-0.2-0.1-0.4H-4.5z M-8.5,349.3c0-0.3,0.2-0.5,0.5-0.5l0,0
		c0.3,0,0.5,0.2,0.5,0.5l0,0c0,0.3-0.2,0.5-0.5,0.5l0,0c-0.2,0.2-0.5,0.1-0.7-0.1c-0.1-0.1-0.1-0.3-0.1-0.4H-8.5z M-12.5,349.3
		c0-0.3,0.2-0.5,0.5-0.5l0,0c0.3,0,0.5,0.2,0.5,0.5l0,0c0,0.3-0.2,0.5-0.5,0.5l0,0c-0.2,0.2-0.5,0.1-0.7-0.1
		c-0.1-0.1-0.1-0.3-0.1-0.4H-12.5z"/>
	<path class="st3" d="M80,349.8c-0.1,0-0.1,0-0.2,0c-0.1,0-0.1-0.1-0.2-0.1c0,0-0.1-0.1-0.1-0.2c0-0.1,0-0.1,0-0.2
		c0-0.1,0-0.1,0-0.2c0-0.1,0.1-0.1,0.1-0.2c0,0,0.1-0.1,0.2-0.1c0.1-0.1,0.3-0.1,0.4,0c0.1,0,0.1,0.1,0.2,0.1
		c0.1,0.1,0.2,0.2,0.1,0.4c0,0.1,0,0.1,0,0.2c0,0.1-0.1,0.1-0.1,0.2c0,0-0.1,0.1-0.2,0.1C80.2,349.8,80.1,349.8,80,349.8z"/>
	<path class="st3" d="M80,349.8c-0.1,0-0.1,0-0.2,0c-0.1,0-0.1-0.1-0.2-0.1c0,0-0.1-0.1-0.1-0.2c0-0.1,0-0.1,0-0.2
		c0-0.1,0-0.1,0-0.2c0-0.1,0.1-0.1,0.1-0.2c0,0,0.1-0.1,0.2-0.1c0.1-0.1,0.3-0.1,0.4,0c0.1,0,0.1,0.1,0.2,0.1
		c0.1,0.1,0.2,0.2,0.1,0.4c0,0.1,0,0.1,0,0.2c0,0.1-0.1,0.1-0.1,0.2c0,0-0.1,0.1-0.2,0.1C80.2,349.8,80.1,349.8,80,349.8z"/>
	<path class="st3" d="M79.5,345.8c0-0.3,0.2-0.5,0.5-0.5l0,0c0.3,0,0.5,0.2,0.5,0.5l0,0c0,0.3-0.2,0.5-0.5,0.5l0,0
		C79.7,346.3,79.5,346.1,79.5,345.8z M79.5,342.3c0-0.3,0.2-0.5,0.5-0.5l0,0c0.3,0,0.5,0.2,0.5,0.5l0,0c0,0.3-0.2,0.5-0.5,0.5l0,0
		C79.7,342.8,79.5,342.6,79.5,342.3C79.5,342.3,79.5,342.3,79.5,342.3L79.5,342.3z M79.5,338.8c0-0.3,0.2-0.5,0.5-0.5l0,0
		c0.3,0,0.5,0.2,0.5,0.5l0,0c0,0.3-0.2,0.5-0.5,0.5l0,0C79.7,339.3,79.5,339.1,79.5,338.8z"/>
	<path class="st3" d="M80,335.9c-0.1,0-0.3-0.1-0.4-0.1c-0.1,0-0.1-0.1-0.1-0.2c0-0.1,0-0.1,0-0.2c0-0.1,0-0.1,0-0.2
		c0-0.1,0.1-0.1,0.1-0.2c0,0,0.1-0.1,0.2-0.1c0.1-0.1,0.3-0.1,0.4,0c0.1,0,0.1,0.1,0.2,0.1c0,0,0.1,0.1,0.1,0.2c0,0.1,0,0.1,0,0.2
		c0,0.1,0,0.1,0,0.2c0,0.1-0.1,0.1-0.1,0.2C80.3,335.8,80.1,335.9,80,335.9z"/>
	<path class="st3" d="M80,349.8c-0.1,0-0.1,0-0.2,0c-0.1,0-0.1-0.1-0.2-0.1c0,0-0.1-0.1-0.1-0.2c0-0.1,0-0.1,0-0.2
		c0-0.1,0-0.1,0-0.2c0-0.1,0.1-0.1,0.1-0.2c0,0,0.1-0.1,0.2-0.1c0.1-0.1,0.3-0.1,0.4,0c0.1,0,0.1,0.1,0.2,0.1
		c0.1,0.1,0.2,0.2,0.1,0.4c0,0.1,0,0.1,0,0.2c0,0.1-0.1,0.1-0.1,0.2c0,0-0.1,0.1-0.2,0.1C80.2,349.8,80.1,349.8,80,349.8z"/>
	<path class="st3" d="M79.5,352.9c0-0.3,0.2-0.5,0.5-0.5l0,0c0.3,0,0.5,0.2,0.5,0.5l0,0c0,0.3-0.2,0.5-0.5,0.5l0,0
		C79.7,353.4,79.5,353.2,79.5,352.9z"/>
	<path class="st3" d="M80,357.1c-0.1,0-0.3-0.1-0.4-0.1c0,0-0.1-0.1-0.1-0.2c0-0.1,0-0.1,0-0.2c0-0.1,0-0.1,0-0.2
		c0-0.1,0.1-0.1,0.1-0.2c0.2-0.2,0.5-0.2,0.7,0c0,0,0.1,0.1,0.1,0.2c0,0.1,0,0.1,0,0.2c0,0.1,0,0.1,0,0.2c0,0.1-0.1,0.1-0.1,0.2
		C80.3,357,80.1,357.1,80,357.1z"/>
	<path class="st3" d="M176.3,357.1c-0.1,0-0.3-0.1-0.4-0.1c-0.1-0.1-0.1-0.2-0.1-0.4c0-0.3,0.2-0.5,0.5-0.5c0.1,0,0.3,0.1,0.3,0.1
		c0,0,0.1,0.1,0.1,0.2c0,0.1,0,0.1,0,0.2C176.8,356.8,176.6,357.1,176.3,357.1L176.3,357.1z"/>
	<path class="st3" d="M175.8,352.9c0-0.3,0.2-0.5,0.5-0.5l0,0c0.3,0,0.5,0.2,0.5,0.5l0,0c0,0.3-0.2,0.5-0.5,0.5l0,0
		C176,353.4,175.8,353.2,175.8,352.9z"/>
	<path class="st3" d="M176.3,349.8c-0.1,0-0.3,0-0.4-0.1c-0.1-0.1-0.1-0.2-0.1-0.4c0-0.1,0.1-0.3,0.1-0.4c0.2-0.2,0.5-0.2,0.7,0
		c0.1,0.1,0.2,0.2,0.1,0.4c0,0.1-0.1,0.3-0.1,0.4C176.6,349.7,176.5,349.8,176.3,349.8z"/>
	<path class="st3" d="M171.8,349.3c0-0.3,0.2-0.5,0.5-0.5l0,0c0.3,0,0.5,0.2,0.5,0.5l0,0c0,0.3-0.2,0.5-0.5,0.5l0,0
		C172,349.8,171.8,349.6,171.8,349.3z M167.8,349.3c0-0.3,0.2-0.5,0.5-0.5c0,0,0,0,0,0l0,0c0.3,0,0.5,0.2,0.5,0.5l0,0
		c0,0.3-0.2,0.5-0.5,0.5l0,0C168,349.8,167.8,349.6,167.8,349.3C167.8,349.3,167.8,349.3,167.8,349.3L167.8,349.3z M163.8,349.3
		c0-0.3,0.2-0.5,0.5-0.5l0,0c0.3,0,0.5,0.2,0.5,0.5l0,0c0,0.3-0.2,0.5-0.5,0.5l0,0C164,349.8,163.8,349.6,163.8,349.3
		C163.8,349.3,163.8,349.3,163.8,349.3L163.8,349.3z M159.8,349.3c0-0.3,0.2-0.5,0.5-0.5l0,0c0.3,0,0.5,0.2,0.5,0.5l0,0
		c0,0.3-0.2,0.5-0.5,0.5l0,0C160,349.8,159.8,349.6,159.8,349.3C159.8,349.3,159.8,349.3,159.8,349.3L159.8,349.3z M155.8,349.3
		c0-0.3,0.2-0.5,0.5-0.5l0,0c0.3,0,0.5,0.2,0.5,0.5c0,0,0,0,0,0l0,0c0,0.3-0.2,0.5-0.5,0.5c0,0,0,0,0,0l0,0
		C156,349.8,155.8,349.6,155.8,349.3C155.8,349.3,155.7,349.3,155.8,349.3L155.8,349.3z M151.8,349.3c0-0.3,0.2-0.5,0.5-0.5l0,0
		c0.3,0,0.5,0.2,0.5,0.5l0,0c0,0.3-0.2,0.5-0.5,0.5l0,0C152,349.8,151.8,349.6,151.8,349.3C151.7,349.3,151.7,349.3,151.8,349.3
		L151.8,349.3z M147.8,349.3c0-0.3,0.2-0.5,0.5-0.5l0,0c0.3,0,0.5,0.2,0.5,0.5l0,0c0,0.3-0.2,0.5-0.5,0.5l0,0
		C148,349.8,147.8,349.6,147.8,349.3C147.7,349.3,147.7,349.3,147.8,349.3L147.8,349.3z M143.8,349.3c0-0.3,0.2-0.5,0.5-0.5l0,0
		c0.3,0,0.5,0.2,0.5,0.5c0,0,0,0,0,0l0,0c0,0.3-0.2,0.5-0.5,0.5c0,0,0,0,0,0l0,0c-0.3,0.1-0.5-0.1-0.6-0.4c0,0,0-0.1,0-0.1H143.8z
		 M139.8,349.3c0-0.3,0.2-0.5,0.5-0.5l0,0c0.3,0,0.5,0.2,0.5,0.5l0,0c0,0.3-0.2,0.5-0.5,0.5l0,0c-0.3,0.1-0.5-0.1-0.6-0.4
		c0,0,0-0.1,0-0.1H139.8z M135.8,349.3c0-0.3,0.2-0.5,0.5-0.5l0,0c0.3,0,0.5,0.2,0.5,0.5l0,0c0,0.3-0.2,0.5-0.5,0.5l0,0
		c-0.3,0.1-0.5-0.1-0.6-0.4c0,0,0-0.1,0-0.1H135.8z M131.8,349.3c0-0.3,0.2-0.5,0.5-0.5l0,0c0.3,0,0.5,0.2,0.5,0.5l0,0
		c0,0.3-0.2,0.5-0.5,0.5l0,0c-0.3,0.1-0.5-0.1-0.6-0.3c0-0.1,0-0.1,0-0.2H131.8z M127.8,349.3c0-0.3,0.2-0.5,0.5-0.5l0,0
		c0.3,0,0.5,0.2,0.5,0.5l0,0c0,0.3-0.2,0.5-0.5,0.5l0,0c-0.3,0.1-0.5-0.1-0.6-0.3c0-0.1,0-0.1,0-0.2H127.8z M123.8,349.3
		c0-0.3,0.2-0.5,0.5-0.5l0,0c0.3,0,0.5,0.2,0.5,0.5l0,0c0,0.3-0.2,0.5-0.5,0.5l0,0c-0.3,0.1-0.5-0.1-0.6-0.3c0-0.1,0-0.1,0-0.2
		H123.8z M119.8,349.3c0-0.3,0.2-0.5,0.5-0.5l0,0c0.3,0,0.5,0.2,0.5,0.5l0,0c0,0.3-0.2,0.5-0.5,0.5l0,0c-0.3,0.1-0.5,0-0.6-0.3
		c0-0.1,0-0.1,0-0.2H119.8z M115.8,349.3c0-0.3,0.2-0.5,0.5-0.5l0,0c0.3,0,0.5,0.2,0.5,0.5l0,0c0,0.3-0.2,0.5-0.5,0.5l0,0
		c-0.3,0.1-0.5,0-0.7-0.3c0-0.1,0-0.2,0-0.2H115.8z M111.8,349.3c0-0.3,0.2-0.5,0.5-0.5l0,0c0.3,0,0.5,0.2,0.5,0.5l0,0
		c0,0.3-0.2,0.5-0.5,0.5l0,0c-0.3,0.1-0.5,0-0.7-0.3c0-0.1,0-0.2,0-0.2H111.8z M107.8,349.3c0-0.3,0.2-0.5,0.5-0.5l0,0
		c0.3,0,0.5,0.2,0.5,0.5c0,0,0,0,0,0l0,0c0,0.3-0.2,0.5-0.5,0.5c0,0,0,0,0,0l0,0c-0.2,0.1-0.5,0-0.7-0.2c0-0.1-0.1-0.2,0-0.3H107.8z
		 M103.8,349.3c0-0.3,0.2-0.5,0.5-0.5l0,0c0.3,0,0.5,0.2,0.5,0.5l0,0c0,0.3-0.2,0.5-0.5,0.5l0,0c-0.2,0.1-0.5,0-0.7-0.2
		c0-0.1-0.1-0.2-0.1-0.3H103.8z M99.8,349.3c0-0.3,0.2-0.5,0.5-0.5l0,0c0.3,0,0.5,0.2,0.5,0.5l0,0c0,0.3-0.2,0.5-0.5,0.5l0,0
		c-0.2,0.1-0.5,0-0.7-0.2c-0.1-0.1-0.1-0.2-0.1-0.3H99.8z M95.8,349.3c0-0.3,0.2-0.5,0.5-0.5l0,0c0.3,0,0.5,0.2,0.5,0.5c0,0,0,0,0,0
		l0,0c0,0.3-0.2,0.5-0.5,0.5c0,0,0,0,0,0l0,0c-0.2,0.1-0.5,0.1-0.7-0.2c-0.1-0.1-0.1-0.2-0.1-0.3H95.8z M91.8,349.3
		c0-0.3,0.2-0.5,0.5-0.5l0,0c0.3,0,0.5,0.2,0.5,0.5l0,0c0,0.3-0.2,0.5-0.5,0.5l0,0c-0.2,0.2-0.5,0.1-0.7-0.1
		c-0.1-0.1-0.1-0.2-0.1-0.4H91.8z M87.8,349.3c0-0.3,0.2-0.5,0.5-0.5l0,0c0.3,0,0.5,0.2,0.5,0.5l0,0c0,0.3-0.2,0.5-0.5,0.5l0,0
		c-0.2,0.2-0.5,0.1-0.7-0.1c-0.1-0.1-0.1-0.2-0.1-0.4H87.8z M83.8,349.3c0-0.3,0.2-0.5,0.5-0.5l0,0c0.3,0,0.5,0.2,0.5,0.5
		c0,0,0,0,0,0l0,0c0,0.3-0.2,0.5-0.5,0.5c0,0,0,0,0,0l0,0c-0.2,0.2-0.5,0.1-0.7-0.1c-0.1-0.1-0.1-0.3-0.1-0.4H83.8z"/>
	<path class="st3" d="M80,349.8c-0.1,0-0.1,0-0.2,0c-0.1,0-0.1-0.1-0.2-0.1c0,0-0.1-0.1-0.1-0.2c0-0.1,0-0.1,0-0.2
		c0-0.1,0-0.1,0-0.2c0-0.1,0.1-0.1,0.1-0.2c0,0,0.1-0.1,0.2-0.1c0.1-0.1,0.3-0.1,0.4,0c0.1,0,0.1,0.1,0.2,0.1
		c0.1,0.1,0.2,0.2,0.1,0.4c0,0.1,0,0.1,0,0.2c0,0.1-0.1,0.1-0.1,0.2c0,0-0.1,0.1-0.2,0.1C80.2,349.8,80.1,349.8,80,349.8z"/>
</g>
<g id="Cloud--inject-2">
	<path class="st9" d="M232.5,243.8c-0.3-32.9-27-59.4-59.9-59.4h-24.7c-12.9-22.5-36.9-36.3-62.8-36.3H37v18.4
		c-11.3,10.1-19.2,23.5-22.5,38.3c-34.4,2-60.6,31.5-58.5,65.9c2,33.1,29.4,58.8,62.5,58.6h198.3c24.4,0,44.2-19.8,44.2-44.2
		C261,266.8,249.7,250.3,232.5,243.8L232.5,243.8z"/>
	<path class="st10" d="M232.5,243.8c-0.3-32.9-27-59.4-59.9-59.4h-24.7c-12.9-22.5-36.9-36.3-62.8-36.3H37v18.4
		c-11.3,10.1-19.2,23.5-22.5,38.3c-34.4,2-60.6,31.5-58.5,65.9c2,33.1,29.4,58.8,62.5,58.6h198.3c24.4,0,44.2-19.8,44.2-44.2
		C261,266.8,249.7,250.3,232.5,243.8L232.5,243.8z"/>
	<path class="st9" d="M184.4,243.8c-0.3-33.1-27.3-59.7-60.4-59.4c-7.5,0.1-15,1.5-21.9,4.4c-17.5-35.9-60.9-50.9-96.8-33.3
		c-19.8,9.7-34.1,27.8-38.9,49.3c-34.4,1.8-60.8,31.1-59,65.5c1.7,33.4,29.6,59.5,63.1,59.1h198.3c24.4,0,44.2-19.8,44.2-44.2
		C212.8,266.8,201.5,250.3,184.4,243.8L184.4,243.8z"/>
	<g>
		<defs>
			<path id="SVGID_1_" d="M184.4,243.8c-0.3-33.1-27.3-59.7-60.4-59.4c-7.5,0.1-15,1.5-21.9,4.4c-17.5-35.9-60.9-50.9-96.8-33.3
				c-19.8,9.7-34.1,27.8-38.9,49.3c-34.4,1.8-60.8,31.1-59,65.5c1.7,33.4,29.6,59.5,63.1,59.1h198.3c24.4,0,44.2-19.8,44.2-44.2
				C212.8,266.8,201.5,250.3,184.4,243.8L184.4,243.8z"/>
		</defs>
		<clipPath id="SVGID_2_">
			<use xlink:href="#SVGID_1_"  style="overflow:visible;"/>
		</clipPath>
		<g class="st11">
			<path class="st12" d="M232.5,243.8c-0.3-33.1-27.4-59.7-60.4-59.4c-7.5,0.1-14.9,1.5-21.9,4.3c-17.5-35.9-60.9-50.9-96.8-33.3
				c-19.8,9.7-34.1,27.8-38.9,49.3c-34.4,1.8-60.8,31.1-59,65.5c1.7,33.4,29.6,59.5,63,59.1h198.3c24.4,0,44.2-19.8,44.2-44.2
				C261,266.8,249.7,250.3,232.5,243.8L232.5,243.8z"/>
		</g>
	</g>
	<path class="st1" d="M27.6,328.3H11.7l0,0v-87.4l0,0h15.9c2.5,0,4.4,2,4.4,4.5l0,0v78.5C32,326.3,30,328.3,27.6,328.3z"/>
	<path class="st4" d="M-21,240.9h34.3c2.5,0,4.4,2,4.4,4.4v78.5c0,2.5-2,4.5-4.4,4.5H-21c-2.5,0-4.4-2-4.4-4.5v-78.5
		C-25.5,242.9-23.5,240.9-21,240.9z"/>
	<rect x="-25.5" y="310.1" class="st1" width="43.2" height="0.8"/>
	<rect x="-25.5" y="292.8" class="st1" width="43.2" height="0.8"/>
	<rect x="-25.5" y="275.5" class="st1" width="43.2" height="0.8"/>
	<rect x="-25.5" y="258.2" class="st1" width="43.2" height="0.8"/>
	<path class="st13" d="M-3.9,252.6h-14.4c-0.9,0-1.6,0.8-1.6,1.7c0,0,0,0,0,0l0,0c0,0.9,0.7,1.6,1.6,1.6h14.4c0.9,0,1.6-0.7,1.6-1.6
		l0,0C-2.2,253.4-2.9,252.6-3.9,252.6C-3.9,252.6-3.9,252.6-3.9,252.6z"/>
	<path class="st13" d="M-3.9,248.3h-14.4c-0.9,0-1.6,0.7-1.6,1.6l0,0c0,0.9,0.7,1.6,1.6,1.6h14.4c0.9,0,1.6-0.7,1.6-1.6l0,0
		C-2.3,249-3,248.3-3.9,248.3z"/>
	<path class="st13" d="M-3.9,244h-14.4c-0.9,0-1.6,0.7-1.6,1.6l0,0c0,0.9,0.7,1.6,1.6,1.6h14.4c0.9,0,1.6-0.7,1.6-1.6l0,0
		C-2.3,244.7-3,244-3.9,244z"/>
	<rect x="-0.8" y="252.6" class="st0" width="6" height="3.3"/>
	<rect x="-0.8" y="248.3" class="st9" width="6" height="3.3"/>
	<rect x="-0.8" y="244" class="st0" width="6" height="3.3"/>
	<rect x="6.2" y="252.6" class="st0" width="6" height="3.3"/>
	<rect x="6.2" y="248.3" class="st0" width="6" height="3.3"/>
	<rect x="6.2" y="244" class="st9" width="6" height="3.3"/>
	<path class="st0" d="M-3.9,269.9h-14.4c-0.9,0-1.6,0.7-1.6,1.6l0,0c0,0.9,0.7,1.6,1.6,1.6h14.4c0.9,0,1.6-0.7,1.6-1.6l0,0
		C-2.3,270.6-3,269.9-3.9,269.9z"/>
	<path class="st13" d="M-3.9,265.6h-14.4c-0.9,0-1.6,0.8-1.6,1.7l0,0c0,0.9,0.7,1.6,1.6,1.6h14.4c0.9,0,1.6-0.7,1.6-1.6l0,0
		C-2.2,266.4-3,265.6-3.9,265.6C-3.9,265.6-3.9,265.6-3.9,265.6z"/>
	<path class="st13" d="M-3.9,261.3h-14.4c-0.9,0-1.6,0.8-1.6,1.6l0,0c0,0.9,0.7,1.6,1.6,1.6h14.4c0.9,0,1.6-0.7,1.6-1.6l0,0
		C-2.3,262.1-3,261.3-3.9,261.3C-3.9,261.3-3.9,261.3-3.9,261.3z"/>
	<rect x="-0.8" y="269.9" class="st0" width="6" height="3.3"/>
	<rect x="-0.8" y="265.6" class="st0" width="6" height="3.3"/>
	<rect x="-0.8" y="261.3" class="st9" width="6" height="3.3"/>
	<rect x="6.2" y="269.9" class="st0" width="6" height="3.3"/>
	<rect x="6.2" y="265.6" class="st0" width="6" height="3.3"/>
	<rect x="6.2" y="261.3" class="st0" width="6" height="3.3"/>
	<path class="st13" d="M-3.9,287.2h-14.4c-0.9,0-1.6,0.7-1.6,1.6l0,0c0,0.9,0.7,1.6,1.6,1.6h14.4c0.9,0,1.6-0.7,1.6-1.6l0,0
		C-2.3,288-3,287.2-3.9,287.2z"/>
	<path class="st13" d="M-3.9,282.9h-14.4c-0.9,0-1.6,0.8-1.6,1.7l0,0c0,0.9,0.7,1.6,1.6,1.6h14.4c0.9,0,1.6-0.7,1.6-1.6l0,0
		C-2.3,283.7-3,282.9-3.9,282.9C-3.9,282.9-3.9,282.9-3.9,282.9z"/>
	<path class="st13" d="M-3.9,278.6h-14.4c-0.9,0-1.6,0.7-1.6,1.6l0,0c0,0.9,0.7,1.6,1.6,1.6h14.4c0.9,0,1.6-0.7,1.6-1.6l0,0
		C-2.3,279.4-3,278.6-3.9,278.6C-3.9,278.6-3.9,278.6-3.9,278.6z"/>
	<rect x="-0.8" y="287.2" class="st0" width="6" height="3.3"/>
	<rect x="-0.8" y="282.9" class="st9" width="6" height="3.3"/>
	<rect x="-0.8" y="278.6" class="st0" width="6" height="3.3"/>
	<rect x="6.2" y="287.2" class="st0" width="6" height="3.3"/>
	<rect x="6.2" y="282.9" class="st0" width="6" height="3.3"/>
	<rect x="6.2" y="278.6" class="st9" width="6" height="3.3"/>
	<path class="st13" d="M-3.9,304.5h-14.4c-0.9,0-1.6,0.7-1.6,1.6l0,0c0,0.9,0.7,1.6,1.6,1.6h14.4c0.9,0,1.6-0.7,1.6-1.6l0,0
		C-2.3,305.3-3,304.5-3.9,304.5z"/>
	<path class="st13" d="M-18.4,300.3h14.4c0.9,0,1.6,0.7,1.6,1.6v0c0,0.9-0.7,1.6-1.6,1.6h-14.4c-0.9,0-1.6-0.7-1.6-1.6v0
		C-20,301-19.3,300.3-18.4,300.3z"/>
	<path class="st13" d="M-3.9,296h-14.4c-0.9,0-1.6,0.7-1.6,1.6c0,0,0,0,0,0l0,0c0,0.9,0.7,1.6,1.6,1.6h14.4c0.9,0,1.6-0.7,1.6-1.6
		l0,0C-2.3,296.7-3,296-3.9,296C-3.9,296-3.9,296-3.9,296z"/>
	<rect x="-0.8" y="304.5" class="st0" width="6" height="3.3"/>
	<rect x="-0.8" y="300.3" class="st9" width="6" height="3.3"/>
	<rect x="-0.8" y="296" class="st0" width="6" height="3.3"/>
	<rect x="6.2" y="304.5" class="st9" width="6" height="3.3"/>
	<rect x="6.2" y="300.3" class="st0" width="6" height="3.3"/>
	<rect x="6.2" y="296" class="st9" width="6" height="3.3"/>
	<path class="st13" d="M-3.9,321.9h-14.4c-0.9,0-1.6,0.7-1.6,1.6l0,0c0,0.9,0.7,1.6,1.6,1.6c0,0,0,0,0,0h14.4c0.9,0,1.6-0.7,1.6-1.6
		c0,0,0,0,0,0l0,0C-2.3,322.6-3,321.9-3.9,321.9z"/>
	<path class="st13" d="M-3.9,317.6h-14.4c-0.9,0-1.6,0.7-1.6,1.6l0,0c0,0.9,0.7,1.6,1.6,1.6h14.4c0.9,0,1.6-0.7,1.6-1.6l0,0
		C-2.3,318.3-3,317.6-3.9,317.6z"/>
	<path class="st13" d="M-3.9,313.3h-14.4c-0.9,0-1.6,0.7-1.6,1.6l0,0c0,0.9,0.7,1.6,1.6,1.6h14.4c0.9,0,1.6-0.7,1.6-1.6l0,0
		C-2.3,314-3,313.3-3.9,313.3z"/>
	<rect x="-0.8" y="321.9" class="st9" width="6" height="3.3"/>
	<rect x="-0.8" y="317.6" class="st0" width="6" height="3.3"/>
	<rect x="-0.8" y="313.3" class="st0" width="6" height="3.3"/>
	<rect x="6.2" y="321.9" class="st0" width="6" height="3.3"/>
	<rect x="6.2" y="317.6" class="st0" width="6" height="3.3"/>
	<rect x="6.2" y="313.3" class="st9" width="6" height="3.3"/>
	<path class="st1" d="M97.3,328.3H73.9l0,0V199.6l0,0h23.4c3.6,0,6.5,2.9,6.5,6.5l0,0v115.6C103.9,325.4,101,328.3,97.3,328.3
		C97.3,328.3,97.3,328.3,97.3,328.3z"/>
	<path class="st4" d="M25.7,199.6h50.5c3.6,0,6.5,2.9,6.5,6.5v115.6c0,3.6-2.9,6.5-6.5,6.5H25.7c-3.6,0-6.5-2.9-6.5-6.5V206.1
		C19.2,202.5,22.1,199.6,25.7,199.6z"/>
	<rect x="19.2" y="301.6" class="st1" width="63.6" height="1.2"/>
	<rect x="19.2" y="276.1" class="st1" width="63.6" height="1.2"/>
	<rect x="19.2" y="250.6" class="st1" width="63.6" height="1.2"/>
	<rect x="19.2" y="225.1" class="st1" width="63.6" height="1.2"/>
	<path class="st13" d="M50.9,216.8H29.6c-1.3,0-2.4,1.1-2.4,2.4l0,0c0,1.3,1.1,2.4,2.4,2.4h21.3c1.3,0,2.4-1.1,2.4-2.4l0,0
		C53.3,217.9,52.2,216.8,50.9,216.8z"/>
	<path class="st13" d="M50.9,210.5H29.6c-1.3,0-2.4,1.1-2.4,2.4l0,0c0,1.3,1.1,2.4,2.4,2.4h21.3c1.3,0,2.4-1.1,2.4-2.4l0,0
		C53.3,211.6,52.2,210.5,50.9,210.5z"/>
	<path class="st13" d="M50.9,204.2H29.6c-1.3,0-2.4,1.1-2.4,2.4l0,0c0,1.3,1.1,2.4,2.4,2.4h21.3c1.3,0,2.4-1.1,2.4-2.4l0,0
		C53.3,205.3,52.2,204.2,50.9,204.2z"/>
	<rect x="55.5" y="216.8" class="st0" width="8.9" height="4.9"/>
	<rect x="55.5" y="210.5" class="st9" width="8.9" height="4.9"/>
	<rect x="55.5" y="204.2" class="st0" width="8.9" height="4.9"/>
	<rect x="65.9" y="216.8" class="st0" width="8.9" height="4.9"/>
	<rect x="65.9" y="210.5" class="st0" width="8.9" height="4.9"/>
	<rect x="65.9" y="204.2" class="st9" width="8.9" height="4.9"/>
	<path class="st13" d="M50.9,242.3H29.6c-1.3,0-2.4,1.1-2.4,2.4l0,0c0,1.3,1.1,2.4,2.4,2.4h21.3c1.3,0,2.4-1.1,2.4-2.4l0,0
		C53.3,243.4,52.2,242.3,50.9,242.3z"/>
	<path class="st13" d="M50.9,236H29.6c-1.3,0-2.4,1.1-2.4,2.4l0,0c0,1.3,1.1,2.4,2.4,2.4h21.3c1.3,0,2.4-1.1,2.4-2.4l0,0
		C53.3,237.1,52.2,236,50.9,236z"/>
	<path class="st13" d="M50.9,229.7H29.6c-1.3,0-2.4,1.1-2.4,2.4l0,0c0,1.3,1.1,2.4,2.4,2.4h21.3c1.3,0,2.4-1.1,2.4-2.4l0,0
		C53.3,230.8,52.2,229.7,50.9,229.7z"/>
	<rect x="55.5" y="242.3" class="st0" width="8.9" height="4.9"/>
	<rect x="55.5" y="236" class="st0" width="8.9" height="4.9"/>
	<rect x="55.5" y="229.7" class="st9" width="8.9" height="4.9"/>
	<rect x="65.9" y="242.3" class="st9" width="8.9" height="4.9"/>
	<rect x="65.9" y="236" class="st0" width="8.9" height="4.9"/>
	<rect x="65.9" y="229.7" class="st9" width="8.9" height="4.9"/>
	<path class="st13" d="M50.9,267.8H29.6c-1.3,0-2.4,1.1-2.4,2.4c0,0,0,0,0,0l0,0c0,1.3,1.1,2.4,2.4,2.4c0,0,0,0,0,0h21.3
		c1.3,0,2.4-1.1,2.4-2.4l0,0C53.3,268.9,52.2,267.8,50.9,267.8C50.9,267.8,50.9,267.8,50.9,267.8z"/>
	<path class="st13" d="M50.9,261.5H29.6c-1.3,0-2.4,1.1-2.4,2.4c0,0,0,0,0,0l0,0c0,1.3,1.1,2.4,2.4,2.4c0,0,0,0,0,0h21.3
		c1.3,0,2.4-1.1,2.4-2.4l0,0C53.3,262.6,52.2,261.5,50.9,261.5C50.9,261.5,50.9,261.5,50.9,261.5z"/>
	<path class="st13" d="M50.9,255.2H29.6c-1.3,0-2.4,1.1-2.4,2.4c0,0,0,0,0,0l0,0c0,1.3,1.1,2.4,2.4,2.4c0,0,0,0,0,0h21.3
		c1.3,0,2.4-1.1,2.4-2.4c0,0,0,0,0,0l0,0C53.3,256.3,52.2,255.2,50.9,255.2z"/>
	<rect x="55.5" y="267.8" class="st9" width="8.9" height="4.9"/>
	<rect x="55.5" y="261.5" class="st0" width="8.9" height="4.9"/>
	<rect x="55.5" y="255.2" class="st0" width="8.9" height="4.9"/>
	<rect x="65.9" y="267.8" class="st0" width="8.9" height="4.9"/>
	<rect x="65.9" y="261.5" class="st0" width="8.9" height="4.9"/>
	<rect x="65.9" y="255.2" class="st9" width="8.9" height="4.9"/>
	<path class="st13" d="M50.9,293.3H29.6c-1.3,0-2.4,1.1-2.4,2.4l0,0c0,1.3,1.1,2.4,2.4,2.4h21.3c1.3,0,2.4-1.1,2.4-2.4l0,0
		C53.3,294.4,52.2,293.3,50.9,293.3z"/>
	<path class="st0" d="M50.9,287H29.6c-1.3,0-2.4,1.1-2.4,2.4l0,0c0,1.3,1.1,2.4,2.4,2.4h21.3c1.3,0,2.4-1.1,2.4-2.4l0,0
		C53.3,288.1,52.2,287,50.9,287z"/>
	<path class="st13" d="M50.9,280.7H29.6c-1.3,0-2.4,1.1-2.4,2.4l0,0c0,1.3,1.1,2.4,2.4,2.4h21.3c1.3,0,2.4-1.1,2.4-2.4l0,0
		C53.3,281.8,52.2,280.7,50.9,280.7z"/>
	<rect x="55.5" y="293.3" class="st0" width="8.9" height="4.9"/>
	<rect x="55.5" y="287" class="st9" width="8.9" height="4.9"/>
	<rect x="55.5" y="280.7" class="st0" width="8.9" height="4.9"/>
	<rect x="65.9" y="293.3" class="st9" width="8.9" height="4.9"/>
	<rect x="65.9" y="287" class="st9" width="8.9" height="4.9"/>
	<rect x="65.9" y="280.7" class="st0" width="8.9" height="4.9"/>
	<path class="st13" d="M50.9,318.8H29.6c-1.3,0-2.4,1.1-2.4,2.4l0,0c0,1.3,1.1,2.4,2.4,2.4h21.3c1.3,0,2.4-1.1,2.4-2.4l0,0
		C53.3,319.9,52.2,318.8,50.9,318.8z"/>
	<path class="st13" d="M50.9,312.5H29.6c-1.3,0-2.4,1.1-2.4,2.4l0,0c0,1.3,1.1,2.4,2.4,2.4h21.3c1.3,0,2.4-1.1,2.4-2.4l0,0
		C53.3,313.6,52.2,312.5,50.9,312.5z"/>
	<path class="st13" d="M50.9,306.2H29.6c-1.3,0-2.4,1.1-2.4,2.4l0,0c0,1.3,1.1,2.4,2.4,2.4h21.3c1.3,0,2.4-1.1,2.4-2.4l0,0
		C53.3,307.3,52.2,306.2,50.9,306.2z"/>
	<rect x="55.5" y="318.8" class="st0" width="8.9" height="4.9"/>
	<rect x="55.5" y="312.5" class="st0" width="8.9" height="4.9"/>
	<rect x="55.5" y="306.2" class="st0" width="8.9" height="4.9"/>
	<rect x="65.9" y="318.8" class="st0" width="8.9" height="4.9"/>
	<rect x="65.9" y="312.5" class="st0" width="8.9" height="4.9"/>
	<rect x="65.9" y="306.2" class="st9" width="8.9" height="4.9"/>
	<path class="st1" d="M152.6,328.3h-20.4l0,0V216.4l0,0h20.4c3.1,0,5.7,2.5,5.7,5.7l0,0v100.5C158.3,325.7,155.8,328.3,152.6,328.3
		C152.6,328.3,152.6,328.3,152.6,328.3z"/>
	<path class="st4" d="M90.3,216.4h43.9c3.1,0,5.7,2.5,5.7,5.7v100.5c0,3.1-2.5,5.7-5.7,5.7H90.3c-3.1,0-5.7-2.5-5.7-5.7V222.1
		C84.6,218.9,87.2,216.4,90.3,216.4z"/>
	<rect x="84.6" y="305.1" class="st1" width="55.3" height="1"/>
	<rect x="84.6" y="282.9" class="st1" width="55.3" height="1"/>
	<rect x="84.6" y="260.7" class="st1" width="55.3" height="1"/>
	<rect x="84.6" y="238.5" class="st1" width="55.3" height="1"/>
	<path class="st13" d="M112.2,231.4H93.7c-1.2,0-2.1,0.9-2.1,2.1l0,0c0,1.2,0.9,2.1,2.1,2.1h18.5c1.2,0,2.1-0.9,2.1-2.1l0,0
		C114.3,232.3,113.4,231.4,112.2,231.4z"/>
	<path class="st13" d="M112.2,225.9H93.7c-1.2,0-2.1,0.9-2.1,2.1l0,0c0,1.2,0.9,2.1,2.1,2.1h18.5c1.2,0,2.1-0.9,2.1-2.1l0,0
		C114.3,226.8,113.4,225.9,112.2,225.9z"/>
	<path class="st13" d="M112.2,220.4H93.7c-1.2,0-2.1,0.9-2.1,2.1l0,0c0,1.2,0.9,2.1,2.1,2.1h18.5c1.2,0,2.1-1,2.1-2.1l0,0
		C114.3,221.3,113.4,220.4,112.2,220.4z"/>
	<rect x="116.3" y="309.1" class="st0" width="7.7" height="4.2"/>
	<rect x="116.3" y="314.6" class="st9" width="7.7" height="4.2"/>
	<rect x="116.3" y="320.1" class="st0" width="7.7" height="4.2"/>
	<rect x="125.3" y="309.1" class="st0" width="7.7" height="4.2"/>
	<rect x="125.3" y="314.6" class="st0" width="7.7" height="4.2"/>
	<rect x="125.3" y="320.1" class="st9" width="7.7" height="4.2"/>
	<path class="st0" d="M112.2,253.5H93.7c-1.2,0-2.1,1-2.1,2.1l0,0c0,1.2,0.9,2.1,2.1,2.1h18.5c1.2,0,2.1-0.9,2.1-2.1l0,0
		C114.3,254.5,113.4,253.5,112.2,253.5z"/>
	<path class="st13" d="M112.2,248H93.7c-1.2,0-2.1,0.9-2.1,2.1l0,0c0,1.2,0.9,2.1,2.1,2.1h18.5c1.2,0,2.1-0.9,2.1-2.1l0,0
		C114.3,249,113.4,248,112.2,248z"/>
	<path class="st13" d="M112.2,242.6H93.7c-1.2,0-2.1,0.9-2.1,2.1l0,0c0,1.2,0.9,2.1,2.1,2.1h18.5c1.2,0,2.1-0.9,2.1-2.1l0,0
		C114.3,243.5,113.4,242.6,112.2,242.6z"/>
	<rect x="116.3" y="286.9" class="st0" width="7.7" height="4.2"/>
	<rect x="116.3" y="292.4" class="st0" width="7.7" height="4.2"/>
	<rect x="116.3" y="297.9" class="st9" width="7.7" height="4.2"/>
	<rect x="125.3" y="286.9" class="st9" width="7.7" height="4.2"/>
	<rect x="125.3" y="292.4" class="st0" width="7.7" height="4.2"/>
	<rect x="125.3" y="297.9" class="st9" width="7.7" height="4.2"/>
	<path class="st13" d="M112.2,275.7H93.7c-1.2,0-2.1,0.9-2.1,2.1l0,0c0,1.2,0.9,2.1,2.1,2.1h18.5c1.2,0,2.1-0.9,2.1-2.1l0,0
		C114.3,276.6,113.4,275.7,112.2,275.7z"/>
	<path class="st13" d="M112.2,270.2H93.7c-1.2,0-2.1,0.9-2.1,2.1l0,0c0,1.2,0.9,2.1,2.1,2.1h18.5c1.2,0,2.1-1,2.1-2.1l0,0
		C114.3,271.2,113.4,270.2,112.2,270.2z"/>
	<path class="st13" d="M112.2,264.7H93.7c-1.2,0-2.1,0.9-2.1,2.1l0,0c0,1.2,0.9,2.1,2.1,2.1h18.5c1.2,0,2.1-0.9,2.1-2.1l0,0
		C114.3,265.7,113.4,264.7,112.2,264.7z"/>
	<rect x="116.3" y="264.7" class="st9" width="7.7" height="4.2"/>
	<rect x="116.3" y="270.2" class="st0" width="7.7" height="4.2"/>
	<rect x="116.3" y="275.7" class="st0" width="7.7" height="4.2"/>
	<rect x="125.3" y="264.7" class="st0" width="7.7" height="4.2"/>
	<rect x="125.3" y="270.2" class="st0" width="7.7" height="4.2"/>
	<rect x="125.3" y="275.7" class="st9" width="7.7" height="4.2"/>
	<path class="st13" d="M112.2,297.9H93.7c-1.2,0-2.1,0.9-2.1,2.1l0,0c0,1.2,0.9,2.1,2.1,2.1h18.5c1.2,0,2.1-0.9,2.1-2.1l0,0
		C114.3,298.8,113.4,297.9,112.2,297.9z"/>
	<path class="st13" d="M112.2,292.4H93.7c-1.2,0-2.1,0.9-2.1,2.1l0,0c0,1.2,0.9,2.1,2.1,2.1h18.5c1.2,0,2.1-0.9,2.1-2.1l0,0
		C114.3,293.3,113.4,292.4,112.2,292.4z"/>
	<path class="st13" d="M112.2,286.9H93.7c-1.2,0-2.1,0.9-2.1,2.1l0,0c0,1.2,0.9,2.1,2.1,2.1h18.5c1.2,0,2.1-1,2.1-2.1l0,0
		C114.3,287.8,113.4,286.9,112.2,286.9z"/>
	<rect x="116.3" y="242.6" class="st0" width="7.7" height="4.2"/>
	<rect x="116.3" y="248" class="st9" width="7.7" height="4.2"/>
	<rect x="116.3" y="253.5" class="st0" width="7.7" height="4.2"/>
	<rect x="125.3" y="242.6" class="st9" width="7.7" height="4.2"/>
	<rect x="125.3" y="248" class="st0" width="7.7" height="4.2"/>
	<rect x="125.3" y="253.5" class="st0" width="7.7" height="4.2"/>
	<path class="st13" d="M112.2,320H93.7c-1.2,0-2.1,0.9-2.1,2.1l0,0c0,1.2,0.9,2.1,2.1,2.1h18.5c1.2,0,2.1-1,2.1-2.1l0,0
		C114.3,321,113.4,320.1,112.2,320z"/>
	<path class="st13" d="M112.2,314.6H93.7c-1.2,0-2.1,0.9-2.1,2.1l0,0c0,1.2,0.9,2.1,2.1,2.1h18.5c1.2,0,2.1-0.9,2.1-2.1l0,0
		C114.3,315.5,113.4,314.6,112.2,314.6z"/>
	<path class="st13" d="M93.7,309.1h18.5c1.2,0,2.1,0.9,2.1,2.1v0c0,1.2-0.9,2.1-2.1,2.1H93.7c-1.2,0-2.1-0.9-2.1-2.1v0
		C91.6,310,92.6,309.1,93.7,309.1z"/>
	<rect x="116.3" y="220.4" class="st9" width="7.7" height="4.2"/>
	<rect x="116.3" y="225.9" class="st0" width="7.7" height="4.2"/>
	<rect x="116.3" y="231.3" class="st0" width="7.7" height="4.2"/>
	<rect x="125.3" y="220.4" class="st0" width="7.7" height="4.2"/>
	<rect x="125.3" y="225.9" class="st0" width="7.7" height="4.2"/>
	<rect x="125.3" y="231.3" class="st9" width="7.7" height="4.2"/>
</g>
<image style="overflow:visible;" width="1200" height="630" xlink:href="aws_logo_smile_1200x630.png"  transform="matrix(9.799731e-002 0 0 9.799731e-002 150.4032 119.1517)">
</image>
<rect x="-359" y="121" class="st14" width="2" height="0"/>
</svg>
