<svg width="256" height="256" viewBox="0 0 256 256" fill="none" xmlns="http://www.w3.org/2000/svg">
<path d="M228.571 256H27.4286C12.3429 256 0 243.657 0 228.571V27.4286C0 12.3429 12.3429 0 27.4286 0H228.571C243.657 0 256 12.3429 256 27.4286V228.571C256 243.657 243.657 256 228.571 256ZM114.057 83.7143C114.057 66.1714 104 57.9429 91.3714 57.9429C76.6286 57.9429 68.5143 69.2571 68.5143 83.3714V171.829C68.5143 186.571 76.3429 197.886 91.6571 197.886C103.943 197.886 114.057 189.886 114.057 171.829V147.943L148.686 191.2C155.714 199.714 170.971 200.8 180.571 191.2C188.914 182.571 189.029 170.171 182.857 162.4L154.8 126.514L177.943 92.9714C183.314 85.2571 183.371 73.2571 174.743 64.9143C165.371 55.8286 149.257 55.0286 139.657 68.9143L114.057 105.886V83.7143Z" fill="#075966"/>
</svg>
