<?xml version="1.0" encoding="utf-8"?>
<!-- Generator: Adobe Illustrator 19.0.0, SVG Export Plug-In . SVG Version: 6.00 Build 0)  -->
<svg version="1.1" id="Layer_1" xmlns="http://www.w3.org/2000/svg" xmlns:xlink="http://www.w3.org/1999/xlink" x="0px" y="0px"
	 viewBox="-170 48.3 500 500" style="enable-background:new -170 48.3 500 500;" xml:space="preserve">
<style type="text/css">
	.st0{fill:#F5F5F5;}
	.st1{fill:#E0E0E0;}
	.st2{fill:#FAFAFA;}
	.st3{fill:#EBEBEB;}
	.st4{fill:#263238;}
	.st5{fill:#00E0C7;}
	.st6{opacity:0.3;}
	.st7{fill:#FFFFFF;}
	.st8{fill:#455A64;}
	.st9{fill:#FFBE9D;}
	.st10{fill:#EB996E;}
	.st11{opacity:0.2;}
	.st12{opacity:0.5;}
</style>
<g id="background-complete--inject-65">
	<path class="st0" d="M237.5,193.4l-19.4-0.1c-2.7,0-4.8,2.2-4.7,4.9c0,0,0,0,0,0v3.5c0.1,2.7-2.1,4.8-4.7,4.9c0,0,0,0,0,0
		l-37.8-0.2c-2.7-0.1-4.7-2.3-4.7-4.9v-3.5c0.1-2.7-2-4.9-4.7-4.9h-6.8l-17-0.1c-8.4,0-15.3,6.8-15.3,15.2c0,0,0,0,0,0l-1,244.4
		c0,8.4,6.7,15.3,15.2,15.3c0,0,0,0,0,0l99.7,0.5c8.4,0,15.3-6.8,15.3-15.2c0,0,0,0,0,0l1-244.4C252.7,200.3,246,193.4,237.5,193.4
		C237.5,193.4,237.5,193.4,237.5,193.4z"/>
	<path class="st1" d="M224.1,435.6l-74.1-0.4c-0.8,0-1.4-0.8-1.4-1.9l0.1-19.4c0-1,0.6-1.9,1.4-1.9l74.1,0.3c0.8,0,1.4,0.8,1.4,1.9
		l-0.1,19.4C225.5,434.8,224.9,435.6,224.1,435.6z"/>
	<path class="st2" d="M170.5,425.6l0.2-0.5c0.5,0.5,1.2,0.7,1.8,0.7c1,0,1.5-0.5,1.5-1c0-1.6-3.4-0.6-3.4-2.8c0-0.9,0.6-1.6,2-1.6
		c0.6,0,1.2,0.2,1.7,0.5l-0.2,0.5c-0.4-0.3-1-0.5-1.5-0.5c-1,0-1.5,0.5-1.5,1c0,1.6,3.4,0.6,3.4,2.8c0,0.9-0.6,1.6-2.1,1.6
		C171.8,426.3,171,426.1,170.5,425.6z"/>
	<path class="st2" d="M175.9,420.5h0.6v5.8h-0.6V420.5z"/>
	<path class="st2" d="M182.9,420.5v5.8h-0.5l-3.5-4.7v4.7h-0.6v-5.8h0.5l3.6,4.7v-4.7H182.9z"/>
	<path class="st2" d="M188.6,423.4h0.6v2.2c-0.6,0.5-1.3,0.7-2,0.7c-1.6-0.3-2.7-1.8-2.4-3.5c0.2-1.2,1.2-2.2,2.4-2.4
		c0.8,0,1.5,0.3,2.1,0.9l-0.4,0.4c-0.4-0.5-1-0.7-1.7-0.7c-1.3,0.1-2.3,1.2-2.2,2.6c0.1,1.2,1,2.2,2.2,2.2c0.5,0,1-0.1,1.5-0.4
		L188.6,423.4z"/>
	<path class="st2" d="M192.9,423.9v-3.3h0.6v3.3c0,1.4,0.6,2,1.7,2s1.7-0.6,1.7-2v-3.3h0.6v3.3c0,1.7-0.9,2.5-2.3,2.5
		S192.9,425.5,192.9,423.9z"/>
	<path class="st2" d="M203.6,422.6c0,1.2-0.9,2-2.3,2h-1.5v1.8h-0.6v-5.8h2.1C202.7,420.6,203.6,421.4,203.6,422.6z M203,422.6
		c0-0.9-0.6-1.5-1.7-1.5h-1.5v2.9h1.5C202.4,424,203,423.5,203,422.6L203,422.6z"/>
	
		<rect x="139" y="265.1" transform="matrix(-1 -4.537840e-003 4.537840e-003 -1 302.5486 535.623)" class="st1" width="25.7" height="4.7"/>
	<path class="st1" d="M240.1,294.1c0.2,0,0.4-0.1,0.6-0.1c0.6-0.2,1-0.7,1-1.3c0-1.6,0-3.9,0-6.9v-6.4c0.1-0.5,0-0.9-0.3-1.3
		c-0.3-0.4-0.7-0.6-1.2-0.6h-1.6h-14.4l-83.6-0.3c-0.4,0-0.8,0.2-1.1,0.6c-0.2,0.4-0.3,0.8-0.3,1.3c0,1,0,2,0,3c0,2,0,4,0,6
		c0,1,0,2,0,3c0,0.5,0,0.9,0,1.4c0.1,0.4,0.4,0.7,0.8,0.9c0.2,0.1,0.4,0.1,0.6,0.1h2.2h2.9l22.2,0.1l37.6,0.2l25.4,0.2l6.9,0.1h1.8
		L240.1,294.1c0-0.1-0.2-0.1-0.6-0.1h-1.8h-6.9h-25.4l-37.6-0.1l-22.2-0.1h-5.1c-0.3,0-0.6,0-0.8-0.1c-0.5-0.2-0.9-0.7-1.1-1.2
		c-0.1-0.3-0.1-0.5-0.1-0.8v-0.7c0-1,0-2,0-3c0-2,0-4,0-6c0-1,0-2,0-3c0-0.3,0-0.5,0-0.8c0-0.3,0.2-0.6,0.3-0.8
		c0.4-0.5,0.9-0.8,1.5-0.8l83.6,0.5l14.4,0.1h1.6c0.6,0,1.1,0.3,1.4,0.7c0.3,0.4,0.4,1,0.3,1.5c0,0.5,0,0.9,0,1.4c0,1.8,0,3.5,0,5
		c0,3-0.1,5.3-0.1,6.9c-0.1,0.6-0.5,1.2-1.1,1.4C240.5,294.1,240.3,294.1,240.1,294.1z"/>
	
		<rect x="145.9" y="283.3" transform="matrix(-1 -4.537840e-003 4.537840e-003 -1 337.5826 571.7515)" class="st1" width="47" height="4.4"/>
	
		<rect x="138.8" y="308.2" transform="matrix(-1 -4.537840e-003 4.537840e-003 -1 301.9824 621.7393)" class="st1" width="25.7" height="4.7"/>
	<path class="st1" d="M239.5,337.2c0.2,0,0.4-0.1,0.6-0.1c0.6-0.2,1-0.6,1.3-1.1c0.2-0.4,0.2-0.8,0.2-1.3c0-0.5,0-1,0-1.6v-10.3
		c0-0.5-0.1-0.9-0.3-1.3c-0.3-0.4-0.6-0.7-1.1-0.8c-0.5-0.1-1-0.1-1.5-0.1h-14.4l-83.4-0.3c-0.9,0-1.7,0.7-1.8,1.6c0,1,0,2,0,3
		c0,2,0,4,0,6c0,1,0,2,0,3c0,0.5,0,0.9,0.1,1.4c0.1,0.4,0.4,0.8,0.7,1c0.4,0.2,0.8,0.4,1.3,0.3h4.3l22.1,0.1l37.5,0.2l25.3,0.2
		l6.9,0.1h1.8L239.5,337.2c0.1,0-0.1,0-0.5,0h-1.8h-6.9l-25.3,0.1l-37.5-0.1l-22.1-0.1H141c-0.5,0-1.1-0.1-1.5-0.4
		c-0.5-0.3-0.8-0.8-0.9-1.3c-0.1-0.5-0.1-1-0.1-1.5c0-1,0-2,0-3c0-2,0-4,0-6c0-1,0-2,0-3.1c0.1-1.2,1.1-2.1,2.3-2.1l83.4,0.5
		l14.4,0.1c0.5,0,1.1,0,1.6,0.1c0.5,0.2,1,0.5,1.2,1c0.3,0.4,0.4,1,0.3,1.5c0,0.5,0,0.9,0,1.4c0,1.8,0,3.5,0,5s0,2.8,0,4
		c0,0.6,0,1.1,0,1.6c0,0.4,0,0.9-0.2,1.3c-0.3,0.6-0.7,1-1.3,1.1C239.9,337.3,239.7,337.3,239.5,337.2z"/>
	
		<rect x="138.7" y="353.1" transform="matrix(-1 -4.537840e-003 4.537840e-003 -1 301.411 711.5753)" class="st1" width="25.7" height="4.7"/>
	<path class="st1" d="M239.3,382.1c0.2,0,0.4,0,0.6-0.1c0.6-0.2,1-0.6,1.3-1.1c0.2-0.4,0.2-0.8,0.2-1.3c0-0.5,0-1,0-1.6v-10.3
		c0-0.5-0.1-0.9-0.3-1.3c-0.3-0.4-0.6-0.7-1.1-0.8c-0.5-0.1-1-0.1-1.5-0.1H224l-83.4-0.3c-0.9,0-1.7,0.7-1.8,1.6c0,1,0,2,0,3
		c0,2,0,4,0,6c0,1,0,2,0,3c0,0.5,0,0.9,0.1,1.4c0.1,0.4,0.4,0.8,0.7,1c0.4,0.2,0.8,0.4,1.3,0.3h4.3l22.1,0.1l37.5,0.2l25.3,0.2
		l6.9,0.1h1.8L239.3,382.1l-0.5,0H237h-7h-25.3l-37.5-0.1l-22.1-0.1h-4.4c-0.5,0-1.1-0.1-1.5-0.4c-0.5-0.3-0.8-0.8-0.9-1.3
		c-0.1-0.5-0.1-1-0.1-1.5c0-1,0-2,0-3c0-2,0-4,0-6c0-1,0-2,0-3c0.1-1.2,1.1-2.1,2.3-2.1l83.4,0.5l14.4,0.1c0.6,0,1.1,0.1,1.7,0.2
		c0.5,0.2,1,0.5,1.2,1c0.3,0.4,0.4,1,0.3,1.5c0,0.5,0,0.9,0,1.4c0,1.8,0,3.5,0,5s0,2.8,0,4c0,0.6,0,1.1,0,1.6c0,0.4,0,0.9-0.2,1.3
		c-0.3,0.6-0.7,1-1.3,1.1C239.8,382.2,239.5,382.2,239.3,382.1z"/>
	
		<rect x="145.7" y="326.4" transform="matrix(-1 -4.537840e-003 4.537840e-003 -1 337.0362 657.9077)" class="st1" width="47" height="4.4"/>
	<path class="st1" d="M150,374c-0.1,1.1-1.1,2-2.2,1.9c-1.1-0.1-2-1.1-1.9-2.2c0.1-1.1,1-1.9,2.1-1.9C149.2,371.8,150,372.8,150,374
		z"/>
	<path class="st1" d="M156.4,374c-0.1,1.1-1.1,2-2.2,1.9s-2-1.1-1.9-2.2c0.1-1.1,1-1.9,2.1-1.9C155.5,371.8,156.4,372.8,156.4,374z"
		/>
	<path class="st1" d="M162.8,374c-0.1,1.1-1.1,2-2.2,1.9s-2-1.1-1.9-2.2c0.1-1.1,1-1.9,2.1-1.9C161.9,371.8,162.8,372.8,162.8,374
		C162.8,374,162.8,374,162.8,374z"/>
	<path class="st1" d="M169.1,374c-0.1,1.1-1.1,2-2.2,1.9c-1.1-0.1-2-1.1-1.9-2.2c0.1-1.1,1-1.9,2.1-1.9
		C168.3,371.9,169.2,372.9,169.1,374z"/>
	<path class="st1" d="M175.5,374.1c-0.1,1.1-1.1,2-2.2,1.9s-2-1.1-1.9-2.2c0.1-1.1,1-1.9,2.1-1.9
		C174.6,371.9,175.5,372.9,175.5,374.1z"/>
	<path class="st1" d="M181.9,374.1c-0.1,1.1-1.1,2-2.2,1.9c-1.1-0.1-2-1.1-1.9-2.2c0.1-1.1,1-1.9,2.1-1.9
		C181,371.9,181.9,372.9,181.9,374.1C181.9,374.1,181.9,374.1,181.9,374.1z"/>
	<path class="st1" d="M188.2,374.1c-0.1,1.1-1.1,2-2.2,1.9c-1.1-0.1-2-1.1-1.9-2.2c0.1-1.1,1-1.9,2.1-1.9
		C187.4,372,188.3,372.9,188.2,374.1C188.2,374.1,188.2,374.1,188.2,374.1z"/>
	<path class="st1" d="M194.6,374.2c0.1,1.1-0.8,2.1-1.9,2.2c-1.1,0.1-2.1-0.8-2.2-1.9c0-0.1,0-0.2,0-0.3c-0.1-1.1,0.8-2.1,1.9-2.2
		c1.1-0.1,2.1,0.8,2.2,1.9C194.6,374,194.6,374.1,194.6,374.2z"/>
	<path class="st1" d="M201,374.2c-0.1,1.1-1.1,2-2.2,1.9c-1.1-0.1-2-1.1-1.9-2.2c0.1-1.1,1-1.9,2.1-1.9C200.1,372,201,373,201,374.2
		C201,374.2,201,374.2,201,374.2z"/>
	<path class="st1" d="M191.9,229.8c1.4-0.6,2.3-2,2.3-3.6c0.1-2-1.4-3.8-3.4-3.9s-3.8,1.4-3.9,3.4c0,0.2,0,0.4,0,0.5
		c0,1.6,0.9,3,2.3,3.6c-5.6,0.8-5.3,6.9-5.3,6.9l13.2,0.1C197.2,236.8,197.5,230.7,191.9,229.8z"/>
	
		<rect x="166.3" y="240.7" transform="matrix(-1 -4.537840e-003 4.537840e-003 -1 378.584 487.8007)" class="st1" width="47.2" height="5.6"/>
	<path class="st1" d="M4.9,139.6c2.6,1.9,4.9,4.2,6.9,6.8l8.8-1.6l5.8,13.6l-7.3,5.3c0.5,3.2,0.5,6.5,0.1,9.7l7.4,5.1l-5.5,13.8
		l-8.8-1.4c-1.9,2.6-4.2,4.9-6.8,6.9l1.6,8.8l-13.6,5.8l-5.3-7.3c-3.2,0.5-6.5,0.5-9.7,0.1l-5.1,7.4l-13.8-5.5l1.4-8.8
		c-2.6-1.9-4.9-4.2-6.9-6.8l-8.8,1.6l-5.8-13.6l7.3-5.3c-0.5-3.2-0.5-6.5-0.1-9.7l-7.4-5.1l5.5-13.8l8.8,1.4
		c1.9-2.6,4.2-4.9,6.8-6.9l-1.6-8.8l13.6-5.8l5.3,7.3c3.2-0.5,6.5-0.5,9.7-0.1l5.1-7.3l13.8,5.5L4.9,139.6L4.9,139.6z M-10.4,154.4
		c-8.2-3.3-17.4,0.7-20.7,8.8c-3.3,8.2,0.7,17.4,8.8,20.7c8.2,3.3,17.4-0.7,20.7-8.8c0,0,0,0,0,0C1.7,166.9-2.3,157.6-10.4,154.4
		C-10.4,154.4-10.4,154.4-10.4,154.4L-10.4,154.4z"/>
	<path class="st2" d="M31.3,185.7l-19.8-0.1c-2.7,0-4.9,2.3-4.8,5c0,0,0,0,0,0v3.6c0.1,2.7-2.1,4.9-4.8,5c0,0,0,0,0,0l-38.6-0.2
		c-2.7-0.1-4.8-2.3-4.8-5v-3.6c0.1-2.7-2.1-4.9-4.8-5h-7l-17.3-0.2c-8.6,0-15.6,6.9-15.6,15.5c0,0,0,0,0,0l-1.1,249.1
		c0,8.6,6.9,15.6,15.5,15.6l101.9,0.5c8.6,0.1,15.6-6.9,15.6-15.4c0,0,0,0,0,0l1-249.1C46.8,192.8,39.9,185.8,31.3,185.7z"/>
	<rect x="-71.2" y="355.2" class="st1" width="100.8" height="6.7"/>
	<path class="st1" d="M26,381.8c0,0.2-21.5,0.4-48.1,0.4s-48.1-0.2-48.1-0.4s21.5-0.5,48.1-0.5S26,381.5,26,381.8z"/>
	<path class="st1" d="M26,221.8c0,0.2-21.5,0.4-48.1,0.4s-48.1-0.2-48.1-0.4s21.5-0.4,48.1-0.4S26,221.6,26,221.8z"/>
	<path class="st1" d="M26,394.1c0,0.3-21.5,0.4-48.1,0.4s-48.1-0.2-48.1-0.4s21.5-0.4,48.1-0.4S26,393.8,26,394.1z"/>
	<path class="st1" d="M26,406.4c0,0.2-21.5,0.4-48.1,0.4s-48.1-0.2-48.1-0.4s21.5-0.4,48.1-0.4S26,406.1,26,406.4z"/>
	<path class="st1" d="M26,418.6c0,0.3-21.5,0.4-48.1,0.4s-48.1-0.2-48.1-0.4s21.5-0.4,48.1-0.4S26,418.4,26,418.6z"/>
	<path class="st1" d="M26,430.9c0,0.2-21.5,0.4-48.1,0.4s-48.1-0.2-48.1-0.4s21.5-0.4,48.1-0.4S26,430.6,26,430.9z"/>
	<path class="st1" d="M27.4,444.8c0,0.2-21.5,0.4-48.1,0.4s-48.1-0.2-48.1-0.4s21.5-0.4,48.1-0.4S27.4,444.6,27.4,444.8z"/>
	<rect x="-70.1" y="235.8" class="st3" width="101.1" height="97.8"/>
	<polygon class="st1" points="-62.3,325.3 -34.3,274.9 -11.4,307.1 2.5,290 23.1,325.3 	"/>
	<path class="st1" d="M-1.7,265.1c0,4-3.2,7.3-7.3,7.3s-7.3-3.2-7.3-7.3s3.2-7.3,7.3-7.3c0,0,0,0,0,0
		C-4.9,257.9-1.7,261.1-1.7,265.1z"/>
	<path class="st1" d="M23.1,325.5c0,0,0-0.1,0-0.4s0-0.7,0-1.1c0-1,0-2.5,0-4.4c0-3.9-0.1-9.5-0.1-16.6c-0.1-14.3-0.1-34.6-0.2-59
		l0.4,0.4l-85.4,0.1c-0.1,0.1,0.9-0.9,0.5-0.5v22c0,7.2,0,14.2,0,21.1c0,13.7,0,26.6,0,38.5l-0.4-0.4l61.7,0.2l17.4,0.1l4.6,0h1.2
		h0.4c-0.1,0-0.2,0-0.4,0h-1.1h-4.5l-17.3,0.1l-62,0.2h-0.4v-0.4c0-11.9,0-24.9,0-38.5c0-6.9,0-13.9,0-21.1v-22
		c-0.4,0.4,0.6-0.6,0.5-0.5l85.4,0.1h0.4v0.4c-0.1,24.5-0.2,45-0.2,59.3c0,7.1-0.1,12.7-0.1,16.5c0,1.9,0,3.3-0.1,4.3
		c0,0.5,0,0.8,0,1.1C23.3,325.2,23.3,325.4,23.1,325.5z"/>
	<path class="st1" d="M139.6,108.4h110.3c2.2,0,3.9,1.8,3.9,3.9v23c0,2.2-1.8,3.9-3.9,3.9H139.6c-2.2,0-3.9-1.8-3.9-3.9v-23
		C135.7,110.1,137.4,108.4,139.6,108.4z"/>
	<path class="st2" d="M154.5,124.7c1.4-0.6,2.3-2,2.3-3.6c0.1-2-1.4-3.7-3.4-3.8c-2-0.1-3.7,1.4-3.8,3.4c0,0.1,0,0.3,0,0.4
		c0,1.6,0.9,3,2.3,3.6c-2.3,0.3-4.3,2-4.9,4.2c1.3,1.5,3.1,2.4,5.1,2.7h2.2c2-0.3,3.8-1.2,5.1-2.8
		C158.8,126.7,156.8,125,154.5,124.7z"/>
	<rect x="169.1" y="116.4" class="st2" width="29.1" height="2.2"/>
	<rect x="169.1" y="128.7" class="st2" width="51" height="2.2"/>
	<rect x="169.1" y="122.4" class="st2" width="73.9" height="2.2"/>
</g>
<g id="Floor--inject-65">
	<path class="st4" d="M277.7,476.5c0,0.1-91.4,0.3-204,0.3s-204-0.1-204-0.3s91.3-0.2,204-0.2S277.7,476.3,277.7,476.5z"/>
</g>
<g id="Plants--inject-65">
	<path class="st5" d="M249.9,457.9c-0.7-2.7,1.1-5.3,3-7.3s4.3-3.6,5.4-6.2c1.7-4.1-0.5-9.5,2.3-12.9c1.7-2,4.6-2.7,6.1-4.9
		c0.7-1.2,1.1-2.5,1.4-3.9c1.6-6.9,5-13.2,9.9-18.3c0.3,6.1-1.1,12.2-3.9,17.6c-1.1,2.2-2.6,4.3-3,6.7c-0.6,3.9,1.5,8,0.5,11.9
		c-1.1,4.4-6.1,7.3-6.4,11.9c-0.2,3.8,3.1,7.2,2.8,11.1c-0.2,1.6-0.8,3.2-1.7,4.5c-3,4.9-7.4,8.3-14,8.2l-8.1,0.2L249.9,457.9z"/>
	<g class="st6">
		<path d="M249.9,457.9c-0.7-2.7,1.1-5.3,3-7.3s4.3-3.6,5.4-6.2c1.7-4.1-0.5-9.5,2.3-12.9c1.7-2,4.6-2.7,6.1-4.9
			c0.7-1.2,1.1-2.5,1.4-3.9c1.6-6.9,5-13.2,9.9-18.3c0.3,6.1-1.1,12.2-3.9,17.6c-1.1,2.2-2.6,4.3-3,6.7c-0.6,3.9,1.5,8,0.5,11.9
			c-1.1,4.4-6.1,7.3-6.4,11.9c-0.2,3.8,3.1,7.2,2.8,11.1c-0.2,1.6-0.8,3.2-1.7,4.5c-3,4.9-7.4,8.3-14,8.2l-8.1,0.2L249.9,457.9z"/>
	</g>
	<path class="st4" d="M242.6,476.8c-0.7,0.1-1.5,0.1-2.2-0.1c-0.9-0.1-1.8-0.4-2.6-0.7c-1.2-0.4-2.3-1-3.3-1.8
		c-0.6-0.5-1-1.1-1.3-1.8c-0.2-0.8-0.4-1.6-0.4-2.4c0-0.9-0.1-1.8-0.2-2.6c-0.2-0.9-0.5-1.8-1-2.6c-1-1.7-2.5-3.3-3-5.6
		s-0.1-4.7,0.3-7.1s0.8-5.1-0.1-7.6s-2.6-4.8-3.5-7.7s-0.4-6-0.6-9c0-1.6-0.4-3.1-1-4.5c-0.6-1.4-1.5-2.8-2.3-4.3
		c-1.4-3.1-1.7-6.5-2-9.9c-0.2-1.7-0.4-3.4-0.6-5.2c-0.1-1.8-0.4-3.5-0.9-5.2c-0.5-1.7-1.2-3.4-1.9-5c-0.4-0.8-0.7-1.7-0.9-2.6
		c-0.1-0.9-0.2-1.9-0.3-2.8c-0.1-1.9,0-3.8,0.3-5.6c0.2-1.9,0.6-3.7,0.8-5.6v-0.3v-0.4l0.3,0.2c1.7,0.9,3.2,2.2,4.3,3.7
		c1.1,1.5,2,3.2,2.7,5c1.3,3.5,1.8,7.1,2.5,10.6c0.5,3.4,1.6,6.7,3.3,9.7c0.9,1.5,1.9,2.8,2.9,4.2c1,1.4,1.7,3,2,4.6
		c0.5,3.4-1.5,6.4-1.1,9.5c0.2,1.5,0.7,2.9,1.5,4.2c0.7,1.3,1.6,2.5,2.4,3.7c0.8,1.2,1.5,2.4,2.1,3.8c0.6,1.3,0.9,2.7,1,4.1
		c0.2,2.7-0.2,5.3,0,7.8c0.2,2.3,0.9,4.6,2,6.7c1,2,2,3.8,3,5.6c0.5,0.9,0.9,1.7,1.2,2.6c0.3,0.8,0.6,1.7,0.7,2.6
		c0.2,1.5,0.2,3.1,0,4.6c-0.2,2.1-1,4.2-2.4,5.9c-0.2,0.3-0.4,0.5-0.7,0.7c-0.2,0.2-0.3,0.3-0.5,0.5c-0.3,0.2-0.5,0.3-0.5,0.3
		c0.6-0.5,1.1-1,1.6-1.5c1.3-1.7,2-3.7,2.2-5.9c0.2-1.5,0.2-3.1-0.1-4.6c-0.1-0.9-0.4-1.7-0.7-2.5c-0.4-0.9-0.8-1.7-1.2-2.5
		c-0.9-1.7-2-3.5-3-5.6c-1.1-2.1-1.8-4.4-2-6.8c-0.2-2.5,0.2-5.1,0-7.8c-0.1-1.4-0.4-2.7-1-3.9c-0.6-1.3-1.3-2.5-2.1-3.7
		c-0.8-1.2-1.7-2.4-2.4-3.7c-0.8-1.3-1.3-2.8-1.5-4.4c-0.4-3.2,1.5-6.3,1-9.5c-0.3-1.6-1-3.1-1.9-4.4c-0.9-1.4-2-2.7-2.9-4.2
		c-1.7-3.1-2.8-6.5-3.4-10c-0.7-3.5-1.1-7.1-2.5-10.5c-0.6-1.7-1.5-3.3-2.6-4.8c-1.1-1.5-2.5-2.7-4.2-3.5l0.4-0.2v0.3
		c-0.2,1.9-0.6,3.8-0.8,5.6c-0.2,1.8-0.3,3.7-0.2,5.5c0,0.9,0.1,1.8,0.2,2.7c0.2,0.9,0.5,1.7,0.9,2.5c0.7,1.7,1.4,3.4,1.9,5.1
		c0.5,1.7,0.8,3.5,0.9,5.3c0.2,1.8,0.4,3.5,0.5,5.2c0.4,3.4,0.6,6.8,2,9.8c0.7,1.5,1.6,2.8,2.2,4.3c0.7,1.5,1,3.1,1.1,4.7
		c0.2,3.1-0.3,6.2,0.6,9s2.6,5.1,3.5,7.7s0.5,5.4,0.1,7.8s-0.8,4.8-0.3,7s2,3.8,3,5.5c0.5,0.8,0.8,1.8,1,2.7
		c0.1,0.9,0.2,1.8,0.1,2.7c0,0.8,0.1,1.6,0.3,2.4c0.3,0.7,0.7,1.3,1.2,1.7c1,0.8,2,1.4,3.2,1.8c0.8,0.3,1.7,0.6,2.6,0.7
		c0.5,0.1,1.1,0.2,1.6,0.2L242.6,476.8z"/>
	<path class="st4" d="M217.5,381.1c0,0.1,0.1,0.2,0.1,0.3c0,0.2,0.1,0.4,0.2,0.7c0.2,0.6,0.3,1.6,0.6,2.8s1,2.6,1.7,4.2
		s1.3,3.6,1.9,5.8s1.1,4.6,1.7,7.1c0.5,2.8,1.3,5.4,2.5,7.9c0.7,1.3,1.4,2.6,2,4.1c0.6,1.5,1,3.1,1.1,4.7c0.4,3.3,1,6.6,1.7,9.8
		c1.6,6.6,3.1,13,4.5,18.8s2.7,10.9,3.8,15.3s1.9,7.9,2.5,10.3c0.3,1.2,0.5,2.1,0.6,2.8l0.2,0.7c0,0.1,0,0.2,0,0.3
		c0-0.1-0.1-0.2-0.1-0.2l-0.2-0.7c-0.2-0.7-0.4-1.6-0.7-2.8l-2.6-10.3l-3.9-15.3l-4.5-18.8c-0.7-3.3-1.3-6.5-1.7-9.9
		c-0.2-1.6-0.5-3.1-1.1-4.5c-0.6-1.4-1.3-2.8-2-4.1c-1.2-2.6-2.1-5.3-2.5-8c-0.5-2.6-1-5-1.6-7.1s-1.2-4.1-1.8-5.8s-1.3-3-1.6-4.3
		s-0.4-2.2-0.5-2.8c0-0.3-0.1-0.5-0.1-0.7C217.5,381.3,217.5,381.2,217.5,381.1z"/>
	<path class="st5" d="M241.1,476.8c-5.3-3.2-6.8-12.7-4.5-18.5s6.1-11,6.8-17.1c0.5-4.7-1-9.5,0.1-14.1c1.5-6.2,7.6-11,7.6-17.4
		c0-3.6-2-7-1.9-10.5c0.2-4.4,3.6-7.9,5.7-11.7c3.2-5.9,3.5-12.9,4.6-19.5s3.7-13.7,9.6-17c0.8,5.6,2.3,9.5,1.8,17.1
		c-0.2,2.7-3.4,8-3.9,14c-0.3,3.6-0.5,7.2-0.7,10.8s-0.5,7.1-1.8,10.3c-1,2.5-2.5,4.8-3.3,7.4c-1.4,4.9,0.4,10.1-0.8,15.1
		c-0.9,4.2-3.9,7.8-4.5,12c-0.9,6,3,12.2,1,17.8c-1,2.8-3.3,5.1-4,8c-0.5,2.3,0,4.6-0.5,6.9c-0.8,3.6-7.8,6.5-11.5,6.2"/>
	<path class="st4" d="M267.7,356.5c0,0.1,0,0.2,0,0.3c0,0.2-0.1,0.5-0.1,0.9c-0.1,0.8-0.3,2-0.5,3.5s-1.1,3.3-1.8,5.4
		s-1.4,4.5-2,7.2s-1.1,5.7-1.7,9c-0.4,3.5-1.4,6.9-2.8,10.1c-0.8,1.7-1.6,3.4-2.2,5.2c-0.6,1.9-1,3.8-1.1,5.7
		c-0.3,4.1-0.9,8.3-1.6,12.4c-1.7,8.4-3.3,16.3-4.7,23.5s-2.9,13.7-4,19.2s-2.1,9.8-2.8,12.9c-0.3,1.5-0.6,2.7-0.8,3.5
		c-0.1,0.4-0.2,0.7-0.2,0.9c0,0.1,0,0.2-0.1,0.3c0-0.1,0-0.2,0-0.3c0-0.2,0.1-0.5,0.2-0.9c0.2-0.8,0.4-2,0.7-3.5
		c0.6-3.1,1.5-7.5,2.6-13s2.5-12,3.9-19.2s3-15.2,4.7-23.5c0.8-4.1,1.3-8.2,1.6-12.3c0.1-2,0.5-3.9,1.2-5.8c0.6-1.8,1.5-3.5,2.3-5.2
		c1.4-3.2,2.3-6.6,2.8-10c0.6-3.2,1.1-6.2,1.8-9c0.6-2.5,1.3-4.9,2.1-7.3c0.7-2.1,1.5-3.9,1.8-5.4s0.5-2.7,0.6-3.5
		c0.1-0.4,0.1-0.7,0.2-0.9C267.6,356.7,267.6,356.6,267.7,356.5z"/>
</g>
<g id="Device--inject-65">
	<path class="st4" d="M135.4,476.5l-110.9-0.1c-13.3,0-24.1-10.8-24.2-24.1l0.1-278.1c0-13.3,10.8-24.2,24.2-24.2c0,0,0,0,0,0
		l110.9,0.1c13.3,0,24.2,10.8,24.1,24.2c0,0,0,0,0,0v278.1C159.6,465.7,148.8,476.5,135.4,476.5
		C135.4,476.5,135.4,476.5,135.4,476.5z"/>
	<path class="st7" d="M135.4,159.9h-21.5c-2.9,0.1-5.3,2.5-5.2,5.4v3.9c0.1,2.9-2.3,5.4-5.2,5.5c0,0,0,0,0,0H61.5
		c-2.9-0.1-5.3-2.5-5.2-5.5v-4c0.1-2.9-2.3-5.4-5.2-5.5h-7.6H24.7c-9.3,0-16.9,7.6-16.9,16.9L7.7,448.2c0,9.3,7.6,16.9,16.9,16.9
		c0,0,0,0,0,0l110.7,0.1c9.3,0,16.9-7.6,16.9-16.9l0-271.4C152.3,167.5,144.7,159.9,135.4,159.9z"/>
	<path class="st4" d="M47,226c0.2,0.1,0.5,0.3,0.7,0.5l1.9,1.5l0.1,0.1l-0.1,0.1l-3.9,4.6v-0.2l9,9h-0.3l3.8-4.2l0.1-0.1l0.2,0.1
		c1.3,0.6,2.5,1.4,3.5,2.3c1.2,0.9,2.1,2.2,2.5,3.6c0.1,0.4,0.1,0.8,0.1,1.2v0.6l-0.2,0.6c-0.1,0.4-0.3,0.7-0.5,1.1
		c-0.2,0.4-0.4,0.7-0.7,1c-1,1.2-2.4,2.1-4,2.5c-1.6,0.3-3.2,0.1-4.7-0.5c-0.7-0.3-1.4-0.7-2-1.2c-0.6-0.5-1.1-1-1.6-1.6l-6.1-6
		c-1.9-1.9-3.8-3.7-5.5-5.4l-1.3-1.3c-0.4-0.4-0.8-0.8-1.2-1.3c-0.7-0.9-0.9-2.1-0.8-3.2c0.4-1.9,1.6-3.5,3.3-4.4
		c1.3-0.6,2.7-0.9,4.1-0.6c0.9,0.1,1.7,0.5,2.5,0.9c0.2,0.1,0.4,0.3,0.6,0.4C47,226,47,226.1,47,226c-0.9-0.6-2-1.1-3.2-1.2
		c-1.4-0.2-2.8,0.1-4,0.7c-1.6,0.8-2.8,2.4-3.1,4.2c-0.2,1,0.1,2.1,0.7,2.9c0.3,0.4,0.7,0.9,1.1,1.2l1.3,1.2l5.5,5.4l6.1,6
		c0.5,0.5,1,1.1,1.6,1.5c0.6,0.5,1.2,0.8,1.9,1.1c1.4,0.6,2.9,0.8,4.4,0.5c1.5-0.3,2.8-1.1,3.7-2.3c0.2-0.3,0.5-0.6,0.6-0.9
		c0.2-0.3,0.4-0.6,0.4-1l0.2-0.5v-0.5c0-0.3,0-0.7-0.1-1c-0.4-1.3-1.2-2.5-2.4-3.4c-1-0.9-2.2-1.6-3.4-2.3l0.3-0.1l-3.9,4.2
		l-0.2,0.2l-0.2-0.2l-8.9-9.1l-0.1-0.1l0.1-0.1l4-4.5v0.1l-1.9-1.6C47.4,226.5,47.2,226.3,47,226z"/>
	<path class="st4" d="M67.1,258.5c0.5-0.1,1.1-0.2,1.6-0.3c1.5-0.5,2.7-1.7,3.3-3.1c0.2-0.5,0.3-1,0.3-1.6c0-0.6,0-1.2,0-1.8
		c0-1.3,0-2.6-0.1-4.1c0-2.9-0.1-6.3-0.1-10s-0.1-7.7-0.1-12.1c0-1.1,0-2.2,0-3.3c0.1-1.1,0-2.2-0.4-3.3c-0.4-1.1-1.1-2-2.1-2.6
		c-1-0.6-2.2-0.9-3.3-0.8l-31.8,0.3c-2.8,0-5,2.2-5.1,5c0,2.8,0,5.5,0,8.1c0,5.3,0.1,10.4,0.1,15.3c0,2.4,0,4.8,0,7.1
		c-0.1,1.1,0,2.2,0.2,3.3c0.3,1,0.9,1.9,1.8,2.6c0.8,0.6,1.8,1,2.8,1.1c1,0,2.1,0,3.1,0h5.8l17.5-0.1h4.8h1.2
		C66.8,258.4,66.9,258.4,67.1,258.5c-0.2-0.1-0.3-0.1-0.5-0.1h-1.2l-4.8,0.1l-17.5,0.2l-5.8,0.1c-1,0-2,0-3.1,0
		c-1.1-0.1-2.2-0.5-3.1-1.2c-0.9-0.7-1.6-1.7-1.9-2.8c-0.2-0.6-0.2-1.2-0.2-1.7c0-0.6,0-1.1,0-1.7c0-2.3,0-4.7-0.1-7.1
		c-0.1-4.9-0.1-10-0.1-15.3c0-2.7,0-5.4-0.1-8.1c0-1.5,0.6-2.9,1.6-3.9c1.1-1.1,2.5-1.7,4-1.7l31.8-0.2c1.3-0.1,2.5,0.2,3.6,0.9
		c1,0.7,1.8,1.6,2.3,2.8c0.2,0.6,0.3,1.2,0.4,1.8c0,0.6,0,1.1,0,1.7c0,1.1,0,2.2,0,3.3c0,4.3,0.1,8.4,0.1,12.1s0,7,0,10
		c0,1.5,0,2.8,0,4.1c0,0.6,0,1.2,0,1.8c0,0.6-0.2,1.1-0.4,1.6c-0.6,1.5-1.9,2.7-3.4,3.2C68.2,258.4,67.7,258.5,67.1,258.5z"/>
	<path class="st5" d="M92,215.1l32.4-0.3c3,0,5.4,2.4,5.4,5.4l0.3,32.4c0,3-2.4,5.4-5.4,5.4l-32.4,0.3c-3,0-5.4-2.4-5.4-5.4
		l-0.3-32.4C86.6,217.6,89,215.2,92,215.1z"/>
	<path class="st7" d="M123.1,236.5c-0.1-1.2-0.3-2.3-0.6-3.5c-0.9-3.1-2.7-5.9-5.3-7.8c-1.8-1.3-3.8-2.2-6-2.6
		c-2.5-0.4-5.1-0.2-7.5,0.7c-2.6,1-4.9,2.7-6.5,5c-3.6,5-3.6,11.8,0.1,16.8c1.7,2.2,4,4,6.6,4.9c2.4,0.9,5,1.1,7.5,0.6
		c2.2-0.4,4.2-1.3,6-2.7c2.6-2,4.4-4.7,5.2-7.9C122.9,238.9,123,237.7,123.1,236.5c0.1,0.1,0.1,0.2,0,0.2v0.7c0,0.4,0,0.7-0.1,1.1
		c0,0.5-0.1,1-0.3,1.5c-0.3,1.4-0.8,2.7-1.5,3.9c-3.5,6.1-10.8,8.8-17.5,6.5c-1.3-0.5-2.6-1.1-3.7-2c-1.2-0.9-2.3-1.9-3.1-3.1
		c-3.9-5.1-3.9-12.2-0.1-17.4c1.7-2.4,4.1-4.1,6.8-5.1c2.5-0.9,5.1-1.1,7.7-0.7c4.1,0.8,7.7,3.3,9.9,6.9c0.7,1.2,1.3,2.5,1.6,3.9
		c0.1,0.5,0.2,1,0.3,1.5c0.1,0.4,0.1,0.7,0.1,1.1c0,0.3,0,0.5,0,0.7C123.1,236.3,123.1,236.4,123.1,236.5z"/>
	<path class="st7" d="M123.2,235.5c0,0.1-6.6,0.3-14.7,0.4s-14.7,0-14.7-0.1s6.6-0.3,14.7-0.4S123.2,235.4,123.2,235.5z"/>
	<path class="st7" d="M109.3,251c0.1-0.2,0.1-0.4,0.3-0.6l0.8-1.6c0.5-0.9,0.9-1.7,1.2-2.6c0.5-1.2,1-2.4,1.3-3.6
		c1.1-3.2,1.5-6.5,1.1-9.9c-0.3-1.9-0.9-3.8-1.8-5.6c-1-1.9-2.4-3.5-4.1-4.7h0.3c-0.2,0.2-0.5,0.4-0.7,0.6
		c-3.1,2.8-5.4,6.5-6.4,10.6c-0.7,3.4-0.3,6.9,1.4,10c0.3,0.7,0.7,1.2,1,1.8s0.7,1.1,1.1,1.5l1,1.3c0.3,0.4,0.6,0.7,0.9,1
		c0.5,0.6,1,1,1.3,1.4c0.2,0.2,0.3,0.3,0.5,0.5c-0.2-0.1-0.4-0.3-0.5-0.4c-0.3-0.3-0.8-0.7-1.4-1.3l-1-1l-1.1-1.3
		c-0.4-0.4-0.7-1-1.1-1.5s-0.8-1.2-1.1-1.8c-1.7-3.1-2.2-6.7-1.5-10.2c1-4.2,3.3-8,6.5-10.9c0.3-0.2,0.5-0.4,0.7-0.6l0.1-0.1
		l0.1,0.1c1.8,1.3,3.2,3,4.3,4.9c0.9,1.8,1.6,3.7,1.8,5.8c0.3,3.4-0.1,6.8-1.3,10c-0.4,1.2-0.9,2.4-1.4,3.6
		c-0.4,0.9-0.8,1.8-1.3,2.6c-0.4,0.6-0.7,1.2-0.9,1.6C109.5,250.6,109.4,250.8,109.3,251z"/>
	<path class="st4" d="M68,431.5c0.5,0,1.1-0.1,1.6-0.3c1.5-0.5,2.7-1.7,3.3-3.1c0.2-0.5,0.3-1,0.3-1.6c0-0.6,0-1.2,0-1.8
		c0-1.3,0-2.6-0.1-4.1c0-2.9-0.1-6.3-0.1-10s-0.1-7.8-0.1-12.1c0-1.1,0-2.2,0-3.3c0.1-1.1,0-2.2-0.4-3.3c-0.4-1.1-1.1-2-2.1-2.6
		c-1-0.6-2.2-0.9-3.3-0.8l-31.8,0.3c-1.4,0-2.6,0.6-3.6,1.5c-0.9,0.9-1.5,2.2-1.5,3.5c0,2.7,0,5.4,0.1,8.1c0,5.3,0.1,10.5,0.1,15.3
		c0,2.4,0,4.8,0.1,7.1c-0.1,1.1,0,2.2,0.2,3.3c0.6,2.1,2.4,3.5,4.6,3.7c1,0,2.1,0,3.1,0h5.8l17.5-0.1h4.8h1.2L68,431.5l-0.4,0h-1.2
		l-4.8,0.1l-17.5,0.2l-5.8,0.1c-1,0-2,0-3.1,0c-1.1-0.1-2.2-0.5-3.1-1.2c-0.9-0.7-1.6-1.7-1.9-2.8c-0.2-0.5-0.2-1-0.3-1.6
		c0-0.6,0-1.1,0-1.7c0-2.3,0-4.7-0.1-7.1c0-4.9-0.1-10-0.1-15.3c0-2.7,0-5.4-0.1-8.1c0-3.1,2.5-5.5,5.6-5.6l31.8-0.2
		c1.3-0.1,2.5,0.2,3.6,0.9c1,0.7,1.9,1.6,2.3,2.8c0.2,0.6,0.3,1.2,0.4,1.8c0,0.6,0,1.1,0,1.7c0,1.1,0,2.2,0,3.3
		c0,4.3,0,8.4,0.1,12.1s0,7,0,10c0,1.5,0,2.8,0,4.1c0,0.6,0,1.2,0,1.8c0,0.6-0.2,1.1-0.4,1.6c-0.6,1.5-1.9,2.7-3.4,3.2
		C69.1,431.5,68.5,431.6,68,431.5z"/>
	<path class="st4" d="M37.9,400c0.2,0,0.3,0,0.5,0h1.4l5.4-0.1l19.3-0.3h0.2v0.2c0.1,5.8,0.1,12.2,0.2,19l-0.3,0.3h-1.9H61h-3.6h-7
		L38,419.3h-0.2v-14.2c0-1.6,0-2.9,0-3.8c0-0.4,0-0.7,0-1C37.8,400.2,37.8,400.1,37.9,400c-0.1,0-0.1,0.1-0.1,0.4s0,0.6,0,1
		c0,0.9,0.1,2.2,0.1,3.9c0.1,3.3,0.1,8.1,0.2,13.8l-0.2-0.2l12.4-0.1l7-0.1h3.6h1.9h1.9l-0.3,0.3c0-6.8-0.1-13.3-0.1-19l0.2,0.2
		H45.3h-5.5h-1.5L37.9,400z"/>
	<path class="st4" d="M51.3,412c0.1-0.1,0.1-0.2,0.2-0.3l0.7-0.7l2.7-2.6c2.3-2.2,5.6-5.3,9.4-8.9l0.2,0.4l-13.3,0.1l-13.3,0.1
		l0.1-0.4l9.6,8.7l2.7,2.5l0.7,0.7C51.2,411.9,51.2,412,51.3,412c0,0-0.3-0.3-1-0.8l-2.8-2.4l-9.8-8.7l-0.5-0.4h0.6l13.4-0.1
		l13.3-0.1h0.6l-0.4,0.4l-9.7,8.8l-2.7,2.5C51.6,411.8,51.3,412.1,51.3,412z"/>
	<path class="st4" d="M47.6,408.7c-1.4,1.9-2.9,3.7-4.6,5.3c-1.5,1.8-3.2,3.5-5,5c1.4-1.9,2.9-3.7,4.6-5.3
		C44.1,411.9,45.8,410.2,47.6,408.7z"/>
	<path class="st4" d="M64.7,418.8c-3.5-3.2-6.7-6.6-9.7-10.2c1.8,1.5,3.5,3.1,5.1,4.9C61.7,415.2,63.3,416.9,64.7,418.8z"/>
	<path class="st5" d="M35.5,331h32.4c3,0,5.4,2.4,5.4,5.4v32.4c0,3-2.4,5.4-5.4,5.4H35.5c-3,0-5.4-2.4-5.4-5.4v-32.4
		C30.1,333.4,32.6,331,35.5,331z"/>
	<path class="st2" d="M64.3,361.9c0-0.1,0-0.3,0-0.4c0-0.3,0-0.6,0-1c0-1-0.1-2.3-0.1-3.9c0-3.4-0.1-8.2-0.2-13.9l0.2,0.2l-25,0.3
		l0.3-0.3l0,0v2.6c0,0.9,0,1.7,0,2.5c0,1.7,0,3.3,0,5c0,3.2,0,6.3,0.1,9.2l-0.2-0.2h18h5.1h1.4L64.3,361.9c-0.2,0-0.3,0-0.5,0h-1.3
		l-5.1,0.1l-18.1,0.3h-0.2V362c0-2.9-0.1-6-0.1-9.2c0-1.6,0-3.3,0-5v-2.5v-2.6l0,0l0.3-0.3l25-0.2h0.2v14.3c0,1.6,0,2.9,0,3.9
		c0,0.4,0,0.7,0,1C64.4,361.6,64.4,361.8,64.3,361.9z"/>
	<path class="st2" d="M47.5,339c0.7-0.1,1.5-0.2,2.2-0.1c1.4-0.1,3.4-0.1,5.7-0.1h0.1l0.1,0.1l2.2,3.7l0.2,0.4h-0.4h-2.4
		c-3.9,0-7.5,0-10.1,0h-0.3l0.2-0.3C46.4,340.3,47.4,338.9,47.5,339c0.1,0.1-0.2,0.3-0.6,1s-1,1.7-1.6,2.8l-0.2-0.3
		c2.6-0.1,6.2-0.1,10.1-0.1h2.4l-0.2,0.4l-2.2-3.7l0.2,0.1c-2.4,0-4.3,0-5.7,0C49,339.2,48.2,339.1,47.5,339z"/>
	<path class="st2" d="M56.9,354.1c0,0,0.1-0.5,0.2-1.4c0.1-1.3-0.3-2.5-1-3.6c-1.7-2.5-5.2-3.2-7.7-1.5c-2.5,1.7-3.2,5.2-1.5,7.7
		c1.4,2,3.9,2.9,6.3,2.1c1.2-0.4,2.3-1.2,3-2.2C56.7,354.5,56.9,354,56.9,354.1c0.1,0,0,0.1-0.1,0.4c-0.1,0.4-0.3,0.7-0.4,1
		c-0.7,1.1-1.7,2-3,2.4c-3.1,1.1-6.5-0.6-7.6-3.7c0,0,0-0.1,0-0.1c-0.8-2.5,0.1-5.2,2.2-6.8c1-0.7,2.1-1,3.3-1.1c2,0,3.9,1,5,2.7
		c0.7,1.1,1.1,2.4,0.9,3.8c0,0.3-0.1,0.7-0.2,1C57,354,56.9,354.1,56.9,354.1z"/>
	<path class="st8" d="M92.6,273.4l32.4-0.3c3,0,5.4,2.4,5.4,5.4l0.3,32.4c0,3-2.4,5.4-5.4,5.4L93,316.6c-3,0-5.4-2.4-5.4-5.4
		l-0.3-32.4C87.2,275.9,89.6,273.5,92.6,273.4z"/>
	<path class="st7" d="M122.8,294.1c-0.1-1.2-0.3-2.3-0.6-3.5c-0.8-3.1-2.7-5.8-5.3-7.7c-3.8-2.9-8.9-3.6-13.4-1.9
		c-1.3,0.5-2.5,1.1-3.5,1.9c-1.1,0.8-2.1,1.9-3,3c-3.6,5-3.6,11.7,0.1,16.6c0.8,1.2,1.8,2.2,3,3c1.1,0.8,2.3,1.4,3.6,1.9
		c4.5,1.6,9.5,0.8,13.4-2.1c2.5-2,4.4-4.7,5.2-7.8C122.5,296.5,122.7,295.3,122.8,294.1c0,0.1,0,0.2,0,0.3v0.7c0,0.4,0,0.7-0.1,1.1
		c0,0.5-0.1,1-0.3,1.5c-0.3,1.4-0.8,2.7-1.5,3.9c-3.5,6-10.8,8.7-17.3,6.4c-1.3-0.4-2.6-1.1-3.7-1.9c-1.2-0.8-2.2-1.9-3.1-3.1
		c-3.8-5.1-3.9-12.1-0.1-17.3c0.8-1.2,1.9-2.2,3.1-3.1c1.1-0.9,2.4-1.5,3.7-2c4.6-1.7,9.8-1,13.8,2c1.5,1.1,2.7,2.5,3.7,4.1
		c0.7,1.2,1.3,2.5,1.6,3.9c0.1,0.5,0.2,1,0.3,1.5c0.1,0.4,0.1,0.7,0.1,1.1c0,0.3,0,0.5,0,0.7C122.8,294,122.8,294,122.8,294.1z"/>
	<path class="st7" d="M105,287.4c0.3,0.1,0.5,0.2,0.8,0.4l2.4,1.3c2,1.1,5,2.7,8.4,4.6l0.4,0.2l-0.4,0.2l-5.6,3.3l-5.8,3.3l-0.4,0.2
		v-0.4c0-3.9,0-7.2,0.1-9.5c0-1.1,0-2,0-2.7C104.9,288,104.9,287.7,105,287.4c-0.1,0-0.1,0.4,0,1s0,1.6,0.1,2.7
		c0.1,2.3,0.2,5.5,0.2,9.3l-0.4-0.2l5.8-3.4l5.6-3.3v0.4c-3.3-1.9-6.1-3.5-8.1-4.7l-2.4-1.4C105.3,287.6,105,287.4,105,287.4z"/>
	<path class="st1" d="M64.5,316.3c0-0.1,0.7-0.3,1.5-0.3s1.5,0.1,1.5,0.3s-0.7,0.3-1.5,0.3S64.5,316.5,64.5,316.3z"/>
	<path class="st1" d="M58.4,316.4c0-0.1,0.7-0.3,1.5-0.3s1.5,0.1,1.5,0.3s-0.7,0.3-1.5,0.3S58.4,316.5,58.4,316.4z"/>
	<path class="st1" d="M52.4,316.4c0-0.1,0.7-0.3,1.5-0.3s1.5,0.1,1.5,0.3s-0.7,0.3-1.5,0.3S52.4,316.6,52.4,316.4z"/>
	<path class="st1" d="M46.3,316.5c0-0.1,0.7-0.3,1.5-0.3s1.5,0.1,1.5,0.3s-0.7,0.3-1.5,0.3S46.3,316.6,46.3,316.5z"/>
	<path class="st1" d="M40.3,316.5c0-0.1,0.7-0.3,1.5-0.3s1.5,0.1,1.5,0.3s-0.7,0.3-1.5,0.3S40.3,316.7,40.3,316.5z"/>
	<path class="st1" d="M34.2,316.5c0-0.2,0.7-0.2,1.5-0.2s1.5,0.1,1.5,0.3s-0.7,0.3-1.5,0.3S34.2,316.6,34.2,316.5z"/>
	<path class="st1" d="M29.9,312.7c0.1,0,0.4,0.6,0.9,1.2s0.9,1.2,0.8,1.3s-0.7-0.3-1.2-1S29.8,312.8,29.9,312.7z"/>
	<path class="st1" d="M29.6,306.7c0.1,0,0.3,0.7,0.3,1.5s-0.1,1.5-0.2,1.5s-0.3-0.7-0.3-1.5S29.5,306.7,29.6,306.7z"/>
	<path class="st1" d="M29.6,300.6c0.1,0,0.3,0.7,0.3,1.5s-0.1,1.5-0.2,1.5s-0.3-0.7-0.3-1.5C29.3,301.3,29.5,300.6,29.6,300.6z"/>
	<path class="st1" d="M29.6,294.6c0.1,0,0.3,0.7,0.3,1.5s-0.1,1.5-0.2,1.5s-0.3-0.7-0.3-1.5S29.4,294.6,29.6,294.6z"/>
	<path class="st1" d="M29.5,288.6c0.1,0,0.3,0.7,0.3,1.5s-0.1,1.5-0.2,1.5s-0.3-0.7-0.3-1.5S29.4,288.6,29.5,288.6z"/>
	<path class="st1" d="M29.4,282.5c0.1,0,0.3,0.7,0.3,1.5s-0.1,1.5-0.2,1.5s-0.3-0.7-0.3-1.5S29.3,282.5,29.4,282.5z"/>
	<path class="st1" d="M29.9,276.5c0.1,0.1-0.1,0.7-0.2,1.5s-0.2,1.5-0.3,1.5c-0.2,0-0.3-0.7-0.2-1.6C29.4,277,29.8,276.5,29.9,276.5
		z"/>
	<path class="st1" d="M34.8,273.4c0,0.1-0.7,0.2-1.4,0.5c-0.8,0.2-1.4,0.5-1.4,0.4s0.4-0.6,1.3-0.9S34.8,273.3,34.8,273.4z"/>
	<path class="st1" d="M40.8,273.4c0,0.1-0.7,0.3-1.5,0.3s-1.5-0.1-1.5-0.3c0-0.1,0.7-0.3,1.5-0.3S40.8,273.3,40.8,273.4z"/>
	<path class="st1" d="M46.9,273.3c0,0.1-0.7,0.3-1.5,0.3s-1.5-0.1-1.5-0.3c0-0.1,0.7-0.3,1.5-0.3S46.9,273.2,46.9,273.3z"/>
	<path class="st1" d="M52.9,273.3c0,0.1-0.7,0.3-1.5,0.3s-1.5-0.1-1.5-0.3c0-0.1,0.7-0.3,1.5-0.3S52.9,273.1,52.9,273.3z"/>
	<path class="st1" d="M59,273.3c0,0.1-0.7,0.3-1.5,0.3s-1.5-0.1-1.5-0.3c0-0.1,0.7-0.3,1.5-0.3S59,273.1,59,273.3z"/>
	<path class="st1" d="M65,273.2c0,0.1-0.7,0.3-1.5,0.3s-1.5-0.1-1.5-0.3c0-0.1,0.7-0.3,1.5-0.3S65,273,65,273.2z"/>
	<path class="st1" d="M70.7,274.5c-0.1,0.1-0.6-0.3-1.4-0.6c-0.7-0.3-1.4-0.5-1.3-0.7s0.8-0.2,1.6,0.2S70.8,274.4,70.7,274.5z"/>
	<path class="st1" d="M72.6,280c-0.1,0-0.3-0.7-0.3-1.5s-0.1-1.4,0-1.5c0.1-0.1,0.5,0.6,0.5,1.5C72.8,279.4,72.7,280,72.6,280z"/>
	<path class="st1" d="M72.6,286.1c-0.1,0-0.3-0.7-0.3-1.5s0.1-1.5,0.3-1.5s0.3,0.7,0.3,1.5S72.8,286.1,72.6,286.1z"/>
	<path class="st1" d="M72.7,292.1c-0.1,0-0.3-0.7-0.3-1.5s0.1-1.5,0.3-1.5s0.3,0.7,0.3,1.5S72.8,292.1,72.7,292.1z"/>
	<path class="st1" d="M72.8,298.2c-0.1,0-0.3-0.7-0.3-1.5s0.1-1.5,0.3-1.5s0.3,0.7,0.3,1.5S72.9,298.2,72.8,298.2z"/>
	<path class="st1" d="M72.8,304.2c-0.1,0-0.3-0.7-0.3-1.5s0.1-1.5,0.3-1.5s0.3,0.7,0.3,1.5S72.9,304.2,72.8,304.2z"/>
	<path class="st1" d="M72.9,310.3c-0.1,0-0.3-0.7-0.3-1.5s0.1-1.5,0.3-1.5s0.3,0.7,0.3,1.5S73,310.3,72.9,310.3z"/>
	<path class="st1" d="M70.4,315.5c-0.1-0.1,0.4-0.6,0.9-1.2s0.9-1.1,1-1.1s0,0.8-0.6,1.4S70.4,315.6,70.4,315.5z"/>
	<path class="st1" d="M121.5,429.5c0-0.1,0.7-0.3,1.5-0.3s1.5,0.1,1.5,0.3s-0.7,0.3-1.5,0.3S121.5,429.6,121.5,429.5z"/>
	<path class="st1" d="M115.4,429.5c0-0.1,0.7-0.3,1.5-0.3s1.5,0.1,1.5,0.3s-0.7,0.3-1.5,0.3S115.4,429.7,115.4,429.5z"/>
	<path class="st1" d="M109.4,429.6c0-0.1,0.7-0.3,1.5-0.3s1.5,0.1,1.5,0.3s-0.7,0.3-1.5,0.3S109.4,429.7,109.4,429.6z"/>
	<path class="st1" d="M103.3,429.6c0-0.1,0.7-0.3,1.5-0.3s1.5,0.1,1.5,0.3s-0.7,0.3-1.5,0.3S103.3,429.8,103.3,429.6z"/>
	<path class="st1" d="M97.3,429.7c0-0.1,0.7-0.3,1.5-0.3s1.5,0.1,1.5,0.3s-0.7,0.3-1.5,0.3S97.3,429.8,97.3,429.7z"/>
	<path class="st1" d="M91.2,429.6c0-0.2,0.7-0.2,1.5-0.2s1.5,0.1,1.5,0.3s-0.7,0.3-1.5,0.3S91.2,429.8,91.2,429.6z"/>
	<path class="st1" d="M86.9,425.9c0.1,0,0.4,0.6,0.9,1.2s0.9,1.2,0.8,1.3s-0.7-0.3-1.2-1S86.8,425.9,86.9,425.9z"/>
	<path class="st1" d="M86.6,419.8c0.1,0,0.3,0.7,0.3,1.5s-0.1,1.5-0.3,1.5s-0.3-0.7-0.3-1.5S86.5,419.8,86.6,419.8z"/>
	<path class="st1" d="M86.6,413.8c0.1,0,0.3,0.7,0.3,1.5s-0.1,1.5-0.3,1.5s-0.3-0.7-0.3-1.5S86.5,413.8,86.6,413.8z"/>
	<path class="st1" d="M86.5,407.7c0.1,0,0.3,0.7,0.3,1.5s-0.1,1.5-0.3,1.5s-0.3-0.7-0.3-1.5S86.4,407.7,86.5,407.7z"/>
	<path class="st1" d="M86.5,401.7c0.1,0,0.3,0.7,0.3,1.5s-0.1,1.5-0.2,1.5s-0.3-0.7-0.3-1.5S86.4,401.7,86.5,401.7z"/>
	<path class="st1" d="M86.4,395.6c0.1,0,0.3,0.7,0.3,1.5s-0.1,1.5-0.3,1.5s-0.3-0.7-0.3-1.5S86.3,395.6,86.4,395.6z"/>
	<path class="st1" d="M86.9,389.7c0.1,0.1-0.1,0.7-0.2,1.5s-0.2,1.5-0.3,1.5s-0.3-0.7-0.2-1.5S86.8,389.6,86.9,389.7z"/>
	<path class="st1" d="M91.8,386.6c0,0.1-0.7,0.2-1.4,0.5s-1.4,0.5-1.4,0.4s0.4-0.6,1.3-0.9S91.8,386.4,91.8,386.6z"/>
	<path class="st1" d="M97.8,386.5c0,0.1-0.7,0.3-1.5,0.3s-1.5-0.1-1.5-0.3s0.7-0.3,1.5-0.3S97.8,386.4,97.8,386.5z"/>
	<path class="st1" d="M103.9,386.5c0,0.1-0.7,0.3-1.5,0.3s-1.5-0.1-1.5-0.3s0.7-0.3,1.5-0.3S103.9,386.3,103.9,386.5z"/>
	<path class="st1" d="M109.9,386.4c0,0.1-0.7,0.3-1.5,0.3s-1.5-0.1-1.5-0.3s0.7-0.3,1.5-0.3S109.9,386.3,109.9,386.4z"/>
	<path class="st1" d="M116,386.4c0,0.1-0.7,0.3-1.5,0.3s-1.5-0.1-1.5-0.3s0.7-0.3,1.5-0.3S116,386.2,116,386.4z"/>
	<path class="st1" d="M122,386.3c0,0.1-0.7,0.3-1.5,0.3s-1.5-0.1-1.5-0.3s0.7-0.3,1.5-0.3S122,386.2,122,386.3z"/>
	<path class="st1" d="M127.7,387.6c-0.1,0.1-0.7-0.3-1.4-0.6s-1.3-0.5-1.3-0.7s0.8-0.2,1.6,0.2S127.8,387.5,127.7,387.6z"/>
	<path class="st1" d="M129.6,393.1c-0.1,0-0.3-0.7-0.3-1.5s-0.1-1.5,0-1.5s0.5,0.6,0.5,1.5S129.7,393.1,129.6,393.1z"/>
	<path class="st1" d="M129.6,399.2c-0.1,0-0.3-0.7-0.3-1.5s0.1-1.5,0.3-1.5s0.3,0.7,0.3,1.5S129.8,399.2,129.6,399.2z"/>
	<path class="st1" d="M129.7,405.3c-0.1,0-0.3-0.7-0.3-1.5s0.1-1.5,0.3-1.5s0.3,0.7,0.3,1.5S129.8,405.3,129.7,405.3z"/>
	<path class="st1" d="M129.7,411.3c-0.1,0-0.3-0.7-0.3-1.5s0.1-1.5,0.3-1.5s0.3,0.7,0.3,1.5S129.9,411.3,129.7,411.3z"/>
	<path class="st1" d="M129.8,417.3c-0.1,0-0.3-0.7-0.3-1.5s0.1-1.5,0.3-1.5s0.3,0.7,0.3,1.5S129.9,417.3,129.8,417.3z"/>
	<path class="st1" d="M129.8,423.4c-0.1,0-0.3-0.7-0.3-1.5s0.1-1.5,0.3-1.5s0.3,0.7,0.3,1.5S130,423.4,129.8,423.4z"/>
	<path class="st1" d="M127.4,428.6c-0.1-0.1,0.4-0.6,1-1.2s0.9-1.1,1-1.1s0,0.8-0.6,1.4S127.4,428.7,127.4,428.6z"/>
	<path class="st1" d="M121.5,374.1c0-0.1,0.7-0.3,1.5-0.3s1.5,0.1,1.5,0.3s-0.7,0.3-1.5,0.3S121.5,374.3,121.5,374.1z"/>
	<path class="st1" d="M115.4,374.2c0-0.1,0.7-0.3,1.5-0.3s1.5,0.1,1.5,0.3s-0.7,0.3-1.5,0.3S115.4,374.3,115.4,374.2z"/>
	<path class="st1" d="M109.4,374.3c0-0.1,0.7-0.3,1.5-0.3s1.5,0.1,1.5,0.3s-0.7,0.3-1.5,0.3S109.4,374.4,109.4,374.3z"/>
	<path class="st1" d="M103.3,374.3c0-0.1,0.7-0.3,1.5-0.3s1.5,0.1,1.5,0.3s-0.7,0.3-1.5,0.3S103.3,374.4,103.3,374.3z"/>
	<path class="st1" d="M97.3,374.4c0-0.1,0.7-0.3,1.5-0.3s1.5,0.1,1.5,0.3s-0.7,0.3-1.5,0.3S97.3,374.5,97.3,374.4z"/>
	<path class="st1" d="M91.2,374.3c0-0.2,0.7-0.2,1.5-0.2s1.5,0.1,1.5,0.3s-0.7,0.3-1.5,0.3S91.2,374.4,91.2,374.3z"/>
	<path class="st1" d="M86.9,370.5c0.1,0,0.4,0.6,0.9,1.2s0.9,1.2,0.8,1.3s-0.7-0.3-1.2-1S86.8,370.5,86.9,370.5z"/>
	<path class="st1" d="M86.6,364.5c0.1,0,0.3,0.7,0.3,1.5s-0.1,1.5-0.3,1.5s-0.3-0.7-0.3-1.5S86.5,364.5,86.6,364.5z"/>
	<path class="st1" d="M86.6,358.5c0.1,0,0.3,0.7,0.3,1.5s-0.1,1.5-0.3,1.5s-0.3-0.7-0.3-1.5S86.5,358.5,86.6,358.5z"/>
	<path class="st1" d="M86.5,352.4c0.1,0,0.3,0.7,0.3,1.5s-0.1,1.5-0.3,1.5s-0.3-0.7-0.3-1.5S86.4,352.4,86.5,352.4z"/>
	<path class="st1" d="M86.5,346.4c0.1,0,0.3,0.7,0.3,1.5s-0.1,1.5-0.2,1.5s-0.3-0.7-0.3-1.5S86.4,346.4,86.5,346.4z"/>
	<path class="st1" d="M86.4,340.3c0.1,0,0.3,0.7,0.3,1.5s-0.1,1.5-0.3,1.5s-0.3-0.7-0.3-1.5S86.3,340.3,86.4,340.3z"/>
	<path class="st1" d="M86.9,334.3c0.1,0.1-0.1,0.7-0.2,1.5s-0.2,1.5-0.3,1.5s-0.3-0.7-0.2-1.5S86.8,334.3,86.9,334.3z"/>
	<path class="st1" d="M91.8,331.3c0,0.1-0.7,0.2-1.4,0.5s-1.4,0.5-1.4,0.4s0.4-0.6,1.3-0.9S91.8,331.1,91.8,331.3z"/>
	<path class="st1" d="M97.8,331.2c0,0.1-0.7,0.3-1.5,0.3s-1.5-0.1-1.5-0.3s0.7-0.3,1.5-0.3S97.8,331,97.8,331.2z"/>
	<path class="st1" d="M103.9,331.1c0,0.1-0.7,0.3-1.5,0.3s-1.5-0.1-1.5-0.3s0.7-0.3,1.5-0.3S103.9,331,103.9,331.1z"/>
	<path class="st1" d="M109.9,331.1c0,0.1-0.7,0.3-1.5,0.3s-1.5-0.1-1.5-0.3s0.7-0.3,1.5-0.3S109.9,330.9,109.9,331.1z"/>
	<path class="st1" d="M116,331c0,0.1-0.7,0.3-1.5,0.3s-1.5-0.1-1.5-0.3s0.7-0.3,1.5-0.3S116,330.9,116,331z"/>
	<path class="st1" d="M122,331c0,0.1-0.7,0.3-1.5,0.3s-1.5-0.1-1.5-0.3s0.7-0.3,1.5-0.3S122,330.8,122,331z"/>
	<path class="st1" d="M127.7,332.3c-0.1,0.1-0.7-0.3-1.4-0.6s-1.3-0.5-1.3-0.7s0.8-0.2,1.6,0.2S127.8,332.2,127.7,332.3z"/>
	<path class="st1" d="M129.6,337.8c-0.1,0-0.3-0.7-0.3-1.5s-0.1-1.5,0-1.5s0.5,0.6,0.5,1.5S129.7,337.8,129.6,337.8z"/>
	<path class="st1" d="M129.6,343.9c-0.1,0-0.3-0.7-0.3-1.5s0.1-1.5,0.3-1.5s0.3,0.7,0.3,1.5S129.8,343.9,129.6,343.9z"/>
	<path class="st1" d="M129.7,349.9c-0.1,0-0.3-0.7-0.3-1.5s0.1-1.5,0.3-1.5s0.3,0.7,0.3,1.5S129.8,349.9,129.7,349.9z"/>
	<path class="st1" d="M129.7,356c-0.1,0-0.3-0.7-0.3-1.5s0.1-1.5,0.3-1.5s0.3,0.7,0.3,1.5S129.9,356,129.7,356z"/>
	<path class="st1" d="M129.8,362c-0.1,0-0.3-0.7-0.3-1.5s0.1-1.5,0.3-1.5s0.3,0.7,0.3,1.5S129.9,362,129.8,362z"/>
	<path class="st1" d="M129.8,368.1c-0.1,0-0.3-0.7-0.3-1.5s0.1-1.5,0.3-1.5s0.3,0.7,0.3,1.5S130,368.1,129.8,368.1z"/>
	<path class="st1" d="M127.4,373.3c-0.1-0.1,0.4-0.6,1-1.2s0.9-1.1,1-1.1s0,0.8-0.6,1.4S127.4,373.4,127.4,373.3z"/>
	<circle class="st5" cx="69.9" cy="216" r="8.3"/>
	<path class="st7" d="M73,217.3c0,1.2-0.9,2.2-2.6,2.2c-1,0-1.9-0.3-2.6-0.9l0.4-0.6c0.6,0.6,1.4,0.9,2.3,0.8c1.2,0,1.9-0.6,1.9-1.5
		s-0.6-1.4-2-1.4h-0.5v-0.6l2-2.6H68v-0.7h4.7v0.5l-2,2.6C72.2,215.4,73,216.2,73,217.3z"/>
	<path class="st4" d="M69.7,444.4c0,1.2-0.9,2.1-2.1,2.1c-1.2,0-2.1-0.9-2.1-2.1c0-1.2,0.9-2.1,2.1-2.1
		C68.7,442.3,69.7,443.2,69.7,444.4C69.7,444.4,69.7,444.4,69.7,444.4z"/>
	<path class="st4" d="M81.6,444.3c0,1.2-0.9,2.1-2.1,2.2s-2.1-0.9-2.2-2.1c0-1.2,0.9-2.1,2.1-2.2c0,0,0,0,0,0
		C80.7,442.2,81.6,443.2,81.6,444.3C81.6,444.3,81.6,444.3,81.6,444.3z"/>
	<path class="st4" d="M93.5,444.3c0,1.2-0.9,2.1-2.1,2.2s-2.1-0.9-2.2-2.1s0.9-2.1,2.1-2.2c0,0,0,0,0,0
		C92.6,442.2,93.5,443.1,93.5,444.3z"/>
	<path class="st4" d="M136,187.3c0,0.1-2.8,0.2-6.2,0.2s-6.3,0-6.3-0.1s2.8-0.2,6.2-0.2S136,187.2,136,187.3z"/>
	<path class="st4" d="M136.1,190.5c0,0.1-2.8,0.2-6.3,0.2s-6.2,0-6.3-0.1c2.1-0.2,4.2-0.2,6.3-0.2
		C131.9,190.3,134,190.4,136.1,190.5z"/>
	<path class="st4" d="M136.1,193.7c-2.1,0.2-4.2,0.2-6.3,0.2c-3.5,0-6.3,0-6.3-0.1c2.1-0.2,4.2-0.2,6.3-0.2
		C133.3,193.6,136.1,193.6,136.1,193.7z"/>
	<path class="st4" d="M22.4,197.4h0.3h0.7l2.6-0.1l0,0c0-0.6,0-1.2,0-1.9c0-0.4,0-0.7,0-1.1c0.1-0.4,0.5-0.8,0.9-0.8
		c0.4,0,0.8,0,1.3,0c0.5,0.1,0.9,0.5,0.9,1.1c0,0.9,0,1.9,0,2.8l-0.1-0.1h3.4l-0.1,0.1c0-1.4,0-2.8,0-4.2c0-0.4,0-0.7,0-1.1
		c0-0.3-0.2-0.6-0.5-0.8l-1.5-1.4l-1.4-1.4l-0.7-0.7c-0.2-0.2-0.4-0.5-0.7-0.5c-0.3-0.1-0.5,0-0.8,0.1c-0.2,0.2-0.4,0.4-0.6,0.6
		l-1.2,1.2c-0.8,0.8-1.6,1.5-2.1,2.2c-0.2,0.4-0.2,0.8-0.2,1.2v1.2c0,0.7,0,1.4,0,1.9s0,0.9,0,1.2c0,0.1,0,0.3,0,0.4
		c0-0.1,0-0.3,0-0.4c0-0.3,0-0.7,0-1.2s0-1.2-0.1-1.9c0-0.4,0-0.8,0-1.2c-0.1-0.5,0-0.9,0.2-1.4c0.6-0.8,1.4-1.4,2.1-2.3l1.2-1.2
		c0.2-0.2,0.4-0.4,0.6-0.6c0.3-0.2,0.7-0.3,1-0.2c0.3,0.1,0.6,0.3,0.8,0.6l0.7,0.7l1.4,1.4l1.5,1.4c0.3,0.2,0.5,0.6,0.6,1
		c0,0.4,0,0.7,0,1.1c0,1.4,0,2.8,0,4.2v0.1h-0.1h-3.4H29v-0.2c0-1,0-1.9,0-2.8c0-0.4-0.3-0.7-0.7-0.8c-0.4,0-0.8,0-1.2,0
		c-0.3,0-0.6,0.3-0.7,0.6c0,0.3,0,0.7,0,1.1v2H26h-2.7h-0.7C22.5,197.4,22.5,197.4,22.4,197.4z"/>
	<path class="st8" d="M140.9,389.3l32.4-0.3c3,0,5.4,2.4,5.5,5.3l0.3,32.4c0,3-2.4,5.4-5.3,5.5l-32.4,0.3c-3,0-5.4-2.4-5.5-5.3
		l-0.3-32.4C135.5,391.7,137.9,389.3,140.9,389.3z"/>
	<path class="st2" d="M146.1,409.4l0.5,0.4l1.2,1l4.4,3.6l0.1,0v0.1c-0.2,2.2-0.5,4.9-0.8,7.8l-0.3-0.2l6.7-4.1l0.1-0.1l0.1,0.1
		l7.2,3.2l-0.4,0.3c-0.6-2.5-1.2-5-1.9-7.6c0-0.1-0.1,0.2,0.1-0.2l0,0l0,0v0l0.1-0.1l0.2-0.2l0.3-0.4l0.7-0.7l1.3-1.5l2.6-2.9
		l0.2,0.4l-7.8-0.6h-0.1l-0.1-0.1l-3.9-6.8h0.4l-3,7.3v0.1h-0.1l-5.6,1.1l-1.5,0.3C146.5,409.4,146.3,409.4,146.1,409.4l0.5,0
		l1.5-0.4l5.7-1.3l-0.1,0.1l3-7.3l0.1-0.4l0.2,0.4l4,6.8l-0.2-0.1l7.8,0.6h0.5l-0.3,0.4l-2.6,2.9l-1.3,1.5l-0.7,0.8l-0.3,0.4
		l-0.2,0.2l-0.1,0.1l0,0l0,0l0,0c0.1-0.5,0-0.1,0.1-0.2c0.6,2.6,1.3,5.2,1.8,7.6l0.1,0.5l-0.5-0.2l-7.2-3.2h0.2l-6.7,4.1l-0.4,0.2
		l0-0.4c0.3-3,0.6-5.6,0.9-7.8l0.1,0.1l-4.4-3.9l-1.1-1L146.1,409.4z"/>
</g>
<g id="Character--inject-65">
	<polygon class="st9" points="-30.5,395.8 -22.6,471.1 -36.3,471.1 -50,406 	"/>
	<path class="st9" d="M-55.9,358.6h-23.9l5.1,43.9l-35.7,49.8l7.3,9.3l39.7-41.3l8.3-8.9c1.8-1.9,2.7-4.4,2.5-7L-55.9,358.6z"/>
	<path class="st10" d="M-54.8,388.6c0.1,0.2,0.1,0.3,0.2,0.5c0.1,0.3,0.2,0.8,0.4,1.5c0.3,1.3,0.8,3.1,1.1,5.5
		c0.5,2.7,0.7,5.5,0.6,8.3c0,1.7-0.4,3.3-0.9,4.9c-0.8,1.6-1.8,3.1-3,4.3c-5,5.2-9.5,9.9-12.8,13.2l-3.9,4l-1.1,1.1
		c-0.3,0.2-0.4,0.4-0.4,0.3c0.1-0.1,0.2-0.3,0.3-0.4l1-1.1l3.8-4.1c3.3-3.5,7.7-8.1,12.7-13.3c1.2-1.2,2.2-2.6,3-4.2
		c0.6-1.5,0.9-3.1,0.9-4.7c0.1-2.7-0.1-5.5-0.5-8.2c-0.3-2.3-0.7-4.2-1-5.5l-0.3-1.5C-54.8,389-54.8,388.8-54.8,388.6z"/>
	<path class="st9" d="M-8.4,299.6L-8.4,299.6l0.4-0.1c3.4-0.5,6.8-1.1,10.1-2c4.1-1.3,4-1.6,3.8-2.1c-0.6-1.2-7.3,1.9-6.2,0.4
		c1.1-1.5,8.6-2.9,7.9-4.2c-0.9-1.6-7.8,1.8-8.4,2.1s-1-0.6-0.4-0.8c0.8-0.3,9.2-3.4,8.4-5c-0.5-0.9-2,0.1-2,0.1s-7.6,3.5-8,2.8
		c-0.4-0.8,4.1-3,5.6-3.7s1.9-1.6,1-2.1c-0.6-0.3-5.3,1.5-6.8,2.2c-1.5,0.7-5.6,2.6-4.3,0c0,0,0-0.1,0.1-0.1
		c1.4-2.5,1.6-4.9,1.1-5.7c-0.3-0.5-0.9-0.6-1.4-0.2c-0.2,0.1-0.3,0.3-0.4,0.5C-8,281.9-8,282-8,282.2c0,0.1,0,0.1,0,0.2
		c-0.3,1-0.6,1.9-1.1,2.8c-0.4,0.8-0.9,1.5-1.6,2.1c-0.7,0.7-1.4,1.3-1.9,1.8l-5.7,2.3l5.1,9.7l3.7-0.7"/>
	<path class="st5" d="M-30.6,293.7l19-6.3l4.4,13.8l-25.9,9.1c-4.6,1.6-9.6-0.5-11.7-4.9l-4.4-16.9l13.3-10.1L-30.6,293.7z"/>
	<path class="st5" d="M-70.4,256.4c0,0-21.8-2.9-20,19.1c0.6,7.3,3.8,17.8,6.2,23.6c0.8,2,0.9,4.2,0.2,6.2
		c-2.1,6.5-7.3,16.1-8.2,21.5l44.9,3.8l-0.1-37.3l7.7-3.2l6.5-2.6c-8.6-36.3-24.6-31.6-24.6-31.6L-70.4,256.4"/>
	<g class="st11">
		<path d="M-83.6,300.9c0.4,3.3-1,6.3-2.5,9.7c0,0,6.3,14.8,12.3,15.5c5,0.6,16.1,1.6,26.5,2.6l0.3-8.4l-42.5-38.9
			C-88.7,286.5-86.3,293.1-83.6,300.9z"/>
	</g>
	<path class="st4" d="M-27,396.5c-10.7-22.2-19.6-46-20.3-70.7l0.3-41.7l-17.3,2l-7.2,40.2l-21,0.5c-4.2,10-3.4,20.9-0.5,30.9
		c3.4,11.7,10.6,23,8.7,35.1c-0.5,2.9-1.3,6.1,0.5,8.4c1.2,1.5,3.3,2,5.2,2.3c14.9,3,30.6,6,45.1,1.2c1-0.3,2-0.8,2.7-1.6
		C-28.2,399.9-26.1,398.2-27,396.5z"/>
	<path class="st8" d="M-72.1,329.2c0.1,0.7-0.1,1.4-0.3,2c-1.2,3.2-4.4,5.3-7.8,5c-0.7,0-1.4-0.2-2-0.5c0-0.1,0.8,0.1,2,0.1
		c3.2,0.1,6.1-1.8,7.4-4.8C-72.3,329.9-72.2,329.1-72.1,329.2z"/>
	<path class="st4" d="M-48.2,271.5c0,0.3-0.1,0.7-0.2,1c-0.1,0.6-0.3,1.6-0.6,2.7v-0.1c0.6,0.9,1.2,2.1,1.8,3.3
		c0.7,1.4,1.2,2.8,1.6,4.3c0.1,0.3,0.1,0.6,0.1,0.9c0,0.3,0,0.6,0,0.9c0,0.6-0.1,1.1-0.1,1.7c-0.1,1-0.3,2-0.5,3
		c-0.3,1.4-0.8,2.8-1.3,4.2v-0.1c0,0.5,0,0.9-0.1,1.4c-0.1-0.5-0.1-0.9-0.1-1.4l0,0l0,0c0.5-1.4,0.8-2.8,1.1-4.2
		c0.2-0.9,0.3-1.9,0.4-3c0-0.5,0.1-1.1,0.1-1.6v-0.9c0-0.3,0-0.5-0.1-0.8c-0.4-1.5-0.9-2.9-1.6-4.2c-0.6-1.3-1.2-2.4-1.7-3.4v-0.1
		v-0.1c0.3-1.1,0.6-2.1,0.8-2.7C-48.5,272.1-48.4,271.8-48.2,271.5z"/>
	<path class="st4" d="M-57.2,288.8c0,0-0.1,0.5-0.7,1.2c-1.4,1.8-3.6,2.7-5.8,2.6c-0.5,0-0.9-0.1-1.3-0.3c1.5,0,2.9-0.3,4.3-0.8
		C-59.4,290.8-58.2,289.9-57.2,288.8z"/>
	<path class="st4" d="M-83.2,258.6c0,0,12.8,9,19.3,27.5l2.9-0.4c0,0-4.9-18.5-20.1-28.1C-81.9,257.8-82.6,258.1-83.2,258.6z"/>
	<path class="st4" d="M-55.8,256.1c0,0,8,13.7,8.3,28.6h-2.7c0,0-3.2-23.1-9-28.9L-55.8,256.1z"/>
	<path class="st8" d="M-60.6,285.7c0.1,0,0.3,0.4,0.5,1.1c0.1,0.5,0.2,0.9,0.1,1.4c-0.1,0.6-0.5,1.1-1.1,1.4
		c-0.6,0.2-1.3,0.1-1.8-0.4c-0.3-0.3-0.6-0.8-0.7-1.3c-0.2-0.8-0.1-1.2,0-1.3c0.1,0,0.2,0.5,0.4,1.1c0.1,0.4,0.4,0.7,0.7,1
		c0.3,0.3,0.8,0.4,1.2,0.3c0.4-0.2,0.7-0.6,0.8-1.1c0.1-0.4,0.1-0.8,0-1.2C-60.6,286.2-60.7,285.7-60.6,285.7z"/>
	<path class="st8" d="M-62.2,286.8c0,0.1,0,0.2,0,0.3c0,0,0,0.1,0.1,0.1c0,0,0.1,0,0.1,0c0.1,0,0.1,0,0.1-0.1c0,0,0-0.1,0-0.1
		C-62,286.9-62.1,286.9-62.2,286.8c0-0.1,0.2-0.2,0.5-0.1c0.2,0.1,0.3,0.2,0.3,0.4c0,0.3-0.1,0.5-0.3,0.6c-0.2,0.1-0.5,0.1-0.7-0.1
		c-0.1-0.1-0.2-0.3-0.1-0.5C-62.4,286.8-62.2,286.8-62.2,286.8z"/>
	<path class="st8" d="M-48.7,286.3c0,0.1-0.2,0.1-0.4,0.1c-0.7-0.1-1.3-0.8-1.3-1.5c0-0.3,0.1-0.4,0.2-0.4s0.2,0.6,0.6,1
		S-48.7,286.2-48.7,286.3z"/>
	<path class="st8" d="M-52,294.8c-1.2,0.5-2.5,0.7-3.8,0.9c-1.3,0.3-2.6,0.4-3.9,0.3c1.2-0.5,2.5-0.7,3.8-0.9
		C-54.6,294.8-53.3,294.7-52,294.8z"/>
	<path class="st8" d="M-57.4,340.5c0.3,1.1,0.7,2.2,1.2,3.2c0.8,1.9,1.9,4.6,3,7.6s2.2,5.7,2.9,7.7c0.3,1.1,0.8,2.1,1.3,3.2
		c0-0.3-0.1-0.6-0.2-0.9c-0.2-0.6-0.4-1.4-0.7-2.4c-0.7-2-1.6-4.8-2.8-7.8s-2.3-5.7-3.2-7.6c-0.4-1-0.8-1.7-1.1-2.3
		C-57.1,341-57.2,340.8-57.4,340.5z"/>
	<path class="st5" d="M-102.5,462.5l0.9-0.8l-8.4-10.3l-3.8,3.3l0.5,0.6c2.3,2.9,11.7,14.4,13.9,15.8
		C-97,472.6-102.5,462.5-102.5,462.5z"/>
	<g class="st12">
		<path class="st7" d="M-110.5,458.2c0.7-0.9,1.1-2,1-3.1c0-1.1-0.5-2.2-1.3-3l-2.8,2.5L-110.5,458.2z"/>
	</g>
	<g class="st12">
		<path class="st7" d="M-100,467.6c0,0,1.8,3.7,1,3.8s-10.8-11.3-14.8-16.6l0.2-0.2l11.5,13.3C-102,467.8-100.5,467-100,467.6z"/>
	</g>
	<path class="st4" d="M-113.7,454.3c0,0.1,0.1,0.1,0.1,0.2l0.4,0.5l1.5,1.9c1.3,1.6,3.1,3.7,5.2,6s3.9,4.4,5.3,5.9l1.7,1.7l0.5,0.5
		c0,0.1,0.1,0.1,0.2,0.1c0,0,0-0.1-0.1-0.2l-0.4-0.5l-1.6-1.8c-1.4-1.5-3.3-3.6-5.3-5.9c-2-2.3-3.9-4.5-5.2-6l-1.6-1.8l-0.4-0.5
		C-113.6,454.4-113.6,454.4-113.7,454.3z"/>
	<path class="st4" d="M-102.2,467.9c0.7-0.4,1.6-0.6,2.4-0.4C-100.6,467.2-101.5,467.3-102.2,467.9z"/>
	<path class="st4" d="M-103.3,463.7c0,0,0.3,0,0.7,0c0.2,0,0.4-0.1,0.6-0.2c-0.2,0-0.4,0-0.7,0
		C-102.9,463.5-103.1,463.6-103.3,463.7z"/>
	<path class="st4" d="M-103.6,462.5c0,0,0.2,0.1,0.5,0.1s0.6,0,0.6,0s-0.2-0.1-0.5-0.1S-103.6,462.5-103.6,462.5z"/>
	<path class="st4" d="M-103.1,461.2c0,0,0.1,0.3,0.4,0.6s0.5,0.5,0.5,0.5s-0.1-0.3-0.4-0.6S-103,461.2-103.1,461.2z"/>
	<path class="st4" d="M-102.6,460.4c0,0.3,0.2,0.5,0.3,0.7c0.1,0.2,0.4,0.4,0.6,0.5c0,0-0.2-0.3-0.5-0.6S-102.5,460.4-102.6,460.4z"
		/>
	<path class="st4" d="M-102.1,463.3c0.2,0.2,0.3,0.5,0.6,0.6c0.2,0.2,0.5,0.4,0.8,0.5c0.2,0.1,0.3,0.2,0.5,0.3c0.1,0,0.2,0,0.3,0
		c0.1-0.1,0.2-0.2,0.2-0.3c-0.2-0.7-0.9-1.2-1.6-1.1c-0.2,0-0.4,0.1-0.6,0.2c-0.1,0.1-0.2,0.1-0.2,0.1c0.3-0.1,0.5-0.2,0.8-0.2
		c0.3,0,0.6,0.1,0.8,0.2c0.3,0.2,0.5,0.5,0.6,0.8c0,0.2-0.1,0.2-0.3,0.2c-0.2-0.1-0.3-0.1-0.5-0.2c-0.3-0.1-0.5-0.3-0.8-0.5
		C-101.9,463.5-102.1,463.3-102.1,463.3z"/>
	<path class="st4" d="M-102,463.5c0,0,0.2,0,0.5-0.3c0.1-0.2,0.3-0.4,0.3-0.6c0.1-0.3,0-0.6-0.1-0.8c-0.1-0.1-0.4-0.1-0.5,0.1
		c-0.1,0.1-0.2,0.2-0.2,0.4c-0.1,0.2-0.1,0.4-0.1,0.6C-102.1,463-102.1,463.2-102,463.5c0-0.1,0-0.3,0-0.6c0-0.2,0.1-0.4,0.2-0.6
		c0.1-0.2,0.2-0.5,0.4-0.3c0.1,0.2,0.2,0.4,0.1,0.7c0,0.2-0.1,0.4-0.3,0.5C-101.8,463.4-102,463.4-102,463.5z"/>
	<path class="st4" d="M-110.8,452.1c0,0,0.3,0.3,0.6,0.8c0.4,0.6,0.7,1.4,0.8,2.2c0,0.8-0.2,1.6-0.5,2.2c-0.3,0.5-0.6,0.8-0.5,0.8
		c0,0,0.1,0,0.2-0.2c0.2-0.2,0.3-0.4,0.4-0.6c0.4-0.7,0.6-1.5,0.6-2.3c0-0.8-0.3-1.6-0.8-2.2c-0.1-0.2-0.3-0.4-0.5-0.5
		C-110.7,452.2-110.8,452.1-110.8,452.1z"/>
	<path class="st4" d="M-108.5,458.6c0.3,0.6,0.7,1.1,1.1,1.6c0.4,0.5,0.9,1,1.4,1.3c0,0-0.6-0.6-1.3-1.5S-108.4,458.6-108.5,458.6z"
		/>
	<path class="st4" d="M-110.2,456.6c0,0-0.1,0.2-0.2,0.4s-0.2,0.4-0.2,0.4s0.2-0.1,0.3-0.3S-110.1,456.6-110.2,456.6z"/>
	<path class="st4" d="M-109.9,455.1c0,0-0.1,0.1-0.1,0.4c0,0.2,0,0.4,0.1,0.4s0.1-0.1,0.1-0.3S-109.9,455.1-109.9,455.1z"/>
	<path class="st4" d="M-110.4,453.7c0,0,0.1,0.2,0.2,0.4s0.1,0.4,0.1,0.4s0.1-0.2,0-0.4S-110.4,453.7-110.4,453.7z"/>
	<path class="st4" d="M-110.9,452.8c0,0,0,0.1,0,0.2s0.1,0.2,0.2,0.2c0,0,0-0.1,0-0.2S-110.8,452.8-110.9,452.8z"/>
	<path class="st5" d="M-23,471.5v-1.2l-13.3-0.1l0.2,5h0.8c3.7,0.1,18.6,0.1,21-0.7C-11.7,473.6-23,471.5-23,471.5z"/>
	<g class="st12">
		<path class="st7" d="M-31.4,475c-0.2-1.1-0.9-2.1-1.8-2.8c-0.9-0.7-2-1-3.1-0.9l0.1,3.7L-31.4,475z"/>
	</g>
	<g class="st12">
		<path class="st7" d="M-17.5,472.7c0,0,4,1,3.5,1.7s-15.6,1.2-22.2,0.9v-0.3l17.6-0.5C-18.6,474.5-18.3,472.8-17.5,472.7z"/>
	</g>
	<path class="st4" d="M-36.4,474.9h0.2h0.7h2.4c2,0,4.8,0,7.9-0.1s5.9-0.3,7.9-0.4l2.4-0.2l0.6-0.1h0.2h-0.2h-0.6l-2.4,0.1
		c-2,0.1-4.8,0.3-7.9,0.4s-5.9,0.2-7.9,0.2h-2.4h-0.7C-36.3,474.9-36.4,474.9-36.4,474.9z"/>
	<path class="st4" d="M-18.6,474.7c0.1-0.4,0.2-0.8,0.4-1.2c0.2-0.4,0.5-0.7,0.8-1C-18.2,472.9-18.7,473.7-18.6,474.7L-18.6,474.7z"
		/>
	<path class="st4" d="M-22.6,472.8c0,0,0.2-0.2,0.4-0.5c0.1-0.2,0.2-0.4,0.3-0.6c0,0-0.2,0.2-0.4,0.5S-22.6,472.8-22.6,472.8z"/>
	<path class="st4" d="M-23.7,472.3c0,0,0.2-0.1,0.4-0.3s0.4-0.4,0.4-0.4s-0.2,0.1-0.5,0.3S-23.7,472.3-23.7,472.3z"/>
	<path class="st4" d="M-24.4,471.1c0,0,0.3,0.1,0.7,0.1c0.2,0,0.5,0,0.7-0.1c0,0-0.3-0.1-0.7-0.1C-23.9,471-24.2,471-24.4,471.1z"/>
	<path class="st4" d="M-24.7,470.2c0.2,0.1,0.5,0.2,0.8,0.2c0.3,0,0.5,0,0.8-0.1c-0.3,0-0.5,0-0.8,0
		C-24.1,470.2-24.4,470.2-24.7,470.2z"/>
	<path class="st4" d="M-22.2,471.7c0.3,0.1,0.6,0.1,0.9,0c0.3,0,0.6-0.1,0.9-0.2c0.2-0.1,0.3-0.1,0.5-0.2c0.1-0.1,0.2-0.2,0.2-0.3
		c0-0.1,0-0.3-0.1-0.3c-0.8-0.4-1.7,0-2.1,0.8c0,0.1-0.1,0.2-0.1,0.3c0,0.1,0,0.2,0,0.2c0.1-0.3,0.2-0.5,0.4-0.7
		c0.2-0.2,0.4-0.4,0.7-0.5c0.3-0.1,0.7-0.1,1,0c0.1,0.1,0.1,0.3-0.1,0.4c-0.1,0.1-0.3,0.2-0.5,0.2c-0.3,0.1-0.6,0.2-0.9,0.3
		C-21.9,471.6-22.2,471.6-22.2,471.7z"/>
	<path class="st4" d="M-21.9,471.7c0.1-0.2,0.1-0.4,0.1-0.6c0-0.2-0.1-0.4-0.3-0.6c-0.2-0.2-0.4-0.4-0.7-0.4c-0.2,0-0.3,0.2-0.3,0.4
		c0,0,0,0,0,0c0,0.1,0.1,0.3,0.2,0.4c0.1,0.2,0.3,0.4,0.4,0.5C-22.4,471.5-22.2,471.6-21.9,471.7c-0.1,0-0.2-0.2-0.5-0.4
		c-0.1-0.2-0.3-0.3-0.4-0.5c-0.1-0.2-0.2-0.5,0-0.5s0.4,0.2,0.6,0.3c0.1,0.2,0.2,0.4,0.3,0.5C-22,471.3-21.9,471.5-21.9,471.7z"/>
	<path class="st4" d="M-36.3,471.3c0,0,0.4,0,1,0c0.8,0.1,1.5,0.3,2.2,0.8c0.6,0.5,1.1,1.1,1.4,1.8c0.2,0.6,0.3,0.9,0.3,0.9
		c0-0.1,0-0.2,0-0.3c0-0.2-0.1-0.5-0.2-0.7c-0.3-0.8-0.8-1.4-1.4-1.9c-0.7-0.5-1.4-0.8-2.3-0.8c-0.2,0-0.5,0-0.7,0
		C-36.1,471.2-36.2,471.2-36.3,471.3z"/>
	<path class="st4" d="M-29.8,473.6c0.6,0.1,1.3,0.2,1.9,0.1c0.6,0,1.3-0.1,1.9-0.2c0,0-0.9,0-1.9,0.1S-29.8,473.6-29.8,473.6z"/>
	<path class="st4" d="M-32.4,473.7c0,0,0.1,0.2,0.2,0.4s0.1,0.4,0.2,0.4s0.1-0.2-0.1-0.4S-32.4,473.7-32.4,473.7z"/>
	<path class="st4" d="M-33.4,472.5c0,0,0.1,0.2,0.2,0.3s0.3,0.2,0.3,0.2s-0.1-0.2-0.2-0.3S-33.4,472.5-33.4,472.5z"/>
	<path class="st4" d="M-34.9,472c0,0,0.2,0,0.4,0.1s0.3,0.2,0.4,0.1s-0.1-0.2-0.3-0.3S-34.9,472-34.9,472z"/>
	<path class="st4" d="M-35.9,471.8c0,0,0.1,0.1,0.2,0.1s0.2,0,0.2,0s-0.1-0.1-0.2-0.1S-35.9,471.8-35.9,471.8z"/>
	<path class="st4" d="M-53.6,219.3L-51,237l4-0.8c0.7,0,1.4-0.4,1.8-0.9c0.6-0.9,0-2-0.7-2.8s-1.7-1.4-1.9-2.4s0.3-2.1,0.3-3.2
		c-0.1-1.1-0.5-2.1-1.1-3c-0.6-0.9-1.3-1.5-1.3-4.3"/>
	<path class="st9" d="M-57.3,256.5c-0.2-4.4-0.4-9.1-0.4-9.1s5.7-1.2,6.4-8.7c0.8-7.1-1.3-23.4-1.3-23.4l0,0
		c-8.4-2.9-17.8-0.2-23.4,6.7l0,0l2.3,35.8c0.4,4.2,4.2,7.3,8.4,6.9c0,0,0.1,0,0.1,0l0,0C-60.7,264.5-57.3,260.9-57.3,256.5z"/>
	<path class="st4" d="M-52.7,228.1c0,0.5-0.4,0.9-0.9,1c-0.5,0.1-0.9-0.3-1-0.8c0-0.5,0.4-0.9,0.9-1
		C-53.2,227.3-52.7,227.6-52.7,228.1z"/>
	<path class="st4" d="M-52.4,227c-0.1,0.1-0.9-0.4-1.9-0.3s-1.7,0.6-1.9,0.5s0.1-0.3,0.4-0.5c0.4-0.3,0.9-0.5,1.5-0.5
		c0.5,0,1.1,0.1,1.5,0.4C-52.5,226.7-52.4,226.9-52.4,227z"/>
	<path class="st4" d="M-63.4,228.9c0,0.5-0.4,0.9-0.9,1c-0.5,0.1-0.9-0.3-1-0.8c0-0.5,0.4-0.9,0.9-1C-64,228-63.5,228.4-63.4,228.9z
		"/>
	<path class="st4" d="M-63.1,227.9c-0.1,0.1-0.9-0.4-1.9-0.3s-1.7,0.6-1.9,0.5s0-0.3,0.4-0.5c0.4-0.3,0.9-0.5,1.5-0.6
		c0.5,0,1.1,0.1,1.5,0.4C-63.2,227.6-63,227.9-63.1,227.9z"/>
	<path class="st4" d="M-59,235.3c0.5-0.2,1.1-0.3,1.7-0.4c0.3,0,0.5-0.1,0.5-0.3c0-0.3-0.1-0.5-0.2-0.8l-0.9-2
		c-0.8-1.7-1.5-3.4-2-5.1c0.9,1.6,1.7,3.2,2.4,4.9c0.3,0.7,0.6,1.3,0.8,2c0.2,0.3,0.2,0.7,0.2,1c-0.1,0.2-0.2,0.3-0.4,0.4
		c-0.1,0-0.3,0.1-0.4,0.1C-57.9,235.3-58.4,235.3-59,235.3z"/>
	<path class="st10" d="M-57.7,247.4c-3.5,0.2-7-0.5-10.1-2.1c0,0,2.7,5,10.1,3.9V247.4z"/>
	<path class="st10" d="M-62.1,237.3c0.3-0.3,0.7-0.6,1.1-0.7c0.4-0.1,0.9,0,1.2,0.4c0.1,0.2,0.1,0.4,0.3,0.4s0.2-0.1,0.3-0.1
		s0.3,0.1,0.3,0.3c0,0.2,0,0.4-0.1,0.5c-0.1,0.3-0.3,0.6-0.5,0.8c-0.2,0.3-0.5,0.6-0.9,0.8c-0.3,0.1-0.7,0.1-1.1,0
		c-0.4-0.1-0.8-0.4-1.1-0.8c-0.2-0.4-0.3-0.9-0.1-1.3c0.2-0.4,0.6-0.7,1-0.7"/>
	<path class="st4" d="M-62,236.2c0.2,0,0.2,1.1,1.2,1.8s2.2,0.6,2.2,0.7s-0.3,0.2-0.8,0.3c-0.6,0-1.3-0.1-1.8-0.5
		c-0.5-0.4-0.9-0.9-1-1.5C-62.2,236.5-62,236.2-62,236.2z"/>
	<path class="st9" d="M-72.8,230c-0.8-0.1-1.6,0-2.4,0.3c-0.8,0.3-1.4,0.9-1.7,1.7c-0.3,0.8-0.2,1.6,0.1,2.4
		c0.3,0.7,0.8,1.4,1.5,1.9c0.4,0.4,0.9,0.7,1.5,0.9c0.6,0.2,1.2,0,1.6-0.3"/>
	<path class="st10" d="M-73,234.8c0.1,0-0.2,0.5-1,0.4c-0.4-0.1-0.7-0.4-0.9-0.7c-0.2-0.4-0.4-0.8-0.5-1.3c-0.1-0.5,0-1,0.3-1.4
		c0.2-0.4,0.6-0.6,1-0.7c0.7,0,1,0.4,0.9,0.5s-0.4-0.2-0.8,0c-0.6,0.3-0.9,0.9-0.8,1.6c0.1,0.8,0.5,1.6,0.9,1.7S-73,234.7-73,234.8z
		"/>
	<path class="st4" d="M-54.3,213.3c0.7,2.3-0.1,4.8-2.1,6.1c-2,1.3-4.5,1.1-6.8,1.4s-5,1.6-5.2,3.9c-0.2,1.4,0.6,2.9,0,4.2
		c-0.7,1.5-2.8,1.9-3.6,3.3c-1.3,2.3,1.7,5.1,1.1,7.7l-15.3-2.8c0.1-1.4,0.8-2.8,2-3.6c-1.4,0.7-2.6,1.8-3.5,3.2l-4.5-1.5
		c1.3-3.1,3.9-5.5,7.1-6.5c2.4-0.8-1-5.2,0.2-7.4c1.3-2.6,6.1-1.3,7.5-3.9c0.5-0.9,0.3-2.1,0.6-3.1c0.6-2.3,3.3-3.5,5.8-3.5
		s4.8,0.7,7.3,0.4c1.3-0.1,2.6-0.6,3.9-0.8c1.3-0.3,2.7-0.1,3.9,0.4c1.2,0.6,1.8,2,1.5,3.4"/>
	<path class="st4" d="M-56.2,218.3c1,2.6,2.5,6.1,5.1,6.8c1-1.2,1.2-5.1,0.9-6.9c-0.2-1.9-0.9-3.6-2.1-5c-1.3-1.4-3.2-2-5-1.7"/>
	<path class="st8" d="M-83.2,237.4c-0.1-0.1-0.2-0.3-0.2-0.4c-0.1-0.4-0.1-0.9,0-1.3c0.1-0.7,0.4-1.4,0.8-2c0.4-0.7,1-1.4,1.5-2.3
		c0.5-1,0.7-2.1,0.5-3.1c-0.2-1.3-0.1-2.6,0.2-3.9c0.3-0.7,0.8-1.3,1.5-1.6c0.7-0.3,1.4-0.5,2.2-0.6c0.7-0.1,1.4-0.3,1.9-0.8
		c0.5-0.5,0.8-1.2,1-1.9c0.2-0.8,0.4-1.5,0.7-2.2c0.3-0.7,0.8-1.4,1.3-1.9c1-1.1,2.4-1.8,3.9-1.9c1.3,0,2.6,0.1,3.9,0.5
		c1.1,0.3,2.1,0.5,3.2,0.6c0.9,0,1.8-0.2,2.5-0.6c0.6-0.4,1-0.9,1.3-1.5c0.2-0.5,0.4-1.1,0.3-1.7c0.1,0.1,0.1,0.3,0.1,0.4
		c0,0.5-0.1,0.9-0.2,1.3c-0.3,0.7-0.8,1.2-1.3,1.6c-0.8,0.5-1.7,0.8-2.7,0.8c-1.1,0-2.3-0.2-3.3-0.5c-1.2-0.4-2.5-0.5-3.7-0.5
		c-1.4,0.2-2.6,0.8-3.6,1.8c-0.5,0.5-0.9,1.1-1.2,1.8c-0.3,0.7-0.5,1.4-0.7,2.2c-0.2,0.8-0.6,1.5-1.2,2.1c-0.6,0.5-1.4,0.8-2.2,0.9
		c-0.7,0.1-1.4,0.2-2,0.5c-0.6,0.3-1.1,0.8-1.3,1.4c-0.3,1.2-0.4,2.5-0.2,3.7c0,0.6,0,1.2-0.1,1.8c-0.1,0.5-0.3,1.1-0.6,1.6
		c-0.5,0.9-1.1,1.6-1.5,2.3c-0.4,0.6-0.7,1.2-0.8,1.9C-83.4,236.3-83.3,236.9-83.2,237.4z"/>
	<path class="st8" d="M-54.1,213.7c0,0.1-0.1,0.3-0.1,0.4c-0.1,0.4-0.3,0.7-0.5,1.1c-0.8,1.3-1.9,2.3-3.2,3c-0.9,0.5-2,0.8-3,0.8
		c-1.2,0.1-2.3,0-3.5-0.1c-1.2-0.2-2.5-0.1-3.7,0.2c-1.3,0.3-2.4,1.1-3,2.2c-0.5,1.2-0.4,2.6-0.7,4c-0.1,0.7-0.5,1.3-1,1.8
		c-0.5,0.4-1.1,0.7-1.7,0.9c-0.6,0.1-1.1,0.4-1.6,0.7c-0.4,0.3-0.7,0.8-0.9,1.2c-0.3,0.9-0.5,1.9-0.4,2.9c0.1,1.5-0.2,3-0.9,4.3
		c-0.2,0.3-0.5,0.6-0.9,0.8c-0.1,0.1-0.3,0.1-0.4,0.1c0.5-0.3,0.8-0.6,1.1-1.1c0.6-1.3,0.9-2.7,0.7-4.2c0-1,0.1-2,0.4-3
		c0.2-0.6,0.5-1.1,1-1.4c0.5-0.3,1.1-0.6,1.7-0.8c0.6-0.2,1.1-0.4,1.6-0.8c0.4-0.4,0.7-1,0.8-1.6c0.3-1.2,0.1-2.7,0.7-4.1
		c0.7-1.3,1.9-2.2,3.4-2.5c1.3-0.3,2.6-0.3,3.9-0.1c1.1,0.1,2.3,0.2,3.4,0.2c1-0.1,1.9-0.3,2.8-0.7c1.3-0.6,2.4-1.6,3.2-2.7
		C-54.3,214.2-54.2,213.6-54.1,213.7z"/>
	<path class="st8" d="M-48.3,224.6c-0.2-0.6-0.4-1.2-0.6-1.7c-0.3-0.6-0.7-1.1-1.2-1.5c-0.7-0.5-1.4-1-2-1.5
		c-0.6-0.6-1.1-1.4-1.3-2.3c-0.2-0.8-0.2-1.5-0.3-2c-0.1-0.6-0.2-1.2-0.4-1.8c0.4,0.5,0.7,1.1,0.8,1.7c0.3,1.1,0.2,2.8,1.5,4
		c0.6,0.6,1.3,1.1,1.9,1.5c0.6,0.4,1,1,1.2,1.7C-48.3,223.3-48.2,224-48.3,224.6z"/>
	<path class="st4" d="M-63.1,225.6c-0.1,0.3-0.9,0.1-1.9,0.1s-1.8,0-1.9-0.3s0.8-0.8,1.9-0.8S-62.9,225.4-63.1,225.6z"/>
	<path class="st4" d="M-52.8,225c0,0.3-0.8,0.5-1.7,0.5s-1.7-0.3-1.7-0.6s0.8-0.5,1.7-0.5S-52.8,224.7-52.8,225z"/>
	<path class="st8" d="M-56,308.3l10.5-31c1-2.8,4-4.3,6.8-3.4l31,10.5c2.8,1,4.3,4,3.4,6.8l-10.5,31c-1,2.8-4,4.3-6.8,3.4l-31-10.5
		C-55.4,314.2-57,311.1-56,308.3z"/>
	<path class="st2" d="M-16,304.2c0.3-1.2,0.5-2.3,0.6-3.5c0.2-3.2-0.7-6.5-2.5-9.1c-2.7-4-7.3-6.3-12.2-6.2c-1.4,0-2.7,0.3-4,0.7
		c-1.4,0.4-2.6,1.1-3.8,1.9c-5.1,3.6-7.3,10.1-5.4,16c0.8,2.7,2.5,5.1,4.7,6.8c6.2,5,15.3,3.9,20.2-2.3c0.3-0.4,0.5-0.7,0.8-1.1
		C-17,306.4-16.4,305.3-16,304.2c0.1,0.1,0,0.2,0,0.3l-0.2,0.6c-0.1,0.3-0.3,0.7-0.4,1c-0.2,0.5-0.5,0.9-0.7,1.4
		c-0.7,1.2-1.7,2.3-2.7,3.2c-1.4,1.2-3.1,2.2-4.8,2.8c-2.2,0.7-4.5,1-6.7,0.7c-2.6-0.4-5.1-1.4-7.1-3.1c-1.1-0.9-2.1-1.9-2.9-3.1
		c-0.9-1.2-1.6-2.6-2-4c-2-6.1,0.3-12.8,5.6-16.5c1.2-0.9,2.6-1.6,4-2c1.3-0.4,2.8-0.7,4.2-0.7c5-0.1,9.7,2.3,12.5,6.5
		c1,1.6,1.8,3.3,2.1,5.1c0.3,1.4,0.4,2.8,0.2,4.2c0,0.5-0.1,1-0.2,1.5c-0.1,0.4-0.1,0.7-0.3,1.1l-0.2,0.7
		C-15.9,304-15.9,304.1-16,304.2z"/>
	<path class="st2" d="M-15.1,303.9c-1.1-0.1-2.1-0.4-3.1-0.8c-1-0.3-2-0.7-2.9-1.3c1.1,0.1,2.1,0.3,3.1,0.8
		C-17,302.9-16,303.3-15.1,303.9z"/>
	<path class="st2" d="M-35,313.1c0.3-2.1,1-4.1,2-6c-0.1,1.1-0.3,2.1-0.8,3.1C-34,311.2-34.4,312.2-35,313.1z"/>
	<path class="st2" d="M-27.7,291.6c0.1-1.1,0.3-2.1,0.8-3.1c0.3-1,0.7-2,1.3-2.9c-0.1,1.1-0.4,2.1-0.8,3.1
		C-26.7,289.7-27.2,290.7-27.7,291.6z"/>
	<path class="st2" d="M-37.3,296.5c-1.1-0.1-2.1-0.4-3.1-0.8c-1-0.3-2-0.7-2.9-1.3c1.1,0.1,2.1,0.4,3.1,0.8
		C-39.1,295.5-38.2,295.9-37.3,296.5z"/>
	<path class="st2" d="M-20.9,294.5c-1.5,1-3.1,1.9-4.7,2.6c-1.6,0.9-3.3,1.6-5,2.2c1.5-1,3.1-1.9,4.7-2.6
		C-24.3,295.8-22.6,295.1-20.9,294.5z"/>
	<path class="st2" d="M-24.4,301.3c-1.1-0.1-2.1-0.4-3.1-0.8c-1.1-0.3-2.1-0.7-3-1.3c1.1,0.1,2.1,0.4,3.1,0.8
		C-26.3,300.3-25.3,300.7-24.4,301.3z"/>
	<path class="st9" d="M-30.1,321.8l3.3,1.8c3.2,1.4,4.9,2.3,6.2,2c1.7-0.5,0.8-2.4,0.8-2.4s2.6,0.5,3.1-1c0.2-0.6-0.1-1.3-0.6-1.7
		c0,0,2.4,0.3,3.2-0.3c1.1-0.8,0.1-2.1,0.1-2.1c3.5-0.1,4.2-1.9,3.7-2.4s-3.1-0.7-3.1-0.7c-2-0.5-7.5-1.7-4.3-3.3s5.1-4.1,5.1-5.1
		c-0.1-0.6-0.6-1.1-1.2-1c-0.3,0-0.6,0.2-0.8,0.4c-0.8,0.9-1.8,1.6-2.9,2.2c-0.8,0.5-1.7,0.9-2.7,1.1c-1.1,0.2-2.1,0.4-2.9,0.5
		l-4.5,1.2L-30.1,321.8z"/>
	<path class="st5" d="M-88.8,277.5c1.6,6.6,7,18.6,12.2,28.3s13.3,12.1,13.3,12.1l36.3,7.4l2.8-16c0,0-31.5-8.3-34.1-9l-17-33.1"/>
	<path class="st4" d="M-87.6,262.5c0.2-0.1,0.4-0.2,0.7-0.3c0.6-0.2,1.3-0.4,2-0.5c1.1-0.1,2.2,0,3.3,0.3c1.4,0.4,2.7,1.1,3.8,2
		c2.9,2.4,5.2,5.5,6.7,8.9c1.8,3.8,3.8,7.9,5.9,12.3l7.1,14.9l-0.2-0.1l12.9,3.5l3.6,1l1,0.3c0.1,0,0.2,0.1,0.3,0.1
		c-0.1,0-0.2,0-0.3,0l-1-0.2l-3.7-0.9l-13-3.4h-0.1v-0.1c-2.1-4.4-4.6-9.5-7.2-14.9c-2.1-4.4-4.1-8.5-5.8-12.3
		c-1.5-3.4-3.7-6.4-6.5-8.8c-1.1-0.9-2.3-1.6-3.7-2c-1-0.3-2.1-0.4-3.2-0.4C-85.8,262.1-86.7,262.2-87.6,262.5z"/>
</g>
</svg>
