<?xml version="1.0" encoding="utf-8"?>
<!-- Generator: Adobe Illustrator 19.0.0, SVG Export Plug-In . SVG Version: 6.00 Build 0)  -->
<svg version="1.1" id="Layer_1" xmlns="http://www.w3.org/2000/svg" xmlns:xlink="http://www.w3.org/1999/xlink" x="0px" y="0px"
	 viewBox="-170 48.3 500 500" style="enable-background:new -170 48.3 500 500;" xml:space="preserve">
<style type="text/css">
	.st0{fill:#92E3A9;}
	.st1{opacity:0.16;fill:#006270;enable-background:new    ;}
	.st2{fill:#FFFFFF;stroke:#263238;stroke-linecap:round;stroke-linejoin:round;}
	.st3{fill:#006270;}
	.st4{opacity:0.5;fill:#FFFFFF;enable-background:new    ;}
	.st5{fill:#263238;stroke:#263238;stroke-linecap:round;stroke-linejoin:round;}
	.st6{fill:none;stroke:#263238;stroke-miterlimit:10;}
	.st7{fill:#FFFFFF;}
	.st8{clip-path:url(#SVGID_2_);}
	.st9{opacity:0.3;fill:#FFFFFF;enable-background:new    ;}
	.st10{fill:#263238;}
	.st11{fill:none;stroke:#263238;stroke-linecap:round;stroke-linejoin:round;}
	.st12{fill:#006270;stroke:#263238;stroke-linecap:round;stroke-linejoin:round;}
	.st13{fill:#006270;stroke:#263238;stroke-miterlimit:10;}
	.st14{fill:#263238;stroke:#263238;stroke-miterlimit:10;}
	.st15{fill:#FFFFFF;stroke:#263238;stroke-miterlimit:10;}
</style>
<g id="background-simple--inject-37">
	<path class="st0" d="M224.5,210.3c0,0,3.8-50.6-48.7-84.3S48.5,98.9-2.1,125.1S-45.2,211.2-62,249.6s-55.3,45-52.4,97.4
		c2.8,52.4,35.6,77.7,73,86.1s72.1-1.9,105.8,3.7s80.5,16.9,134.8-4.7s64.6-80.5,57.1-127.4S224.5,241.1,224.5,210.3z"/>
	<path class="st1" d="M224.5,210.3c0,0,3.8-50.6-48.7-84.3S48.5,98.9-2.1,125.1S-45.2,211.2-62,249.6s-55.3,45-52.4,97.4
		c2.8,52.4,35.6,77.7,73,86.1s72.1-1.9,105.8,3.7s80.5,16.9,134.8-4.7s64.6-80.5,57.1-127.4S224.5,241.1,224.5,210.3z"/>
</g>
<g id="Device--inject-37">
	<polygon class="st2" points="174.1,409.4 -18.7,409.4 -3.5,394.7 158.9,394.7 	"/>
	<path class="st3" d="M152.7,400.4c0,3-34.9,5.5-78,5.5s-78-2.5-78-5.5s34.9-5.5,78-5.5S152.7,397.4,152.7,400.4z"/>
	<path class="st4" d="M152.7,400.4c0,3-34.9,5.5-78,5.5s-78-2.5-78-5.5s34.9-5.5,78-5.5S152.7,397.4,152.7,400.4z"/>
	<rect x="-18.7" y="409.4" class="st5" width="192.8" height="13.6"/>
	<polygon class="st2" points="187.7,437.7 -32.3,437.7 -18.7,423 174.1,423 	"/>
	<rect x="-32.3" y="437.7" class="st5" width="220" height="14.3"/>
	<polyline class="st6" points="75.6,264.2 75.6,172.7 110.4,172.7 110.4,134.2 	"/>
	<line class="st6" x1="89.2" y1="172.3" x2="89.2" y2="134.2"/>
	<polyline class="st6" points="78.2,278.8 238.5,278.8 238.5,256 269.2,256 	"/>
	<polyline class="st6" points="70.3,278 -82.2,278 -82.2,253.6 -115.2,253.6 	"/>
	<polyline class="st6" points="44.4,109.8 44.4,144.4 24.7,144.4 24.7,166.4 49.1,166.4 49.1,240.3 	"/>
	<polyline class="st6" points="152.1,212 152.1,162.5 165.4,162.5 165.4,141.2 176.4,141.2 	"/>
	<polyline class="st6" points="-9.9,207.3 -9.9,169.5 -20.9,158.5 -20.9,131 	"/>
	<polyline class="st6" points="181.9,229.3 209.5,229.3 209.5,211.2 227.5,211.2 227.5,201 243.3,201 	"/>
	<polyline class="st6" points="-37.4,235.6 -66.4,235.6 -66.4,212.8 -107.3,212.8 	"/>
	<polyline class="st6" points="-10.6,359 -10.6,379.4 -24,379.4 -24,402.2 -62.5,402.2 	"/>
	<polyline class="st6" points="136.4,362.1 136.4,383.3 167,383.3 167,374.7 175.6,374.7 175.6,392.8 202.4,392.8 	"/>
	<path class="st5" d="M112.6,134.2c0,1.2-1,2.2-2.2,2.2c-1.2,0-2.2-1-2.2-2.2c0-1.2,1-2.2,2.2-2.2
		C111.6,131.9,112.7,132.9,112.6,134.2C112.7,134.2,112.6,134.2,112.6,134.2z"/>
	<path class="st5" d="M91.5,134.2c0,1.2-1,2.2-2.2,2.2c-1.2,0-2.2-1-2.2-2.2c0-1.2,1-2.2,2.2-2.2C90.5,131.9,91.5,132.9,91.5,134.2
		C91.5,134.2,91.5,134.2,91.5,134.2z"/>
	<path class="st5" d="M46.6,109.2c0,1.2-1,2.2-2.3,2.2c-1.2,0-2.3-1-2.2-2.3s1-2.2,2.3-2.2c0,0,0,0,0,0
		C45.6,106.9,46.6,107.9,46.6,109.2C46.6,109.1,46.6,109.1,46.6,109.2z"/>
	<path class="st5" d="M-18.6,129.9c0,1.2-1,2.2-2.2,2.2c-1.2,0-2.2-1-2.2-2.2c0-1.2,1-2.2,2.2-2.2
		C-19.6,127.6-18.6,128.6-18.6,129.9C-18.6,129.9-18.6,129.9-18.6,129.9z"/>
	<path class="st5" d="M-105.1,212.8c0,1.2-1,2.3-2.2,2.3s-2.3-1-2.3-2.2s1-2.3,2.2-2.3c0,0,0,0,0,0
		C-106.1,210.5-105.1,211.5-105.1,212.8L-105.1,212.8z"/>
	<path class="st5" d="M-112.9,253.6c0,1.2-1,2.3-2.3,2.3c-1.2,0-2.3-1-2.3-2.3s1-2.3,2.3-2.3l0,0
		C-113.9,251.3-112.9,252.3-112.9,253.6z"/>
	<path class="st5" d="M-60.1,401.8c0,1.2-1,2.3-2.3,2.2c-1.2,0-2.2-1-2.2-2.3c0-1.2,1-2.3,2.3-2.3c0,0,0,0,0,0
		C-61.1,399.5-60.1,400.5-60.1,401.8C-60.1,401.8-60.1,401.8-60.1,401.8z"/>
	<path class="st5" d="M205.8,392.3c0,1.2-1,2.3-2.2,2.3c-1.2,0-2.3-1-2.3-2.2c0-1.2,1-2.3,2.2-2.3c0,0,0,0,0,0
		C204.7,390.1,205.8,391.1,205.8,392.3C205.8,392.3,205.8,392.3,205.8,392.3z"/>
	<path class="st5" d="M272.6,255.6c0,1.2-1,2.2-2.2,2.2c-1.2,0-2.2-1-2.2-2.2c0-1.2,1-2.2,2.2-2.2l0,0
		C271.6,253.3,272.6,254.3,272.6,255.6z"/>
	<path class="st5" d="M246.5,200.5c0,1.2-1,2.2-2.2,2.2c-1.2,0-2.2-1-2.2-2.2c0-1.2,1-2.2,2.2-2.2l0,0
		C245.5,198.3,246.5,199.3,246.5,200.5z"/>
	<path class="st5" d="M180.1,141.2c0,1.2-1,2.2-2.2,2.2c-1.2,0-2.2-1-2.2-2.2s1-2.2,2.2-2.2l0,0
		C179.1,138.9,180.1,139.9,180.1,141.2z"/>
	<path class="st7" d="M104.9,378.8v-19.5H46.2v19.5c0,6.4-2.2,12.6-6.2,17.5l-2.6,3.2h76.3l-2.6-3.2
		C107.1,391.3,104.9,385.2,104.9,378.8z"/>
	<g>
		<defs>
			<path id="SVGID_1_" d="M104.9,378.8v-19.5H46.2v19.5c0,6.4-2.2,12.6-6.2,17.5l-2.6,3.2h76.3l-2.6-3.2
				C107.1,391.3,104.9,385.2,104.9,378.8z"/>
		</defs>
		<clipPath id="SVGID_2_">
			<use xlink:href="#SVGID_1_"  style="overflow:visible;"/>
		</clipPath>
		<g class="st8">
			<path class="st3" d="M42.6,392.4h65.9c-2.4-4.2-3.6-8.9-3.6-13.7v-19.5H46.2v19.5C46.2,383.6,45,388.3,42.6,392.4z"/>
			<path class="st9" d="M42.6,392.4h65.9c-2.4-4.2-3.6-8.9-3.6-13.7v-19.5H46.2v19.5C46.2,383.6,45,388.3,42.6,392.4z"/>
			<path class="st10" d="M42.6,371.9h65.9c-2.4-4.2-3.6-8.9-3.6-13.7v-19.5H46.2v19.5C46.2,363,45,367.7,42.6,371.9z"/>
		</g>
	</g>
	<path class="st11" d="M104.9,378.8v-19.5H46.2v19.5c0,6.4-2.2,12.6-6.2,17.5l-2.6,3.2h76.3l-2.6-3.2
		C107.1,391.3,104.9,385.2,104.9,378.8z"/>
	<path class="st5" d="M-33.9,192.3H185c4.7,0,8.5,3.8,8.5,8.5v156.2c0,4.7-3.8,8.5-8.5,8.5H-33.9c-4.7,0-8.5-3.8-8.5-8.5V200.8
		C-42.3,196.1-38.5,192.3-33.9,192.3z"/>
	<path class="st2" d="M-42.3,338.5h235.8l0,0v18.4c0,4.7-3.8,8.5-8.5,8.5c0,0,0,0,0,0H-33.9c-4.7,0-8.5-3.8-8.5-8.5l0,0V338.5
		L-42.3,338.5z"/>
	<rect x="-30.5" y="203.1" class="st2" width="212.1" height="122.3"/>
	<path class="st5" d="M79.9,356.3c0-2.4-1.9-4.4-4.3-4.4c-2.4,0-4.4,1.9-4.4,4.3c0,2.4,1.9,4.4,4.3,4.4c0,0,0.1,0,0.1,0
		C78,360.6,79.9,358.7,79.9,356.3z"/>
	<rect x="37.4" y="399.5" class="st2" width="76.3" height="3.5"/>
	<path class="st12" d="M75.9,196.7c-10.7,10-38,20-69.8,41.3c0,0,2,72,69.8,111.3V196.7z"/>
	<path class="st5" d="M75.9,196.7c10.7,10,38,20,69.8,41.3c0,0-2,72-69.8,111.3V196.7z"/>
	<path class="st5" d="M75.9,202.8C63,211.8,40.7,220.3,11.2,240c0,0,1.9,66.7,64.7,103.2c62.8-36.5,64.7-103.2,64.7-103.2
		C111.1,220.3,88.9,211.8,75.9,202.8z"/>
	<path class="st12" d="M140.6,240c-29.5-19.7-51.7-28.3-64.7-37.2v140.3C138.8,306.7,140.6,240,140.6,240z"/>
	<rect x="-43.1" y="275.3" class="st5" width="237.3" height="15.4"/>
	<path class="st7" d="M-38.4,277.8c0,0.9-0.7,1.6-1.6,1.6c-0.9,0-1.6-0.7-1.6-1.6s0.7-1.6,1.6-1.6c0,0,0,0,0,0
		C-39.1,276.2-38.4,276.9-38.4,277.8C-38.4,277.8-38.4,277.8-38.4,277.8z"/>
	<path class="st10" d="M-40.9,278.6c0.5,0.5,1.3,0.5,1.8,0c0.2-0.2,0.4-0.6,0.4-0.9c0-0.3-0.1-0.6-0.3-0.8
		C-39.7,277.5-40.3,278-40.9,278.6z"/>
	<path class="st7" d="M-32.1,277.8c0,0.9-0.7,1.6-1.6,1.6s-1.6-0.7-1.6-1.6c0-0.9,0.7-1.6,1.6-1.6c0,0,0,0,0,0
		C-32.9,276.2-32.2,276.9-32.1,277.8C-32.1,277.8-32.1,277.8-32.1,277.8z"/>
	<path class="st10" d="M-34.7,278.6c0.5,0.5,1.3,0.5,1.8,0c0.2-0.2,0.4-0.6,0.4-0.9c0-0.3-0.1-0.6-0.3-0.8
		C-33.4,277.5-34.1,278-34.7,278.6z"/>
	<path class="st7" d="M-25.9,277.8c-0.1,0.9-0.8,1.5-1.7,1.5c-0.8-0.1-1.4-0.7-1.5-1.5c0.1-0.9,0.8-1.5,1.7-1.5
		C-26.6,276.4-26,277-25.9,277.8z"/>
	<path class="st10" d="M-28.4,278.6c0.2,0.2,0.6,0.4,0.9,0.4c0.7,0,1.3-0.6,1.3-1.2c0,0,0,0,0,0c0-0.3-0.1-0.6-0.3-0.8
		C-27.2,277.5-27.8,278-28.4,278.6z"/>
	<path class="st7" d="M-19.7,277.8c0,0.9-0.7,1.6-1.6,1.6c-0.9,0-1.6-0.7-1.6-1.6s0.7-1.6,1.6-1.6c0,0,0,0,0,0
		C-20.4,276.2-19.7,276.9-19.7,277.8C-19.7,277.8-19.7,277.8-19.7,277.8z"/>
	<path class="st10" d="M-22.2,278.6c0.5,0.5,1.3,0.5,1.8,0c0.2-0.2,0.4-0.6,0.4-0.9c0-0.3-0.1-0.6-0.3-0.8
		C-21,277.5-21.6,278-22.2,278.6z"/>
	<path class="st7" d="M-13.5,277.8c0,0.9-0.7,1.6-1.6,1.6c-0.9,0-1.6-0.7-1.6-1.6s0.7-1.6,1.6-1.6c0,0,0,0,0,0
		C-14.2,276.2-13.5,276.9-13.5,277.8C-13.5,277.8-13.5,277.8-13.5,277.8z"/>
	<path class="st10" d="M-16,278.6c0.2,0.2,0.6,0.4,0.9,0.4c0.7,0,1.3-0.5,1.3-1.2c0,0,0,0,0,0c0-0.3-0.1-0.6-0.3-0.8
		C-14.8,277.5-15.4,278-16,278.6z"/>
	<path class="st7" d="M-7.2,277.8c0,0.9-0.7,1.6-1.6,1.6c-0.9,0-1.6-0.7-1.6-1.6s0.7-1.6,1.6-1.6c0,0,0,0,0,0
		C-8,276.2-7.2,276.9-7.2,277.8C-7.2,277.8-7.2,277.8-7.2,277.8z"/>
	<path class="st10" d="M-9.7,278.6c0.5,0.5,1.3,0.5,1.8,0c0.2-0.2,0.4-0.6,0.4-0.9c0-0.3-0.1-0.6-0.3-0.8
		C-8.5,277.5-9.1,278-9.7,278.6z"/>
	<path class="st7" d="M-1,277.8c0,0.9-0.7,1.6-1.6,1.6s-1.6-0.7-1.6-1.6c0-0.9,0.7-1.6,1.6-1.6c0,0,0,0,0,0
		C-1.7,276.2-1,276.9-1,277.8C-1,277.8-1,277.8-1,277.8z"/>
	<path class="st10" d="M-3.5,278.6c0.5,0.5,1.3,0.5,1.8,0c0.2-0.2,0.4-0.6,0.4-0.9c0-0.3-0.1-0.6-0.3-0.8
		C-2.3,277.5-2.9,278-3.5,278.6z"/>
	<path class="st7" d="M5.2,277.8c0,0.9-0.7,1.6-1.6,1.6c-0.9,0-1.6-0.7-1.6-1.6s0.7-1.6,1.6-1.6c0,0,0,0,0,0
		C4.5,276.2,5.2,276.9,5.2,277.8C5.2,277.8,5.2,277.8,5.2,277.8z"/>
	<path class="st10" d="M2.7,278.6c0.2,0.2,0.6,0.4,0.9,0.4c0.7,0,1.3-0.6,1.3-1.2c0,0,0,0,0,0c0-0.3-0.1-0.6-0.3-0.8
		C3.9,277.5,3.3,278,2.7,278.6z"/>
	<path class="st7" d="M11.5,277.8c0,0.9-0.7,1.6-1.6,1.6c-0.9,0-1.6-0.7-1.6-1.6s0.7-1.6,1.6-1.6c0,0,0,0,0,0
		C10.7,276.2,11.5,276.9,11.5,277.8C11.5,277.8,11.5,277.8,11.5,277.8z"/>
	<path class="st10" d="M9,278.6c0.5,0.5,1.3,0.5,1.8,0c0.2-0.2,0.4-0.6,0.4-0.9c0-0.3-0.1-0.6-0.3-0.8C10.2,277.5,9.6,278,9,278.6z"
		/>
	<path class="st7" d="M17.7,277.8c0,0.9-0.7,1.6-1.6,1.6c-0.9,0-1.6-0.7-1.6-1.6s0.7-1.6,1.6-1.6c0,0,0,0,0,0
		C17,276.2,17.7,276.9,17.7,277.8C17.7,277.8,17.7,277.8,17.7,277.8z"/>
	<path class="st10" d="M15.2,278.6c0.2,0.2,0.6,0.4,0.9,0.4c0.7,0,1.3-0.5,1.3-1.2c0,0,0,0,0,0c0-0.3-0.1-0.6-0.3-0.8
		C16.4,277.5,15.8,278,15.2,278.6z"/>
	<path class="st7" d="M23.9,277.8c0,0.9-0.7,1.6-1.6,1.6c-0.9,0-1.6-0.7-1.6-1.6s0.7-1.6,1.6-1.6c0,0,0,0,0,0
		C23.2,276.2,23.9,276.9,23.9,277.8C23.9,277.8,23.9,277.8,23.9,277.8z"/>
	<path class="st10" d="M21.4,278.6c0.5,0.5,1.3,0.5,1.8,0c0.2-0.2,0.4-0.6,0.4-0.9c0-0.3-0.1-0.6-0.3-0.8
		C22.6,277.5,22,278,21.4,278.6z"/>
	<path class="st7" d="M30.2,277.8c0,0.9-0.7,1.6-1.6,1.6s-1.6-0.7-1.6-1.6c0-0.9,0.7-1.6,1.6-1.6c0,0,0,0,0,0
		C29.4,276.2,30.2,276.9,30.2,277.8C30.2,277.8,30.2,277.8,30.2,277.8z"/>
	<path class="st10" d="M27.7,278.6c0.5,0.5,1.3,0.5,1.8,0c0.2-0.2,0.4-0.6,0.4-0.9c0-0.3-0.1-0.6-0.3-0.8
		C28.9,277.5,28.2,278,27.7,278.6z"/>
	<path class="st7" d="M36.4,277.8c0,0.9-0.7,1.6-1.6,1.6c-0.9,0-1.6-0.7-1.6-1.6s0.7-1.6,1.6-1.6c0,0,0,0,0,0
		C35.7,276.2,36.4,276.9,36.4,277.8C36.4,277.8,36.4,277.8,36.4,277.8z"/>
	<path class="st10" d="M33.9,278.6c0.5,0.5,1.3,0.5,1.8,0c0.2-0.2,0.4-0.6,0.4-0.9c0-0.3-0.1-0.6-0.3-0.8
		C35.1,277.5,34.5,278,33.9,278.6z"/>
	<path class="st7" d="M42.6,277.8c0,0.9-0.7,1.6-1.6,1.6c-0.9,0-1.6-0.7-1.6-1.6s0.7-1.6,1.6-1.6c0,0,0,0,0,0
		C41.9,276.2,42.6,276.9,42.6,277.8C42.6,277.8,42.6,277.8,42.6,277.8z"/>
	<path class="st10" d="M40.1,278.6c0.2,0.2,0.6,0.4,0.9,0.4c0.7,0,1.3-0.5,1.3-1.2c0,0,0,0,0,0c0-0.3-0.1-0.6-0.3-0.8
		C41.3,277.5,40.7,278,40.1,278.6z"/>
	<path class="st7" d="M-38.4,287.7c0,0.9-0.7,1.6-1.5,1.6c-0.9,0-1.6-0.7-1.6-1.5c0-0.9,0.7-1.6,1.5-1.6c0,0,0,0,0,0
		C-39.1,286.1-38.4,286.8-38.4,287.7C-38.4,287.7-38.4,287.7-38.4,287.7z"/>
	<path class="st10" d="M-40.9,288.6c0.2,0.2,0.6,0.4,0.9,0.4c0.7,0,1.3-0.6,1.3-1.3c0,0,0,0,0,0c0-0.3-0.1-0.6-0.3-0.8
		C-39.7,287.4-40.3,288-40.9,288.6z"/>
	<path class="st7" d="M-32.1,287.7c0,0.9-0.7,1.6-1.5,1.6s-1.6-0.7-1.6-1.5c0-0.9,0.7-1.6,1.5-1.6c0,0,0,0,0,0
		C-32.9,286.1-32.2,286.8-32.1,287.7z"/>
	<path class="st10" d="M-34.7,288.6c0.2,0.2,0.6,0.4,0.9,0.4c0.7,0,1.3-0.6,1.3-1.3c0,0,0,0,0,0c0-0.3-0.1-0.6-0.3-0.8
		C-33.4,287.4-34.1,288-34.7,288.6z"/>
	<path class="st7" d="M-25.9,287.7c0,0.9-0.7,1.6-1.5,1.6s-1.6-0.7-1.6-1.5c0-0.9,0.7-1.6,1.5-1.6c0,0,0,0,0.1,0
		C-26.6,286.1-25.9,286.8-25.9,287.7C-25.9,287.7-25.9,287.7-25.9,287.7z"/>
	<path class="st10" d="M-28.4,288.6c0.5,0.5,1.3,0.5,1.8,0c0.3-0.2,0.4-0.6,0.4-0.9c0-0.3-0.1-0.6-0.3-0.8
		C-27.2,287.4-27.8,288-28.4,288.6z"/>
	<path class="st7" d="M-19.7,287.7c0,0.9-0.7,1.6-1.5,1.6c-0.9,0-1.6-0.7-1.6-1.5c0-0.9,0.7-1.6,1.5-1.6c0,0,0,0,0,0
		C-20.4,286.1-19.7,286.8-19.7,287.7C-19.7,287.7-19.7,287.7-19.7,287.7z"/>
	<path class="st10" d="M-22.2,288.6c0.5,0.5,1.3,0.5,1.8,0c0.2-0.2,0.4-0.6,0.4-0.9c0-0.3-0.1-0.6-0.3-0.8
		C-21,287.4-21.6,288-22.2,288.6z"/>
	<path class="st7" d="M-13.5,287.7c0,0.9-0.7,1.6-1.5,1.6c-0.9,0-1.6-0.7-1.6-1.5c0-0.9,0.7-1.6,1.5-1.6c0,0,0,0,0,0
		C-14.2,286.1-13.5,286.8-13.5,287.7C-13.5,287.7-13.5,287.7-13.5,287.7z"/>
	<path class="st10" d="M-16,288.6c0.2,0.2,0.6,0.4,0.9,0.4c0.7,0,1.3-0.6,1.3-1.3c0,0,0,0,0,0c0-0.3-0.1-0.6-0.3-0.8
		C-14.8,287.4-15.4,288-16,288.6z"/>
	<path class="st7" d="M-7.2,287.7c0,0.9-0.7,1.6-1.5,1.6c-0.9,0-1.6-0.7-1.6-1.5c0-0.9,0.7-1.6,1.5-1.6c0,0,0,0,0,0
		C-8,286.1-7.2,286.8-7.2,287.7C-7.2,287.7-7.2,287.7-7.2,287.7z"/>
	<path class="st10" d="M-9.7,288.6c0.2,0.2,0.6,0.4,0.9,0.4c0.7,0,1.3-0.6,1.3-1.3c0,0,0,0,0,0c0-0.3-0.1-0.6-0.3-0.8
		C-8.5,287.4-9.1,288-9.7,288.6z"/>
	<path class="st7" d="M-1,287.7c0,0.9-0.7,1.6-1.5,1.6s-1.6-0.7-1.6-1.5c0-0.9,0.7-1.6,1.5-1.6c0,0,0,0,0,0
		C-1.7,286.1-1,286.8-1,287.7z"/>
	<path class="st10" d="M-3.5,288.6c0.2,0.2,0.6,0.4,0.9,0.4c0.7,0,1.3-0.6,1.3-1.3c0,0,0,0,0,0c0-0.3-0.1-0.6-0.3-0.8
		C-2.3,287.4-2.9,288-3.5,288.6z"/>
	<path class="st7" d="M5.2,287.7c0,0.9-0.7,1.6-1.5,1.6c-0.9,0-1.6-0.7-1.6-1.5c0-0.9,0.7-1.6,1.5-1.6c0,0,0,0,0,0
		C4.5,286.1,5.2,286.8,5.2,287.7C5.2,287.7,5.2,287.7,5.2,287.7z"/>
	<path class="st10" d="M2.7,288.6c0.5,0.5,1.3,0.5,1.8,0c0.3-0.2,0.4-0.6,0.4-0.9c0-0.3-0.1-0.6-0.3-0.8
		C3.9,287.4,3.3,288,2.7,288.6z"/>
	<path class="st7" d="M11.5,287.7c0,0.9-0.7,1.6-1.5,1.6c-0.9,0-1.6-0.7-1.6-1.5c0-0.9,0.7-1.6,1.5-1.6c0,0,0,0,0,0
		C10.7,286.1,11.5,286.8,11.5,287.7C11.5,287.7,11.5,287.7,11.5,287.7z"/>
	<path class="st10" d="M9,288.6c0.5,0.5,1.3,0.5,1.8,0c0.2-0.2,0.4-0.6,0.4-0.9c0-0.3-0.1-0.6-0.3-0.8C10.2,287.4,9.6,288,9,288.6z"
		/>
	<path class="st7" d="M17.7,287.7c0,0.9-0.7,1.6-1.5,1.6c-0.9,0-1.6-0.7-1.6-1.5c0-0.9,0.7-1.6,1.5-1.6c0,0,0,0,0,0
		C17,286.1,17.7,286.8,17.7,287.7C17.7,287.7,17.7,287.7,17.7,287.7z"/>
	<path class="st10" d="M15.2,288.6c0.2,0.2,0.6,0.4,0.9,0.4c0.7,0,1.3-0.6,1.3-1.3c0,0,0,0,0,0c0-0.3-0.1-0.6-0.3-0.8
		C16.4,287.4,15.8,288,15.2,288.6z"/>
	<path class="st7" d="M23.9,287.7c0,0.9-0.7,1.6-1.5,1.6c-0.9,0-1.6-0.7-1.6-1.5c0-0.9,0.7-1.6,1.5-1.6c0,0,0,0,0,0
		C23.2,286.1,23.9,286.8,23.9,287.7C23.9,287.7,23.9,287.7,23.9,287.7z"/>
	<path class="st10" d="M21.4,288.6c0.2,0.2,0.6,0.4,0.9,0.4c0.7,0,1.3-0.6,1.3-1.3c0,0,0,0,0,0c0-0.3-0.1-0.6-0.3-0.8
		C22.6,287.4,22,288,21.4,288.6z"/>
	<path class="st7" d="M30.2,287.7c0,0.9-0.7,1.6-1.5,1.6s-1.6-0.7-1.6-1.5c0-0.9,0.7-1.6,1.5-1.6c0,0,0,0,0.1,0
		C29.4,286.1,30.2,286.8,30.2,287.7C30.2,287.7,30.2,287.7,30.2,287.7z"/>
	<path class="st10" d="M27.7,288.6c0.5,0.5,1.3,0.5,1.8,0c0.3-0.2,0.4-0.6,0.4-0.9c0-0.3-0.1-0.6-0.3-0.8
		C28.9,287.4,28.2,288,27.7,288.6z"/>
	<path class="st7" d="M36.4,287.7c0,0.9-0.7,1.6-1.5,1.6c-0.9,0-1.6-0.7-1.6-1.5c0-0.9,0.7-1.6,1.5-1.6c0,0,0,0,0,0
		C35.7,286.1,36.4,286.8,36.4,287.7C36.4,287.7,36.4,287.7,36.4,287.7z"/>
	<path class="st10" d="M33.9,288.6c0.5,0.5,1.3,0.5,1.8,0c0.2-0.2,0.4-0.6,0.4-0.9c0-0.3-0.1-0.6-0.3-0.8
		C35.1,287.4,34.5,288,33.9,288.6z"/>
	<path class="st7" d="M42.6,287.7c0,0.9-0.7,1.6-1.5,1.6c-0.9,0-1.6-0.7-1.6-1.5c0-0.9,0.7-1.6,1.5-1.6c0,0,0,0,0,0
		C41.9,286.1,42.6,286.8,42.6,287.7C42.6,287.7,42.6,287.7,42.6,287.7z"/>
	<path class="st10" d="M40.1,288.6c0.2,0.2,0.6,0.4,0.9,0.4c0.7,0,1.3-0.6,1.3-1.3c0,0,0,0,0,0c0-0.3-0.1-0.6-0.3-0.8
		C41.3,287.4,40.7,288,40.1,288.6z"/>
	<path class="st7" d="M111.7,277.8c0,0.9-0.7,1.6-1.6,1.6c-0.9,0-1.6-0.7-1.6-1.6s0.7-1.6,1.6-1.6c0,0,0,0,0,0
		C111,276.2,111.7,276.9,111.7,277.8C111.7,277.8,111.7,277.8,111.7,277.8z"/>
	<path class="st10" d="M109.2,278.6c0.5,0.5,1.3,0.5,1.8,0c0.2-0.2,0.4-0.6,0.4-0.9c0-0.3-0.1-0.6-0.3-0.8
		C110.4,277.5,109.8,278,109.2,278.6z"/>
	<path class="st7" d="M117.9,277.8c0,0.9-0.7,1.6-1.6,1.6c-0.9,0-1.6-0.7-1.6-1.6c0-0.9,0.7-1.6,1.6-1.6c0,0,0,0,0,0
		C117.2,276.2,117.9,276.9,117.9,277.8C117.9,277.8,117.9,277.8,117.9,277.8z"/>
	<path class="st10" d="M115.4,278.6c0.5,0.5,1.3,0.5,1.8,0c0.2-0.2,0.4-0.6,0.4-0.9c0-0.3-0.1-0.6-0.3-0.8
		C116.6,277.5,116,278,115.4,278.6z"/>
	<path class="st7" d="M124.1,277.8c0,0.9-0.7,1.6-1.6,1.6c-0.9,0-1.6-0.7-1.6-1.6s0.7-1.6,1.6-1.6c0,0,0,0,0,0
		C123.4,276.2,124.1,276.9,124.1,277.8C124.1,277.8,124.1,277.8,124.1,277.8z"/>
	<path class="st10" d="M121.6,278.6c0.5,0.5,1.3,0.5,1.8,0c0.2-0.2,0.4-0.6,0.4-0.9c0-0.3-0.1-0.6-0.3-0.8
		C122.9,277.5,122.2,278,121.6,278.6z"/>
	<path class="st7" d="M130.4,277.8c0,0.9-0.7,1.6-1.6,1.6c-0.9,0-1.6-0.7-1.6-1.6s0.7-1.6,1.6-1.6c0,0,0,0,0,0
		C129.7,276.2,130.4,276.9,130.4,277.8C130.4,277.8,130.4,277.8,130.4,277.8z"/>
	<path class="st10" d="M127.9,278.6c0.2,0.2,0.6,0.4,0.9,0.4c0.7,0,1.3-0.5,1.3-1.2c0,0,0,0,0,0c0-0.3-0.1-0.6-0.3-0.8
		C129.1,277.5,128.5,278,127.9,278.6z"/>
	<path class="st7" d="M136.6,277.8c0,0.9-0.7,1.6-1.6,1.6c-0.9,0-1.6-0.7-1.6-1.6s0.7-1.6,1.6-1.6c0,0,0,0,0,0
		C135.9,276.2,136.6,276.9,136.6,277.8C136.6,277.8,136.6,277.8,136.6,277.8z"/>
	<path class="st10" d="M134.1,278.6c0.5,0.5,1.3,0.5,1.8,0c0.2-0.2,0.4-0.6,0.4-0.9c0-0.3-0.1-0.6-0.3-0.8
		C135.3,277.5,134.7,278,134.1,278.6z"/>
	<path class="st7" d="M142.9,277.8c0,0.9-0.7,1.6-1.6,1.6c-0.9,0-1.6-0.7-1.6-1.6c0-0.9,0.7-1.6,1.6-1.6c0,0,0,0,0,0
		C142.1,276.2,142.8,276.9,142.9,277.8C142.9,277.8,142.9,277.8,142.9,277.8z"/>
	<path class="st10" d="M140.3,278.6c0.5,0.5,1.3,0.5,1.8,0c0.2-0.2,0.4-0.6,0.4-0.9c0-0.3-0.1-0.6-0.3-0.8
		C141.6,277.5,140.9,278,140.3,278.6z"/>
	<path class="st7" d="M149.1,277.8c0,0.9-0.7,1.6-1.6,1.6c-0.9,0-1.6-0.7-1.6-1.6c0-0.9,0.7-1.6,1.6-1.6c0,0,0,0,0,0
		C148.4,276.2,149.1,276.9,149.1,277.8C149.1,277.8,149.1,277.8,149.1,277.8z"/>
	<path class="st10" d="M146.6,278.6c0.5,0.5,1.3,0.5,1.8,0c0.2-0.2,0.4-0.6,0.4-0.9c0-0.3-0.1-0.6-0.3-0.8
		C147.8,277.5,147.2,278,146.6,278.6z"/>
	<path class="st7" d="M155.3,277.8c0,0.9-0.7,1.6-1.6,1.6c-0.9,0-1.6-0.7-1.6-1.6s0.7-1.6,1.6-1.6c0,0,0,0,0,0
		C154.6,276.2,155.3,276.9,155.3,277.8C155.3,277.8,155.3,277.8,155.3,277.8z"/>
	<path class="st10" d="M152.8,278.6c0.5,0.5,1.3,0.5,1.8,0c0.2-0.2,0.4-0.6,0.4-0.9c0-0.3-0.1-0.6-0.3-0.8
		C154,277.5,153.4,278,152.8,278.6z"/>
	<path class="st7" d="M161.5,277.8c0,0.9-0.7,1.6-1.6,1.6c-0.9,0-1.6-0.7-1.6-1.6s0.7-1.6,1.6-1.6c0,0,0,0,0,0
		C160.8,276.2,161.5,276.9,161.5,277.8C161.5,277.8,161.5,277.8,161.5,277.8z"/>
	<path class="st10" d="M159,278.6c0.2,0.2,0.6,0.4,0.9,0.4c0.7,0,1.3-0.5,1.3-1.2c0,0,0,0,0,0c0-0.3-0.1-0.6-0.3-0.8
		C160.2,277.5,159.6,278,159,278.6z"/>
	<path class="st7" d="M167.8,277.8c0,0.9-0.7,1.6-1.6,1.6c-0.9,0-1.6-0.7-1.6-1.6s0.7-1.6,1.6-1.6c0,0,0,0,0,0
		C167,276.2,167.8,276.9,167.8,277.8C167.8,277.8,167.8,277.8,167.8,277.8z"/>
	<path class="st10" d="M165.3,278.6c0.5,0.5,1.3,0.5,1.8,0c0.2-0.2,0.4-0.6,0.4-0.9c0-0.3-0.1-0.6-0.3-0.8
		C166.5,277.5,165.9,278,165.3,278.6z"/>
	<path class="st7" d="M174,277.8c0,0.9-0.7,1.6-1.6,1.6c-0.9,0-1.6-0.7-1.6-1.6c0-0.9,0.7-1.6,1.6-1.6c0,0,0,0,0,0
		C173.3,276.2,174,276.9,174,277.8C174,277.8,174,277.8,174,277.8z"/>
	<path class="st10" d="M171.5,278.6c0.5,0.5,1.3,0.5,1.8,0c0.2-0.2,0.4-0.6,0.4-0.9c0-0.3-0.1-0.6-0.3-0.8
		C172.7,277.5,172.1,278,171.5,278.6z"/>
	<path class="st7" d="M180.2,277.8c0,0.9-0.7,1.6-1.6,1.6c-0.9,0-1.6-0.7-1.6-1.6s0.7-1.6,1.6-1.6c0,0,0,0,0,0
		C179.5,276.2,180.2,276.9,180.2,277.8C180.2,277.8,180.2,277.8,180.2,277.8z"/>
	<path class="st10" d="M177.7,278.6c0.2,0.2,0.6,0.4,0.9,0.4c0.7,0,1.3-0.6,1.3-1.2c0,0,0,0,0,0c0-0.3-0.1-0.6-0.3-0.8
		C178.9,277.5,178.3,278,177.7,278.6z"/>
	<path class="st7" d="M186.5,277.8c0,0.9-0.7,1.6-1.6,1.6c-0.9,0-1.6-0.7-1.6-1.6s0.7-1.6,1.6-1.6c0,0,0,0,0,0
		C185.7,276.2,186.5,276.9,186.5,277.8C186.5,277.8,186.5,277.8,186.5,277.8z"/>
	<path class="st10" d="M184,278.6c0.5,0.5,1.3,0.5,1.8,0c0.2-0.2,0.4-0.6,0.4-0.9c0-0.3-0.1-0.6-0.3-0.8
		C185.2,277.5,184.6,278,184,278.6z"/>
	<path class="st7" d="M192.7,277.8c0,0.9-0.7,1.6-1.6,1.6c-0.9,0-1.6-0.7-1.6-1.6s0.7-1.6,1.6-1.6c0,0,0,0,0,0
		C192,276.2,192.7,276.9,192.7,277.8C192.7,277.8,192.7,277.8,192.7,277.8z"/>
	<path class="st10" d="M190.2,278.6c0.2,0.2,0.6,0.4,0.9,0.4c0.7,0,1.3-0.5,1.3-1.2c0,0,0,0,0,0c0-0.3-0.1-0.6-0.3-0.8
		C191.4,277.5,190.8,278,190.2,278.6z"/>
	<path class="st7" d="M111.7,287.7c0,0.9-0.7,1.6-1.5,1.6c-0.9,0-1.6-0.7-1.6-1.5c0-0.9,0.7-1.6,1.5-1.6c0,0,0,0,0,0
		C111,286.1,111.7,286.8,111.7,287.7C111.7,287.7,111.7,287.7,111.7,287.7z"/>
	<path class="st10" d="M109.2,288.6c0.2,0.2,0.6,0.4,0.9,0.4c0.7,0,1.3-0.6,1.3-1.3c0,0,0,0,0,0c0-0.3-0.1-0.6-0.3-0.8
		C110.4,287.4,109.8,288,109.2,288.6z"/>
	<path class="st7" d="M117.9,287.7c0,0.9-0.7,1.6-1.5,1.6c-0.9,0-1.6-0.7-1.6-1.5c0-0.9,0.7-1.6,1.5-1.6c0,0,0,0,0.1,0
		C117.2,286.1,117.9,286.8,117.9,287.7C117.9,287.7,117.9,287.7,117.9,287.7z"/>
	<path class="st10" d="M115.4,288.6c0.5,0.5,1.3,0.5,1.8,0c0.3-0.2,0.4-0.6,0.4-0.9c0-0.3-0.1-0.6-0.3-0.8
		C116.6,287.4,116,288,115.4,288.6z"/>
	<path class="st7" d="M124.1,287.7c0,0.9-0.7,1.6-1.5,1.6c-0.9,0-1.6-0.7-1.6-1.5c0-0.9,0.7-1.6,1.5-1.6c0,0,0,0,0,0
		C123.4,286.1,124.1,286.8,124.1,287.7C124.1,287.7,124.1,287.7,124.1,287.7z"/>
	<path class="st10" d="M121.6,288.6c0.5,0.5,1.3,0.5,1.8,0c0.2-0.2,0.4-0.6,0.4-0.9c0-0.3-0.1-0.6-0.3-0.8
		C122.9,287.4,122.2,288,121.6,288.6z"/>
	<path class="st7" d="M130.4,287.7c0,0.9-0.7,1.6-1.5,1.6c-0.9,0-1.6-0.7-1.6-1.5c0-0.9,0.7-1.6,1.5-1.6c0,0,0,0,0,0
		C129.7,286.1,130.4,286.8,130.4,287.7C130.4,287.7,130.4,287.7,130.4,287.7z"/>
	<path class="st10" d="M127.9,288.6c0.2,0.2,0.6,0.4,0.9,0.4c0.7,0,1.3-0.6,1.3-1.3c0,0,0,0,0,0c0-0.3-0.1-0.6-0.3-0.8
		C129.1,287.4,128.5,288,127.9,288.6z"/>
	<path class="st7" d="M136.6,287.7c0,0.9-0.7,1.6-1.5,1.6c-0.9,0-1.6-0.7-1.6-1.5c0-0.9,0.7-1.6,1.5-1.6c0,0,0,0,0,0
		C135.9,286.1,136.6,286.8,136.6,287.7C136.6,287.7,136.6,287.7,136.6,287.7z"/>
	<path class="st10" d="M134.1,288.6c0.2,0.2,0.6,0.4,0.9,0.4c0.7,0,1.3-0.6,1.3-1.3c0,0,0,0,0,0c0-0.3-0.1-0.6-0.3-0.8
		C135.3,287.4,134.7,288,134.1,288.6z"/>
	<path class="st7" d="M142.9,287.7c0,0.9-0.7,1.6-1.5,1.6c-0.9,0-1.6-0.7-1.6-1.5c0-0.9,0.7-1.6,1.5-1.6c0,0,0,0,0,0
		C142.1,286.1,142.8,286.8,142.9,287.7z"/>
	<path class="st10" d="M140.3,288.6c0.2,0.2,0.6,0.4,0.9,0.4c0.7,0,1.3-0.6,1.3-1.3c0,0,0,0,0,0c0-0.3-0.1-0.6-0.3-0.8
		C141.6,287.4,140.9,288,140.3,288.6z"/>
	<path class="st7" d="M149.1,287.7c0,0.9-0.7,1.6-1.5,1.6c-0.9,0-1.6-0.7-1.6-1.5c0-0.9,0.7-1.6,1.5-1.6c0,0,0,0,0.1,0
		C148.4,286.1,149.1,286.8,149.1,287.7C149.1,287.7,149.1,287.7,149.1,287.7z"/>
	<path class="st10" d="M146.6,288.6c0.5,0.5,1.3,0.5,1.8,0c0.3-0.2,0.4-0.6,0.4-0.9c0-0.3-0.1-0.6-0.3-0.8
		C147.8,287.4,147.2,288,146.6,288.6z"/>
	<path class="st7" d="M155.3,287.7c0,0.9-0.7,1.6-1.5,1.6c-0.9,0-1.6-0.7-1.6-1.5c0-0.9,0.7-1.6,1.5-1.6c0,0,0,0,0,0
		C154.6,286.1,155.3,286.8,155.3,287.7C155.3,287.7,155.3,287.7,155.3,287.7z"/>
	<path class="st10" d="M152.8,288.6c0.5,0.5,1.3,0.5,1.8,0c0.2-0.2,0.4-0.6,0.4-0.9c0-0.3-0.1-0.6-0.3-0.8
		C154,287.4,153.4,288,152.8,288.6z"/>
	<path class="st7" d="M161.5,287.7c0,0.9-0.7,1.6-1.5,1.6c-0.9,0-1.6-0.7-1.6-1.5c0-0.9,0.7-1.6,1.5-1.6c0,0,0,0,0,0
		C160.8,286.1,161.5,286.8,161.5,287.7C161.5,287.7,161.5,287.7,161.5,287.7z"/>
	<path class="st10" d="M159,288.6c0.2,0.2,0.6,0.4,0.9,0.4c0.7,0,1.3-0.6,1.3-1.3c0,0,0,0,0,0c0-0.3-0.1-0.6-0.3-0.8
		C160.2,287.4,159.6,288,159,288.6z"/>
	<path class="st7" d="M167.8,287.7c0,0.9-0.7,1.6-1.5,1.6c-0.9,0-1.6-0.7-1.6-1.5c0-0.9,0.7-1.6,1.5-1.6c0,0,0,0,0,0
		C167,286.1,167.8,286.8,167.8,287.7C167.8,287.7,167.8,287.7,167.8,287.7z"/>
	<path class="st10" d="M165.3,288.6c0.2,0.2,0.6,0.4,0.9,0.4c0.7,0,1.3-0.6,1.3-1.3c0,0,0,0,0,0c0-0.3-0.1-0.6-0.3-0.8
		C166.5,287.4,165.9,288,165.3,288.6z"/>
	<path class="st7" d="M174,287.7c0,0.9-0.7,1.6-1.5,1.6c-0.9,0-1.6-0.7-1.6-1.5c0-0.9,0.7-1.6,1.5-1.6c0,0,0,0,0,0
		C173.3,286.1,174,286.8,174,287.7z"/>
	<path class="st10" d="M171.5,288.6c0.2,0.2,0.6,0.4,0.9,0.4c0.7,0,1.3-0.6,1.3-1.3c0,0,0,0,0,0c0-0.3-0.1-0.6-0.3-0.8
		C172.7,287.4,172.1,288,171.5,288.6z"/>
	<path class="st7" d="M180.2,287.7c0,0.9-0.7,1.6-1.5,1.6c-0.9,0-1.6-0.7-1.6-1.5c0-0.9,0.7-1.6,1.5-1.6c0,0,0,0,0,0
		C179.5,286.1,180.2,286.8,180.2,287.7C180.2,287.7,180.2,287.7,180.2,287.7z"/>
	<path class="st10" d="M177.7,288.6c0.5,0.5,1.3,0.5,1.8,0c0.3-0.2,0.4-0.6,0.4-0.9c0-0.3-0.1-0.6-0.3-0.8
		C178.9,287.4,178.3,288,177.7,288.6z"/>
	<path class="st7" d="M186.5,287.7c0,0.9-0.7,1.6-1.5,1.6c-0.9,0-1.6-0.7-1.6-1.5c0-0.9,0.7-1.6,1.5-1.6c0,0,0,0,0,0
		C185.7,286.1,186.5,286.8,186.5,287.7C186.5,287.7,186.5,287.7,186.5,287.7z"/>
	<path class="st10" d="M184,288.6c0.5,0.5,1.3,0.5,1.8,0c0.2-0.2,0.4-0.6,0.4-0.9c0-0.3-0.1-0.6-0.3-0.8
		C185.2,287.4,184.6,288,184,288.6z"/>
	<path class="st7" d="M192.7,287.7c0,0.9-0.7,1.6-1.5,1.6c-0.9,0-1.6-0.7-1.6-1.5c0-0.9,0.7-1.6,1.5-1.6c0,0,0,0,0,0
		C192,286.1,192.7,286.8,192.7,287.7C192.7,287.7,192.7,287.7,192.7,287.7z"/>
	<path class="st10" d="M190.2,288.6c0.2,0.2,0.6,0.4,0.9,0.4c0.7,0,1.3-0.6,1.3-1.3c0,0,0,0,0,0c0-0.3-0.1-0.6-0.3-0.8
		C191.4,287.4,190.8,288,190.2,288.6z"/>
	<path class="st2" d="M100.4,270.1H52.2c-2.2,0-4-1.7-4-3.9v-22.2c0-15.2,12.6-27.5,28.1-27.5s28.1,12.4,28.1,27.5v22.2
		C104.4,268.3,102.6,270.1,100.4,270.1z M56.2,262.3h40.2v-18.4c0-11.1-9-20.1-20.1-20.1c-11.1,0-20.1,9-20.1,20.1V262.3z"/>
	<rect x="45.2" y="259.4" class="st12" width="61.4" height="50.8"/>
	<path class="st5" d="M82.3,280.5c-0.1-3.7-3.3-6.6-6.9-6.4c-3.5,0.1-6.3,2.9-6.4,6.4c0,2.4,1.4,4.6,3.5,5.8l-1.1,11.5h8.6
		l-1.1-11.5C80.9,285.1,82.3,282.9,82.3,280.5z"/>
</g>
<g id="character-1--inject-37">
	<ellipse class="st3" cx="-63.5" cy="474.8" rx="47.5" ry="10.5"/>
	<ellipse class="st4" cx="-63.5" cy="474.8" rx="47.5" ry="10.5"/>
	<path class="st13" d="M-88.2,464c0,0-11.5,6.5-11.5,9.6s7.1,1.2,11.8-1s8.3-3.8,8.3-8.2S-88.2,464-88.2,464z"/>
	<path class="st13" d="M-33,464c0,0,11.5,6.5,11.5,9.6s-7.1,1.2-11.8-1s-8.3-3.8-8.3-8.2S-33,464-33,464z"/>
	<path class="st14" d="M-83.5,358l-4.9,107.3c1.4,1.1,3.1,1.6,4.9,1.4c1.5-0.2,2.9-1,3.9-2.2l16.7-87.6h3.4l17.6,89.3
		c1.1,0.6,2.2,0.9,3.4,1c1.7,0,4.4-2.2,4.4-2.2l-5.6-107L-83.5,358z"/>
	<polygon class="st13" points="-66.4,292.9 -88.7,302.1 -82.8,353.9 -40.1,353.9 -32.3,300.1 -56.6,292.5 	"/>
	<rect x="-83.5" y="352.9" class="st14" width="43.9" height="5"/>
	<path class="st14" d="M-84.3,357l-7.6,3.1c-0.1,2.2,0,4.4,0.5,6.5c0.7,2.9,1.7,9.1,2.5,10.3s4.4,3.6,4.9,2.9s2.9-21.8,2.9-21.8
		L-84.3,357z"/>
	<polygon class="st15" points="-67.1,281.8 -67.1,290.5 -60.7,297.1 -54.2,290.4 -54.2,281.6 	"/>
	<path class="st15" d="M-71.6,273.6c0,0-1.2-2.6-1.9-1s0.1,4.1,1.3,5.1c0.8,0.6,1.9,0.9,2.9,0.8l-0.6-3.8L-71.6,273.6z"/>
	<path class="st15" d="M-50.8,273.6c0,0,1.2-2.6,1.9-1s-0.1,4.1-1.3,5.1c-0.8,0.6-1.9,0.9-2.9,0.8l0.6-3.8L-50.8,273.6z"/>
	<path class="st14" d="M-69.4,256.3c0,0-5.4,2.3-5.4,6s0.8,8,2,9.6s2.3,2.8,2.3,2.8l0.3-5.4l3.7-6.4c0,0,6.1,3.9,9.2,3.9
		c1.7,0,3.4-0.1,5.1-0.4l1.2,6.4l1.7-4.6v-4.3c0,0,3.1-2.9,2.4-4.8s-11-7.8-17.4-6.3S-69.4,256.3-69.4,256.3z"/>
	<path class="st15" d="M-72,268.9c0,0,1.5,9.4,2.8,11.9c1.7,2.8,3.8,5.3,6.2,7.5c0.9,0.6,4.2,0.1,5.5,0.1s5-7.5,5.6-8.9
		s1-13.1,1-13.1l-1.1-2.1c0,0-5.5,1.4-9.8-0.4c-2.4-0.8-4.5-2.3-6.1-4.1c0,0-0.4,4.3-1.9,6.8S-72,268.9-72,268.9z"/>
	<path class="st14" d="M-62.1,269.9c-1.5-0.8-3.3-1.2-5-1.3c-1.5-0.1-3,0.2-4.3,0.9c0,0,0,4.3,1.4,5.9s5.5,1.1,6.6-0.3
		S-62.1,269.9-62.1,269.9z"/>
	<path class="st14" d="M-60.3,269.9c1.5-0.8,3.3-1.2,5-1.3c1.5-0.1,3,0.2,4.3,0.9c0,0,0,4.3-1.4,5.9s-5.5,1.1-6.6-0.3
		S-60.3,269.9-60.3,269.9z"/>
	<line class="st6" x1="-62.1" y1="269.9" x2="-60.3" y2="269.9"/>
	<polygon class="st14" points="-63.9,300.4 -61.2,304.7 -65.6,341.9 -60.2,349.8 -55.6,341.2 -59.3,304.2 -56.1,299.2 -60.7,297.1 	
		"/>
	<polygon class="st13" points="-60.7,297.1 -64.3,303.3 -70.7,294.8 -67.1,290.5 	"/>
	<polygon class="st13" points="-60.7,297.1 -56.4,303.9 -51.2,294.3 -54.2,290.4 	"/>
	<polygon class="st13" points="-88.7,302.1 -115.9,337.8 -91.9,355.1 -88.4,349.1 -95.8,334.9 -85.7,325.8 	"/>
	<path class="st15" d="M-88.4,349.1l8.1-0.2l6.1,5.5c0,0.7-0.3,1.4-0.7,1.9c-0.7,0.7-2.7,0.2-2.7,0.2s-1.5,3.6-4.2,3.6s-10-5-10-5
		L-88.4,349.1z"/>
	<line class="st11" x1="-90.4" y1="345" x2="-94.6" y2="352.5"/>
	<line class="st11" x1="-95.8" y1="334.9" x2="-99" y2="326.8"/>
	<polygon class="st13" points="-32.3,300.1 -4.8,337.8 -28.9,355.1 -32.3,349.1 -24.9,334.9 -36.5,325.6 	"/>
	<path class="st15" d="M-32.3,349.1l-8.1-0.2l-6.1,5.5c0,0.7,0.3,1.4,0.7,1.9c0.7,0.7,2.7,0.2,2.7,0.2s1.5,3.6,4.2,3.6s10-5,10-5
		L-32.3,349.1z"/>
	<line class="st11" x1="-30.3" y1="345" x2="-26.2" y2="352.5"/>
	<line class="st11" x1="-24.9" y1="334.9" x2="-21.8" y2="326.8"/>
	<polygon class="st13" points="-69.4,311.6 -84.4,311.6 -84.4,316.8 -76.9,319.6 -69.4,316.5 	"/>
	<polygon class="st13" points="-39.3,311.6 -54.3,311.6 -54.3,316.8 -46.8,319.6 -39.3,316.5 	"/>
</g>
</svg>
