<svg width="44" height="36" viewBox="0 0 44 36" fill="none" xmlns="http://www.w3.org/2000/svg">
<path d="M39.4771 9.03813C39.505 9.42897 39.505 9.8199 39.505 10.2107C39.505 22.132 30.4315 35.8681 13.8477 35.8681C8.73855 35.8681 3.9924 34.3883 0 31.8199C0.725914 31.9036 1.42381 31.9315 2.17766 31.9315C6.39332 31.9315 10.2741 30.5077 13.3731 28.0788C9.40861 27.995 6.08627 25.3986 4.94158 21.8249C5.5 21.9086 6.05834 21.9645 6.64469 21.9645C7.4543 21.9645 8.26401 21.8528 9.01777 21.6574C4.8858 20.8198 1.78673 17.1904 1.78673 12.8072V12.6955C2.98719 13.3656 4.38324 13.7844 5.86283 13.8401C3.43389 12.2208 1.84259 9.4569 1.84259 6.32998C1.84259 4.65488 2.2892 3.11935 3.07098 1.77924C7.51008 7.25131 14.1827 10.8249 21.6648 11.2158C21.5253 10.5457 21.4415 9.84783 21.4415 9.14985C21.4415 4.18025 25.4618 0.13208 30.4593 0.13208C33.0557 0.13208 35.4008 1.22091 37.0481 2.97979C39.0861 2.58895 41.0404 1.8351 42.7714 0.802135C42.1013 2.89609 40.6775 4.65497 38.807 5.77164C40.6217 5.57631 42.3806 5.07366 43.9998 4.37576C42.7716 6.16249 41.236 7.75379 39.4771 9.03813Z" fill="#075966"/>
</svg>
