<svg width="39" height="40" viewBox="0 0 39 40" fill="none" xmlns="http://www.w3.org/2000/svg">
<path d="M38.3453 21.2375C37.8125 19.6047 36.0336 18.7367 34.3922 19.2695L30.4906 20.5672L27.8867 12.8328L31.7883 11.5352C33.4297 11.0023 34.289 9.23203 33.7648 7.59062C33.232 5.95781 31.4531 5.08984 29.8117 5.62265L25.9101 6.92031L24.5609 2.88124C24.0281 1.24843 22.2492 0.380463 20.6078 0.913276C18.9664 1.44609 18.107 3.2164 18.6312 4.85781L19.9805 8.89687L11.9539 11.5781L10.6047 7.53906C10.0719 5.90624 8.29295 5.03828 6.65155 5.57109C5.01014 6.1039 4.15076 7.87421 4.67498 9.51562L6.0242 13.5547L2.13123 14.8437C0.489827 15.3766 -0.369548 17.1469 0.154671 18.7883C0.584359 20.0344 1.79608 20.8508 3.04217 20.9023C3.62655 20.9883 4.07342 20.7648 8.00076 19.4586L10.6047 27.193L6.70311 28.4906C5.0703 29.0234 4.20233 30.8023 4.72655 32.4352C5.15623 33.6812 6.36795 34.4977 7.61405 34.5492C8.19842 34.6351 8.6453 34.4117 12.5726 33.1055L13.9219 37.1445C14.4289 38.5969 16.0445 39.6367 17.875 39.1125C19.5164 38.5797 20.3758 36.8094 19.8515 35.168L18.5023 31.1289L26.5461 28.4391L27.8953 32.4781C28.4023 33.9305 30.018 34.9703 31.8484 34.4461C33.4898 33.9133 34.3492 32.143 33.825 30.5016L32.4758 26.4625L36.3773 25.1648C38.0101 24.6492 38.8781 22.8703 38.3453 21.2375ZM16.5086 25.2937L13.9047 17.5422L21.9398 14.8523L24.5437 22.6039L16.5086 25.2937Z" fill="#075966"/>
</svg>
